<svg width="172" height="32" viewBox="0 0 172 32" fill="none" xmlns="http://www.w3.org/2000/svg">
<path d="M39.1262 31.975C44.4389 32.2404 48.6209 30.3935 51.6684 26.4268C56.2473 20.4711 54.7722 11.7899 48.8305 7.38948C45.6369 5.02664 42.039 4.20414 38.0367 4.91074C37.8794 4.94065 37.7185 4.89205 37.6061 4.77615C37.2767 4.44715 36.9509 4.12936 36.6327 3.81531C31.3874 -1.29545 23.1545 -1.22068 17.8418 3.73306C17.5086 4.04337 17.1604 4.34247 16.8047 4.63034C16.6849 4.72755 16.5464 4.7612 16.3966 4.73877C11.4546 4.04337 7.39991 5.25096 4.22878 8.36528C-1.0502 13.5433 -1.52568 21.903 3.58856 27.4288C6.93566 31.0441 10.7732 32.0498 15.7789 31.96C19.5228 31.8927 23.2855 31.889 27.0594 31.9451L39.1262 31.975ZM28.7554 28.5392C24.345 28.5205 19.7812 28.5242 15.0638 28.5541C13.0196 28.5653 11.3348 28.3223 10.0057 27.8176C3.94798 25.5183 1.58929 18.2615 4.94013 12.8106C6.94315 9.55044 10.6534 7.6325 14.4872 7.95776C14.6445 7.96898 14.6969 8.05123 14.6482 8.20078L13.6785 11.1955C13.6224 11.3637 13.4951 11.502 13.3303 11.5731C11.9937 12.1264 8.41452 14.2088 9.96452 16.0595C10.4026 16.5829 11.1813 16.6614 11.7129 16.2314C12.4206 15.6632 12.9522 14.8519 13.8058 14.4668C15.7864 13.5807 17.5722 13.9284 19.1597 15.5136C19.9047 16.2614 20.0919 18.0821 21.1178 18.3288C22.5816 18.6765 23.2481 17.282 22.7614 16.1006C21.7617 13.6742 20.0545 12.1077 17.6471 11.4086C17.2727 11.3001 17.1567 11.0646 17.2952 10.7019C18.9987 6.26414 22.05 3.8527 26.4529 3.46014C29.1186 3.2246 31.642 4.05833 34.0307 5.96505C34.2328 6.12581 34.2216 6.26788 34.0007 6.39874C33.0048 6.97823 32.0801 7.64745 31.2264 8.40266C31.0842 8.52978 30.8857 8.57464 30.7023 8.52978C28.4334 7.98019 26.7075 7.7484 24.3675 8.59334C24.0193 8.72045 23.7498 9.00459 23.6449 9.3635C23.5139 9.80093 23.5401 10.186 23.7273 10.515C24.0455 11.0908 24.5322 11.3338 25.1837 11.2441C25.5843 11.1917 25.9886 11.1057 26.3967 10.9973C28.3099 10.4851 30.5488 11.259 31.8704 12.5862C32.8064 13.5209 33.4541 16.1268 35.2512 15.136C36.9809 14.1864 34.8169 11.6067 34.0606 10.7917C33.9146 10.6309 33.9296 10.4888 34.1018 10.3617C37.2467 8.05123 40.5676 7.48669 44.0682 8.67185C49.8863 10.6384 52.4622 17.2371 49.9462 22.6806C48.4449 25.9296 45.1427 28.2662 41.5972 28.5092C40.2831 28.599 38.9502 28.6177 37.5912 28.5653L28.7554 28.5392Z" fill="#14A5F8"/>
<path d="M46.3182 18.6534C44.6446 18.53 43.6413 17.685 43.3006 16.1185C43.1733 15.5129 43.3904 14.8137 43.5552 14.2268C43.982 12.6565 41.8966 11.7892 41.0841 13.0154C40.2942 14.2118 40.3391 15.9241 40.6499 17.3486C40.7434 17.7822 40.721 18.1972 40.5825 18.5935C39.4256 21.9172 36.1272 23.5286 32.7876 22.392C32.7763 22.3883 32.7651 22.3845 32.7501 22.3771C32.6303 22.3135 32.5854 22.1677 32.6453 22.0481C33.263 20.8779 34.1241 18.1374 32.8924 17.1205C32.2597 16.5971 31.6157 16.6494 30.9605 17.2887C30.7808 17.4607 30.6909 17.6701 30.6872 17.9131C30.6086 21.5134 28.8414 23.0201 25.3858 22.4369C24.753 22.3322 24.2776 22.5565 23.9556 23.1098C23.8844 23.2332 23.8395 23.3641 23.8208 23.4949C23.6898 24.3773 24.0567 24.9343 24.914 25.1661C26.7224 25.6521 28.4371 25.4577 30.0582 24.5829C30.2005 24.5081 30.354 24.4857 30.5112 24.5193C31.3686 24.7063 32.1136 25.2259 32.9935 25.383C37.3102 26.1793 40.545 24.3773 42.7989 20.7096C42.9 20.5489 43.0347 20.5115 43.1995 20.6049C44.4537 21.2891 46.6551 22.1602 47.6323 20.762C48.3437 19.76 47.3216 18.7244 46.3182 18.6534Z" fill="#14A5F8"/>
<path d="M16.1958 21.039C14.4324 22.3065 12.6728 22.4074 10.9169 21.3381C10.1007 20.8409 9.4979 19.6146 8.3822 19.8875C7.9217 19.9997 7.59971 20.2763 7.41626 20.7213C7.0531 21.6036 7.7607 22.4672 8.39718 22.9869C10.8719 25.0245 13.5901 25.417 16.544 24.1646C17.4875 23.7683 18.9963 22.7439 18.3112 21.5213C17.8544 20.6988 16.9559 20.4932 16.1958 21.039Z" fill="#14A5F8"/>
<path d="M76.1951 30C73.9186 30 71.9886 29.6152 70.405 28.8457C68.8214 28.0514 67.4728 27.0337 66.3594 25.7926L70.071 22.0319C71.8278 24.0177 73.9929 25.0106 76.5662 25.0106C77.9519 25.0106 78.9787 24.7252 79.6468 24.1543C80.3149 23.5833 80.649 22.8262 80.649 21.883C80.649 21.1631 80.451 20.5674 80.0551 20.0957C79.6592 19.5993 78.855 19.2642 77.6426 19.0904L75.0816 18.7553C72.335 18.4078 70.3184 17.5762 69.0317 16.2606C67.7698 14.945 67.1388 13.195 67.1388 11.0106C67.1388 9.84397 67.3615 8.77659 67.8069 7.80851C68.2523 6.84042 68.8832 6.00886 69.6998 5.31383C70.5411 4.61879 71.5556 4.08511 72.7433 3.71277C73.9557 3.3156 75.329 3.11702 76.8631 3.11702C78.8179 3.11702 80.5376 3.4273 82.0222 4.04787C83.5069 4.66844 84.7812 5.57447 85.8452 6.76596L82.0965 10.5638C81.4779 9.84397 80.7232 9.26064 79.8324 8.81383C78.9664 8.3422 77.8653 8.10638 76.5291 8.10638C75.2672 8.10638 74.3269 8.32979 73.7083 8.77659C73.0897 9.2234 72.7804 9.84397 72.7804 10.6383C72.7804 11.5319 73.0155 12.1773 73.4856 12.5745C73.9805 12.9716 74.7723 13.2571 75.861 13.4308L78.422 13.8404C81.0943 14.2624 83.0739 15.094 84.3605 16.3351C85.6472 17.5514 86.2906 19.289 86.2906 21.5479C86.2906 22.789 86.0679 23.9308 85.6225 24.9734C85.1771 26.016 84.5214 26.9096 83.6553 27.6543C82.814 28.3989 81.7624 28.9823 80.5005 29.4043C79.2386 29.8014 77.8034 30 76.1951 30Z" fill="#1C3E7F"/>
<path d="M102.177 26.2766H101.991C101.818 26.773 101.583 27.2447 101.286 27.6915C101.014 28.1383 100.655 28.5355 100.21 28.883C99.7645 29.2305 99.2325 29.5035 98.6139 29.7021C98.02 29.9007 97.3272 30 96.5354 30C94.5311 30 93.0094 29.3422 91.9701 28.0266C90.9556 26.6862 90.4484 24.7748 90.4484 22.2926V10.0053H95.9415V21.8085C95.9415 23 96.1519 23.9184 96.5725 24.5638C96.9931 25.2092 97.7107 25.5319 98.7252 25.5319C99.1459 25.5319 99.5665 25.4699 99.9872 25.3457C100.408 25.2216 100.779 25.0479 101.101 24.8245C101.422 24.5762 101.682 24.2784 101.88 23.9308C102.078 23.5833 102.177 23.1738 102.177 22.7021V10.0053H107.67V29.5532H102.177V26.2766Z" fill="#1C3E7F"/>
<path d="M112.781 2H118.274V18.2713H118.497L120.909 14.6596L124.807 10.0053H130.894L124.398 17.4894L131.636 29.5532H125.104L120.724 21.2872L118.274 24.0426V29.5532H112.781V2Z" fill="#1C3E7F"/>
<path d="M141.093 30C139.658 30 138.371 29.7642 137.233 29.2925C136.12 28.8209 135.167 28.1383 134.375 27.2447C133.608 26.3511 133.014 25.2713 132.594 24.0053C132.173 22.7394 131.963 21.3245 131.963 19.7606C131.963 18.1968 132.173 16.7819 132.594 15.516C133.014 14.25 133.608 13.1826 134.375 12.3138C135.167 11.4202 136.12 10.7376 137.233 10.266C138.371 9.79433 139.658 9.55851 141.093 9.55851C142.528 9.55851 143.803 9.79433 144.916 10.266C146.054 10.7376 147.007 11.4202 147.774 12.3138C148.566 13.1826 149.172 14.25 149.593 15.516C150.013 16.7819 150.224 18.1968 150.224 19.7606C150.224 21.3245 150.013 22.7394 149.593 24.0053C149.172 25.2713 148.566 26.3511 147.774 27.2447C147.007 28.1383 146.054 28.8209 144.916 29.2925C143.803 29.7642 142.528 30 141.093 30ZM141.093 25.6436C142.182 25.6436 143.023 25.3085 143.617 24.6383C144.211 23.9681 144.508 23.0124 144.508 21.7713V17.7872C144.508 16.5461 144.211 15.5904 143.617 14.9202C143.023 14.25 142.182 13.9149 141.093 13.9149C140.004 13.9149 139.163 14.25 138.569 14.9202C137.975 15.5904 137.679 16.5461 137.679 17.7872V21.7713C137.679 23.0124 137.975 23.9681 138.569 24.6383C139.163 25.3085 140.004 25.6436 141.093 25.6436Z" fill="#1C3E7F"/>
<path d="M154.138 29.5532V10.0053H159.631V13.3191H159.853C160.2 12.3014 160.806 11.4202 161.672 10.6755C162.538 9.93085 163.738 9.55851 165.272 9.55851C167.277 9.55851 168.786 10.2287 169.801 11.5691C170.84 12.9096 171.359 14.8209 171.359 17.3032V29.5532H165.866V17.75C165.866 16.484 165.668 15.5532 165.272 14.9574C164.876 14.3369 164.171 14.0266 163.157 14.0266C162.711 14.0266 162.278 14.0887 161.858 14.2128C161.437 14.3121 161.054 14.4858 160.707 14.734C160.385 14.9823 160.126 15.2926 159.928 15.6649C159.73 16.0124 159.631 16.422 159.631 16.8936V29.5532H154.138Z" fill="#1C3E7F"/>
</svg>
