<svg width="81" height="48" viewBox="0 0 81 48" fill="none" xmlns="http://www.w3.org/2000/svg">
<path d="M58.0722 47.9625C65.9574 48.3606 72.1645 45.5903 76.6878 39.6402C83.4839 30.7066 81.2944 17.6848 72.4757 11.0842C67.7356 7.53997 62.3955 6.3062 56.4552 7.36612C56.2218 7.41098 55.9828 7.33808 55.8161 7.16423C55.3271 6.67073 54.8437 6.19404 54.3713 5.72297C46.5861 -1.94317 34.3665 -1.83101 26.4813 5.5996C25.9868 6.06506 25.47 6.5137 24.9421 6.94552C24.7642 7.09133 24.5586 7.1418 24.3364 7.10815C17.0013 6.06506 10.9832 7.87645 6.27648 12.5479C-1.55873 20.315 -2.26446 32.8545 5.32625 41.1431C10.2941 46.5661 15.9899 48.0746 23.4195 47.9401C28.9764 47.8391 34.561 47.8335 40.1624 47.9176L58.0722 47.9625ZM42.6796 42.8087C36.1336 42.7807 29.3598 42.7863 22.3581 42.8312C19.324 42.848 16.8234 42.4835 14.8508 41.7264C5.85971 38.2775 2.35887 27.3923 7.33228 19.2158C10.3052 14.3257 15.8121 11.4487 21.5023 11.9366C21.7357 11.9535 21.8135 12.0768 21.7413 12.3012L20.3021 16.7932C20.2187 17.0455 20.0298 17.253 19.7853 17.3596C17.8015 18.1896 12.4891 21.3132 14.7896 24.0892C15.4398 24.8743 16.5956 24.9921 17.3847 24.3472C18.4349 23.4947 19.224 22.2778 20.491 21.7002C23.4306 20.3711 26.0812 20.8926 28.4373 23.2704C29.5432 24.392 29.821 27.1231 31.3436 27.4933C33.5163 28.0148 34.5055 25.923 33.7831 24.1509C32.2994 20.5113 29.7654 18.1615 26.1924 17.1128C25.6367 16.9502 25.4644 16.5969 25.67 16.0529C28.1984 9.39622 32.7273 5.77905 39.2621 5.19021C43.2187 4.83691 46.964 6.08749 50.5093 8.94758C50.8094 9.18872 50.7927 9.40182 50.4648 9.5981C48.9867 10.4673 47.6142 11.4712 46.3472 12.604C46.136 12.7947 45.8415 12.862 45.5692 12.7947C42.2017 11.9703 39.64 11.6226 36.167 12.89C35.6502 13.0807 35.2501 13.5069 35.0945 14.0453C34.9 14.7014 34.9389 15.279 35.2167 15.7725C35.6891 16.6362 36.4115 17.0007 37.3784 16.8661C37.973 16.7876 38.5731 16.6586 39.1788 16.496C42.0184 15.7277 45.3414 16.8885 47.303 18.8794C48.6922 20.2814 49.6535 24.1901 52.3208 22.704C54.8881 21.2796 51.6762 17.4101 50.5537 16.1875C50.337 15.9464 50.3593 15.7333 50.6149 15.5426C55.2827 12.0768 60.2116 11.23 65.4073 13.0078C74.0427 15.9576 77.8658 25.8557 74.1316 34.021C71.9033 38.8943 67.0021 42.3993 61.7398 42.7639C59.7893 42.8985 57.811 42.9265 55.7939 42.848L42.6796 42.8087Z" fill="white"/>
<path d="M68.7471 27.9811C66.2631 27.7961 64.7739 26.5287 64.2682 24.1789C64.0793 23.2704 64.4016 22.2217 64.6461 21.3412C65.2796 18.9859 62.1844 17.6848 60.9786 19.5243C59.8061 21.3188 59.8727 23.8873 60.334 26.0239C60.4729 26.6745 60.4395 27.297 60.2339 27.8914C58.5169 32.8769 53.6213 35.294 48.6645 33.5891C48.6478 33.5835 48.6312 33.5779 48.6089 33.5667C48.4311 33.4714 48.3644 33.2526 48.4534 33.0732C49.3702 31.3179 50.6483 27.2072 48.8201 25.6818C47.881 24.8967 46.9252 24.9752 45.9528 25.9342C45.686 26.1922 45.5527 26.5062 45.5471 26.8707C45.4304 32.2712 42.8076 34.5313 37.6786 33.6564C36.7395 33.4994 36.0337 33.8359 35.5558 34.6659C35.4503 34.8509 35.3836 35.0472 35.3558 35.2435C35.1613 36.567 35.7059 37.4026 36.9784 37.7503C39.6624 38.4793 42.2074 38.1877 44.6136 36.8754C44.8247 36.7633 45.0525 36.7296 45.2859 36.7801C46.5585 37.0605 47.6643 37.84 48.9701 38.0755C55.3772 39.27 60.1784 36.567 63.5236 31.0655C63.6736 30.8244 63.8737 30.7683 64.1182 30.9085C65.9797 31.9348 69.2472 33.2414 70.6975 31.144C71.7533 29.6411 70.2363 28.0877 68.7471 27.9811Z" fill="white"/>
<path d="M24.0361 31.559C21.4188 33.4601 18.807 33.6116 16.2009 32.0077C14.9894 31.2618 14.0948 29.4224 12.4388 29.8318C11.7553 30 11.2774 30.415 11.0052 31.0823C10.4661 32.4058 11.5164 33.7013 12.4611 34.4808C16.1342 37.5372 20.1685 38.126 24.5529 36.2473C25.9532 35.6529 28.1926 34.1163 27.1757 32.2825C26.4978 31.0487 25.1641 30.7402 24.0361 31.559Z" fill="white"/>
</svg>
