<svg width="55" height="32" viewBox="0 0 55 32" fill="none" xmlns="http://www.w3.org/2000/svg">
<path d="M39.7668 31.975C45.0795 32.2404 49.2615 30.3935 52.3091 26.4268C56.8879 20.4711 55.4128 11.7899 49.4711 7.38948C46.2776 5.02664 42.6796 4.20414 38.6773 4.91074C38.5201 4.94065 38.3591 4.89205 38.2468 4.77615C37.9173 4.44715 37.5916 4.12936 37.2733 3.81531C32.0281 -1.29545 23.7951 -1.22068 18.4824 3.73306C18.1492 4.04337 17.801 4.34247 17.4454 4.63034C17.3255 4.72755 17.187 4.7612 17.0373 4.73877C12.0952 4.04337 8.04053 5.25096 4.8694 8.36528C-0.409573 13.5433 -0.885055 21.903 4.22919 27.4288C7.57628 31.0441 11.4138 32.0498 16.4195 31.96C20.1635 31.8927 23.9261 31.889 27.7 31.9451L39.7668 31.975ZM29.3961 28.5392C24.9857 28.5205 20.4218 28.5242 15.7044 28.5541C13.6602 28.5653 11.9754 28.3223 10.6463 27.8176C4.58861 25.5183 2.22992 18.2615 5.58076 12.8106C7.58377 9.55044 11.294 7.6325 15.1278 7.95776C15.2851 7.96898 15.3375 8.05123 15.2888 8.20078L14.3191 11.1955C14.263 11.3637 14.1357 11.502 13.971 11.5731C12.6344 12.1264 9.05515 14.2088 10.6051 16.0595C11.0432 16.5829 11.8219 16.6614 12.3536 16.2314C13.0612 15.6632 13.5928 14.8519 14.4464 14.4668C16.427 13.5807 18.2129 13.9284 19.8003 15.5136C20.5453 16.2614 20.7325 18.0821 21.7584 18.3288C23.2223 18.6765 23.8887 17.282 23.402 16.1006C22.4023 13.6742 20.6951 12.1077 18.2877 11.4086C17.9133 11.3001 17.7973 11.0646 17.9358 10.7019C19.6393 6.26414 22.6906 3.8527 27.0935 3.46014C29.7592 3.2246 32.2826 4.05833 34.6713 5.96505C34.8735 6.12581 34.8622 6.26788 34.6413 6.39874C33.6454 6.97823 32.7207 7.64745 31.8671 8.40266C31.7248 8.52978 31.5264 8.57464 31.3429 8.52978C29.0741 7.98019 27.3481 7.7484 25.0081 8.59334C24.66 8.72045 24.3904 9.00459 24.2856 9.3635C24.1545 9.80093 24.1807 10.186 24.3679 10.515C24.6862 11.0908 25.1729 11.3338 25.8243 11.2441C26.2249 11.1917 26.6293 11.1057 27.0374 10.9973C28.9505 10.4851 31.1894 11.259 32.511 12.5862C33.447 13.5209 34.0947 16.1268 35.8918 15.136C37.6215 14.1864 35.4575 11.6067 34.7012 10.7917C34.5552 10.6309 34.5702 10.4888 34.7424 10.3617C37.8873 8.05123 41.2082 7.48669 44.7088 8.67185C50.5269 10.6384 53.1028 17.2371 50.5868 22.6806C49.0855 25.9296 45.7833 28.2662 42.2378 28.5092C40.9237 28.599 39.5908 28.6177 38.2318 28.5653L29.3961 28.5392Z" fill="#14A5F8"/>
<path d="M46.9588 18.6534C45.2853 18.53 44.2819 17.685 43.9412 16.1185C43.8139 15.5129 44.031 14.8137 44.1958 14.2268C44.6226 12.6565 42.5372 11.7892 41.7248 13.0154C40.9348 14.2118 40.9797 15.9241 41.2905 17.3486C41.3841 17.7822 41.3616 18.1972 41.2231 18.5935C40.0662 21.9172 36.7678 23.5286 33.4282 22.392C33.417 22.3883 33.4057 22.3845 33.3907 22.3771C33.2709 22.3135 33.226 22.1677 33.2859 22.0481C33.9037 20.8779 34.7648 18.1374 33.533 17.1205C32.9003 16.5971 32.2563 16.6494 31.6011 17.2887C31.4214 17.4607 31.3316 17.6701 31.3278 17.9131C31.2492 21.5134 29.4821 23.0201 26.0264 22.4369C25.3937 22.3322 24.9182 22.5565 24.5962 23.1098C24.5251 23.2332 24.4801 23.3641 24.4614 23.4949C24.3304 24.3773 24.6973 24.9343 25.5547 25.1661C27.363 25.6521 29.0777 25.4577 30.6988 24.5829C30.8411 24.5081 30.9946 24.4857 31.1519 24.5193C32.0092 24.7063 32.7543 25.2259 33.6341 25.383C37.9509 26.1793 41.1856 24.3773 43.4395 20.7096C43.5406 20.5489 43.6754 20.5115 43.8401 20.6049C45.0943 21.2891 47.2958 22.1602 48.2729 20.762C48.9843 19.76 47.9622 18.7244 46.9588 18.6534Z" fill="#14A5F8"/>
<path d="M16.8365 21.039C15.0731 22.3064 13.3134 22.4073 11.5575 21.3381C10.7413 20.8408 10.1385 19.6145 9.02283 19.8875C8.56232 19.9996 8.24034 20.2763 8.05688 20.7212C7.69372 21.6035 8.40133 22.4672 9.0378 22.9868C11.5126 25.0244 14.2307 25.417 17.1847 24.1645C18.1281 23.7682 19.637 22.7438 18.9518 21.5213C18.495 20.6988 17.5965 20.4931 16.8365 21.039Z" fill="#14A5F8"/>
</svg>
