<svg width="190" height="190" viewBox="0 0 190 190" fill="none" xmlns="http://www.w3.org/2000/svg">
<rect width="190" height="190" rx="20" fill="#14A5F8"/>
<path d="M118.296 126.95C128.656 127.481 136.811 123.787 142.754 115.854C151.683 103.942 148.806 86.5798 137.22 77.779C130.992 73.0533 123.976 71.4083 116.172 72.8215C115.865 72.8813 115.551 72.7841 115.332 72.5523C114.69 71.8943 114.055 71.2587 113.434 70.6306C103.206 60.4091 87.1514 60.5586 76.7916 70.4661C76.1419 71.0867 75.4629 71.6849 74.7693 72.2607C74.5357 72.4551 74.2656 72.5224 73.9736 72.4775C64.3366 71.0867 56.4299 73.5019 50.2461 79.7306C39.9521 90.0867 39.0249 106.806 48.9977 117.858C55.5246 125.088 63.0078 127.1 72.7689 126.92C80.0697 126.785 87.4069 126.778 94.7661 126.89L118.296 126.95ZM98.0733 120.078C89.473 120.041 80.5734 120.048 71.3745 120.108C67.3883 120.131 64.103 119.645 61.5112 118.635C49.6986 114.037 45.0991 99.5231 51.6333 88.6211C55.5392 82.1009 62.7742 78.265 70.2502 78.9155C70.5568 78.938 70.659 79.1025 70.5641 79.4016L68.6732 85.3909C68.5637 85.7274 68.3155 86.004 67.9942 86.1461C65.3879 87.2528 58.4084 91.4176 61.4309 95.1189C62.2851 96.1658 63.8036 96.3228 64.8403 95.4629C66.2202 94.3263 67.2569 92.7037 68.9214 91.9336C72.7835 90.1614 76.266 90.8568 79.3615 94.0272C80.8144 95.5227 81.1794 99.1642 83.1798 99.6577C86.0344 100.353 87.3339 97.564 86.3848 95.2012C84.4355 90.3484 81.1064 87.2154 76.412 85.8171C75.6819 85.6003 75.4556 85.1292 75.7257 84.4039C79.0476 75.5283 84.9977 70.7054 93.5833 69.9203C98.7815 69.4492 103.702 71.1167 108.36 74.9301C108.754 75.2516 108.732 75.5358 108.302 75.7975C106.36 76.9565 104.556 78.2949 102.892 79.8053C102.614 80.0596 102.227 80.1493 101.87 80.0596C97.4454 78.9604 94.0798 78.4968 89.5168 80.1867C88.8379 80.4409 88.3122 81.0092 88.1078 81.727C87.8523 82.6019 87.9034 83.372 88.2684 84.03C88.889 85.1815 89.8381 85.6676 91.1084 85.4881C91.8896 85.3834 92.678 85.2114 93.4738 84.9946C97.2045 83.9702 101.57 85.518 104.148 88.1725C105.973 90.0418 107.236 95.2535 110.74 93.272C114.113 91.3728 109.893 86.2134 108.418 84.5833C108.134 84.2618 108.163 83.9777 108.499 83.7235C114.631 79.1025 121.107 77.9734 127.933 80.3437C139.279 84.2768 144.302 97.4743 139.395 108.361C136.468 114.859 130.029 119.532 123.115 120.018C120.552 120.198 117.953 120.235 115.303 120.131L98.0733 120.078Z" fill="white"/>
<path d="M132.321 100.308C129.057 100.061 127.101 98.3715 126.437 95.2385C126.188 94.0272 126.612 92.6289 126.933 91.455C127.765 88.3145 123.699 86.5798 122.115 89.0323C120.574 91.4251 120.662 94.8497 121.268 97.6986C121.45 98.5659 121.406 99.3959 121.136 100.189C118.88 106.836 112.448 110.059 105.936 107.786C105.914 107.778 105.892 107.771 105.863 107.756C105.629 107.628 105.542 107.337 105.659 107.098C106.863 104.757 108.542 99.2763 106.141 97.2425C104.907 96.1956 103.651 96.3003 102.373 97.5789C102.023 97.9229 101.848 98.3416 101.84 98.8276C101.687 106.028 98.2411 109.042 91.5026 107.875C90.2687 107.666 89.3415 108.115 88.7137 109.221C88.575 109.468 88.4874 109.73 88.4509 109.991C88.1953 111.756 88.9108 112.87 90.5827 113.334C94.1089 114.306 97.4527 113.917 100.614 112.167C100.891 112.018 101.191 111.973 101.497 112.04C103.169 112.414 104.622 113.453 106.338 113.767C114.755 115.36 121.063 111.756 125.458 104.421C125.655 104.099 125.918 104.024 126.239 104.211C128.685 105.58 132.978 107.322 134.883 104.525C136.271 102.521 134.278 100.45 132.321 100.308Z" fill="white"/>
<path d="M73.5792 105.079C70.1405 107.614 66.7092 107.815 63.2851 105.677C61.6936 104.682 60.5181 102.23 58.3425 102.776C57.4445 103 56.8167 103.553 56.4589 104.443C55.7508 106.208 57.1306 107.935 58.3717 108.974C63.1975 113.05 68.4979 113.835 74.2582 111.33C76.0979 110.537 79.0401 108.488 77.7041 106.043C76.8134 104.398 75.0612 103.987 73.5792 105.079Z" fill="white"/>
</svg>
