<svg width="149" height="32" viewBox="0 0 149 32" fill="none" xmlns="http://www.w3.org/2000/svg">
<g id="Group 742">
<g id="&#217;&#133;&#217;&#134;&#216;&#181;&#216;&#169; &#216;&#179;&#217;&#131;&#217;&#128;&#217;&#136;&#217;&#134;">
<path d="M10.2681 29.4839C6.87842 29.4839 4.31415 28.7097 2.57528 27.1613C0.858427 25.6344 0 23.4624 0 20.6452C0 19.6774 0.132066 18.5914 0.396197 17.3871C0.68234 16.1613 1.06753 14.9785 1.55177 13.8387L4.72135 14.7419C4.28113 15.6667 3.92896 16.6021 3.66482 17.5484C3.4227 18.4946 3.30164 19.3118 3.30164 20C3.30164 21.3548 3.79689 22.4086 4.78738 23.1613C5.77787 23.8925 7.16457 24.2581 8.94745 24.2581H11.5888C13.4597 24.2581 14.8354 23.8387 15.7158 23C16.5963 22.1613 17.0365 20.8495 17.0365 19.0645C17.0365 18.5699 16.9814 17.9355 16.8714 17.1613C16.7613 16.3871 16.6293 15.6559 16.4752 14.9677L15.8149 11.9677L19.3806 11.2903L20.008 14.2581C20.162 14.9677 20.2831 15.7849 20.3711 16.7097C20.4812 17.6129 20.5362 18.3978 20.5362 19.0645C20.5362 22.6344 19.6998 25.2581 18.027 26.9355C16.3761 28.6344 13.7899 29.4839 10.2681 29.4839ZM9.93795 12.1613C9.36566 12.1613 8.89242 11.9892 8.51824 11.6452C8.16606 11.3011 7.98998 10.7527 7.98998 10C7.98998 9.24731 8.16606 8.69893 8.51824 8.35484C8.89242 8.01075 9.36566 7.83871 9.93795 7.83871H10.5983C11.1706 7.83871 11.6328 8.01075 11.985 8.35484C12.3591 8.69893 12.5462 9.24731 12.5462 10C12.5462 10.7527 12.3591 11.3011 11.985 11.6452C11.6328 11.9892 11.1706 12.1613 10.5983 12.1613H9.93795Z" fill="#1C3E7F"/>
<path d="M22.6949 27.1613H24.808C26.899 27.1613 28.5718 26.9032 29.8265 26.3871C31.1031 25.871 32.0056 25.1613 32.5338 24.2581H28.7039C26.921 24.2581 25.5233 23.7527 24.5108 22.7419C23.5203 21.7097 23.0251 20.2796 23.0251 18.4516C23.0251 17.3333 23.1902 16.3011 23.5203 15.3548C23.8725 14.3871 24.3457 13.5591 24.94 12.871C25.5563 12.1613 26.2717 11.6129 27.0861 11.2258C27.9225 10.8172 28.825 10.6129 29.7935 10.6129C31.7965 10.6129 33.3812 11.3871 34.5478 12.9355C35.7144 14.4839 36.3527 16.6452 36.4628 19.4194H38.1466V23.2903L37.1561 24.2581H36.0336C35.4173 26.7312 34.1956 28.6344 32.3687 29.9677C30.5638 31.3226 28.1536 32 25.1381 32H22.6949V27.1613ZM26.3267 17.8064C26.3267 18.3871 26.5688 18.8064 27.0531 19.0645C27.5373 19.3011 28.1977 19.4194 29.0341 19.4194H33.1611V19.3226C33.1611 18.1613 32.798 17.2258 32.0716 16.5161C31.3672 15.8065 30.4648 15.4516 29.3642 15.4516C28.5058 15.4516 27.7795 15.6774 27.1852 16.129C26.6129 16.5591 26.3267 17.1183 26.3267 17.8064Z" fill="#1C3E7F"/>
<path d="M37.1577 20.3871L38.1482 19.4194H41.6809V23.2903L40.6904 24.2581H37.1577V20.3871Z" fill="#1C3E7F"/>
<path d="M40.7043 20.3871L41.6948 19.4194H44.7984C45.5908 19.4194 46.1301 19.3441 46.4162 19.1935C46.7243 19.0215 46.8784 18.7312 46.8784 18.3226C46.8784 18.043 46.8014 17.7957 46.6473 17.5806C46.4932 17.3441 46.2291 17.0753 45.8549 16.7742L42.025 13.4194V4.90323L57.8729 0V4.25806L43.6758 8.6129V8.80645L52.095 16.3226C52.7994 16.9677 53.4267 17.4946 53.977 17.9032C54.5492 18.2903 55.0665 18.6021 55.5287 18.8387C56.013 19.0538 56.4642 19.2043 56.8824 19.2903C57.3006 19.3763 57.7408 19.4194 58.2031 19.4194V23.2903L57.2126 24.2581C56.4642 24.2581 55.7819 24.1936 55.1656 24.0645C54.5713 23.914 53.977 23.6559 53.3827 23.2903C52.7884 22.9032 52.161 22.3978 51.5007 21.7742C50.8624 21.129 50.136 20.3118 49.3216 19.3226L48.4302 18.2581L48.2651 18.3548C48.3532 18.7634 48.3972 19.1935 48.3972 19.6452C48.3972 20.2903 48.2981 20.8925 48.1 21.4516C47.9019 22.0108 47.6158 22.5054 47.2416 22.9355C46.8674 23.3441 46.4162 23.6667 45.8879 23.9032C45.3597 24.1398 44.7654 24.2581 44.105 24.2581H40.7043V20.3871Z" fill="#1C3E7F"/>
<path d="M57.2126 20.3871L58.2031 19.4194H58.2361C59.2926 19.4194 60.074 19.3011 60.5802 19.0645C61.1085 18.8064 61.5267 18.3656 61.8349 17.7419L63.1225 15.129L66.3911 16.6774L65.2356 19.0323C65.7638 19.2688 66.3031 19.4731 66.8534 19.6452C67.4036 19.7957 67.9649 19.871 68.5372 19.871C69.4837 19.871 70.166 19.6774 70.5842 19.2903C71.0024 18.8817 71.2115 18.172 71.2115 17.1613V15.129H74.8433V17.1613C74.8433 18.0645 74.9974 18.7204 75.3056 19.129C75.6357 19.5376 76.076 19.7419 76.6262 19.7419H76.9564C77.4186 19.7419 77.7928 19.5806 78.0789 19.2581C78.3651 18.914 78.5082 18.3763 78.5082 17.6452C78.5082 17.3441 78.4752 16.9677 78.4091 16.5161C78.3431 16.043 78.255 15.4731 78.145 14.8065L77.8478 13.1613L81.4466 12.5806L81.7108 14.2258C81.8208 14.8495 81.8979 15.4409 81.9419 16C81.9859 16.5376 82.0079 17.086 82.0079 17.6452C82.0079 20.0538 81.5787 21.828 80.7203 22.9677C79.8838 24.086 78.5742 24.6452 76.7913 24.6452C75.2285 24.6452 74.0509 24.2796 73.2586 23.5484C72.4662 22.8172 71.9269 21.6882 71.6407 20.1613H71.4426C71.2666 21.7097 70.8704 22.8495 70.2541 23.5806C69.6598 24.2903 68.8674 24.6452 67.8769 24.6452C67.2385 24.6452 66.6002 24.5269 65.9619 24.2903C65.3456 24.0753 64.5312 23.6774 63.5187 23.0968L62.8254 22.7097C62.143 23.3548 61.3616 23.7742 60.4812 23.9677C59.6228 24.1613 58.5332 24.2581 57.2126 24.2581L57.2126 20.3871Z" fill="#1C3E7F"/>
</g>
<g id="Group">
<path id="Vector" d="M133.767 31.975C139.079 32.2404 143.261 30.3935 146.309 26.4268C150.888 20.4711 149.413 11.7899 143.471 7.38948C140.278 5.02664 136.68 4.20414 132.677 4.91074C132.52 4.94065 132.359 4.89205 132.247 4.77615C131.917 4.44715 131.592 4.12936 131.273 3.81531C126.028 -1.29545 117.795 -1.22068 112.482 3.73306C112.149 4.04337 111.801 4.34247 111.445 4.63034C111.326 4.72755 111.187 4.7612 111.037 4.73877C106.095 4.04337 102.041 5.25096 98.8694 8.36528C93.5904 13.5433 93.1149 21.903 98.2292 27.4288C101.576 31.0441 105.414 32.0498 110.42 31.96C114.163 31.8927 117.926 31.889 121.7 31.9451L133.767 31.975ZM123.396 28.5392C118.986 28.5205 114.422 28.5242 109.704 28.5541C107.66 28.5653 105.975 28.3223 104.646 27.8176C98.5886 25.5183 96.2299 18.2615 99.5808 12.8106C101.584 9.55044 105.294 7.6325 109.128 7.95776C109.285 7.96898 109.338 8.05123 109.289 8.20078L108.319 11.1955C108.263 11.3637 108.136 11.502 107.971 11.5731C106.634 12.1264 103.055 14.2088 104.605 16.0595C105.043 16.5829 105.822 16.6614 106.354 16.2314C107.061 15.6632 107.593 14.8519 108.446 14.4668C110.427 13.5807 112.213 13.9284 113.8 15.5136C114.545 16.2614 114.733 18.0821 115.758 18.3288C117.222 18.6765 117.889 17.282 117.402 16.1006C116.402 13.6742 114.695 12.1077 112.288 11.4086C111.913 11.3001 111.797 11.0646 111.936 10.7019C113.639 6.26414 116.691 3.8527 121.094 3.46014C123.759 3.2246 126.283 4.05833 128.671 5.96505C128.873 6.12581 128.862 6.26788 128.641 6.39874C127.645 6.97823 126.721 7.64745 125.867 8.40266C125.725 8.52978 125.526 8.57464 125.343 8.52978C123.074 7.98019 121.348 7.7484 119.008 8.59334C118.66 8.72045 118.39 9.00459 118.286 9.3635C118.155 9.80093 118.181 10.186 118.368 10.515C118.686 11.0908 119.173 11.3338 119.824 11.2441C120.225 11.1917 120.629 11.1057 121.037 10.9973C122.951 10.4851 125.189 11.259 126.511 12.5862C127.447 13.5209 128.095 16.1268 129.892 15.136C131.622 14.1864 129.458 11.6067 128.701 10.7917C128.555 10.6309 128.57 10.4888 128.742 10.3617C131.887 8.05123 135.208 7.48669 138.709 8.67185C144.527 10.6384 147.103 17.2371 144.587 22.6806C143.086 25.9296 139.783 28.2662 136.238 28.5092C134.924 28.599 133.591 28.6177 132.232 28.5653L123.396 28.5392Z" fill="#14A5F8"/>
<path id="Vector_2" d="M140.959 18.6534C139.285 18.53 138.282 17.685 137.941 16.1185C137.814 15.5129 138.031 14.8137 138.196 14.2268C138.623 12.6565 136.537 11.7892 135.725 13.0154C134.935 14.2118 134.98 15.9241 135.29 17.3486C135.384 17.7822 135.362 18.1972 135.223 18.5935C134.066 21.9172 130.768 23.5286 127.428 22.392C127.417 22.3883 127.406 22.3845 127.391 22.3771C127.271 22.3135 127.226 22.1677 127.286 22.0481C127.904 20.8779 128.765 18.1374 127.533 17.1205C126.9 16.5971 126.256 16.6494 125.601 17.2887C125.421 17.4607 125.332 17.6701 125.328 17.9131C125.249 21.5134 123.482 23.0201 120.026 22.4369C119.394 22.3322 118.918 22.5565 118.596 23.1098C118.525 23.2332 118.48 23.3641 118.461 23.4949C118.33 24.3773 118.697 24.9343 119.555 25.1661C121.363 25.6521 123.078 25.4577 124.699 24.5829C124.841 24.5081 124.995 24.4857 125.152 24.5193C126.009 24.7063 126.754 25.2259 127.634 25.383C131.951 26.1793 135.186 24.3773 137.439 20.7096C137.541 20.5489 137.675 20.5115 137.84 20.6049C139.094 21.2891 141.296 22.1602 142.273 20.762C142.984 19.76 141.962 18.7244 140.959 18.6534Z" fill="#14A5F8"/>
<path id="Vector_3" d="M110.836 21.039C109.073 22.3064 107.313 22.4073 105.557 21.3381C104.741 20.8408 104.139 19.6145 103.023 19.8875C102.562 19.9996 102.24 20.2763 102.057 20.7212C101.694 21.6035 102.401 22.4672 103.038 22.9868C105.513 25.0244 108.231 25.417 111.185 24.1645C112.128 23.7682 113.637 22.7438 112.952 21.5213C112.495 20.6988 111.596 20.4931 110.836 21.039Z" fill="#14A5F8"/>
</g>
</g>
</svg>
