<svg width="122" height="56" viewBox="0 0 122 56" fill="none" xmlns="http://www.w3.org/2000/svg">
<g clip-path="url(#clip0_739_28427)">
<rect y="5" width="12" height="33" rx="4" fill="#007BCD"/>
<path d="M8.76828 50.9C8.76828 51.3133 8.65828 51.6867 8.43828 52.02C8.22495 52.3533 7.91495 52.6167 7.50828 52.81C7.10161 53.0033 6.60828 53.1 6.02828 53.1C5.44828 53.1 4.94828 53.0033 4.52828 52.81C4.11495 52.61 3.79161 52.33 3.55828 51.97C3.32495 51.61 3.19161 51.1933 3.15828 50.72H4.27828C4.30495 51.1733 4.46161 51.5367 4.74828 51.81C5.04161 52.0833 5.46161 52.22 6.00828 52.22C6.31495 52.22 6.58828 52.1733 6.82828 52.08C7.06828 51.9867 7.25495 51.8533 7.38828 51.68C7.52828 51.5067 7.59828 51.2967 7.59828 51.05C7.59828 50.75 7.49828 50.5167 7.29828 50.35C7.09828 50.1833 6.79161 50.0567 6.37828 49.97L5.33828 49.77C5.08495 49.7167 4.84161 49.6433 4.60828 49.55C4.38161 49.4567 4.17495 49.3367 3.98828 49.19C3.80828 49.0367 3.66495 48.85 3.55828 48.63C3.45828 48.4033 3.40828 48.14 3.40828 47.84C3.40828 47.4333 3.51495 47.07 3.72828 46.75C3.94828 46.43 4.24828 46.18 4.62828 46C5.01495 45.8133 5.45828 45.72 5.95828 45.72C6.45828 45.72 6.90495 45.8167 7.29828 46.01C7.69828 46.2033 8.01828 46.4733 8.25828 46.82C8.50495 47.1667 8.64162 47.58 8.66828 48.06H7.54828C7.52828 47.7733 7.44828 47.52 7.30828 47.3C7.17495 47.08 6.99495 46.91 6.76828 46.79C6.54161 46.6633 6.27495 46.6 5.96828 46.6C5.66161 46.6 5.40161 46.6567 5.18828 46.77C4.97495 46.8767 4.81161 47.02 4.69828 47.2C4.58495 47.3733 4.52828 47.5633 4.52828 47.77C4.52828 47.9967 4.58495 48.18 4.69828 48.32C4.81828 48.4533 4.97495 48.56 5.16828 48.64C5.36161 48.72 5.56828 48.7833 5.78828 48.83L6.84828 49.04C7.46828 49.1667 7.94161 49.3733 8.26828 49.66C8.60161 49.9467 8.76828 50.36 8.76828 50.9Z" fill="white"/>
<rect x="18.3334" y="19" width="12" height="19" rx="4" fill="#52FFB8"/>
<path d="M27.1017 50.9C27.1017 51.3133 26.9917 51.6867 26.7717 52.02C26.5583 52.3533 26.2483 52.6167 25.8417 52.81C25.435 53.0033 24.9417 53.1 24.3617 53.1C23.7817 53.1 23.2817 53.0033 22.8617 52.81C22.4483 52.61 22.125 52.33 21.8917 51.97C21.6583 51.61 21.525 51.1933 21.4917 50.72H22.6117C22.6383 51.1733 22.795 51.5367 23.0817 51.81C23.375 52.0833 23.795 52.22 24.3417 52.22C24.6483 52.22 24.9217 52.1733 25.1617 52.08C25.4017 51.9867 25.5883 51.8533 25.7217 51.68C25.8617 51.5067 25.9317 51.2967 25.9317 51.05C25.9317 50.75 25.8317 50.5167 25.6317 50.35C25.4317 50.1833 25.125 50.0567 24.7117 49.97L23.6717 49.77C23.4183 49.7167 23.175 49.6433 22.9417 49.55C22.715 49.4567 22.5083 49.3367 22.3217 49.19C22.1417 49.0367 21.9983 48.85 21.8917 48.63C21.7917 48.4033 21.7417 48.14 21.7417 47.84C21.7417 47.4333 21.8483 47.07 22.0617 46.75C22.2817 46.43 22.5817 46.18 22.9617 46C23.3483 45.8133 23.7917 45.72 24.2917 45.72C24.7917 45.72 25.2383 45.8167 25.6317 46.01C26.0317 46.2033 26.3517 46.4733 26.5917 46.82C26.8383 47.1667 26.975 47.58 27.0017 48.06H25.8817C25.8617 47.7733 25.7817 47.52 25.6417 47.3C25.5083 47.08 25.3283 46.91 25.1017 46.79C24.875 46.6633 24.6083 46.6 24.3017 46.6C23.995 46.6 23.735 46.6567 23.5217 46.77C23.3083 46.8767 23.145 47.02 23.0317 47.2C22.9183 47.3733 22.8617 47.5633 22.8617 47.77C22.8617 47.9967 22.9183 48.18 23.0317 48.32C23.1517 48.4533 23.3083 48.56 23.5017 48.64C23.695 48.72 23.9017 48.7833 24.1217 48.83L25.1817 49.04C25.8017 49.1667 26.275 49.3733 26.6017 49.66C26.935 49.9467 27.1017 50.36 27.1017 50.9Z" fill="white"/>
<rect x="36.6666" y="10" width="12" height="28" rx="4" fill="#007BCD"/>
<path d="M42.1905 53L39.9205 47.51V53H38.9105V45.82H40.2605L42.6705 51.65L45.0705 45.82H46.4305V53H45.4105V47.5L43.1305 53H42.1905Z" fill="white"/>
<rect x="55" width="12" height="38" rx="4" fill="#52FFB8"/>
<path d="M61.5489 53H60.4489V46.81H58.1089V45.82H63.8889V46.81H61.5489V53Z" fill="white"/>
<rect x="73.3334" y="5" width="12" height="33" rx="4" fill="#007BCD"/>
<path d="M80.8519 53L79.3319 47.37L77.8019 53H76.6719L74.8019 45.82H75.8819L77.2619 51.35L78.7719 45.82H79.9119L81.4019 51.36L82.7819 45.82H83.8619L81.9919 53H80.8519Z" fill="white"/>
<rect x="91.6666" y="16" width="12" height="22" rx="4" fill="#007BCD"/>
<path d="M98.2156 53H97.1156V46.81H94.7756V45.82H100.556V46.81H98.2156V53Z" fill="white"/>
<rect x="110" y="18" width="12" height="20" rx="4" fill="#007BCD"/>
<path d="M115.16 53H114.06V45.82H118.42V46.78H115.16V49.12H117.94V50.08H115.16V53Z" fill="white"/>
</g>
<defs>
<clipPath id="clip0_739_28427">
<rect width="122" height="56" fill="white"/>
</clipPath>
</defs>
</svg>
