<svg width="30" height="138" viewBox="0 0 30 138" fill="none" xmlns="http://www.w3.org/2000/svg">
<path d="M234.829 118.133C260.158 103.292 273.879 82.1185 275.953 54.5895C279.08 13.2475 246.017 -22.3687 205.279 -24.7148C183.39 -25.9649 164.293 -18.8813 147.953 -3.51557C147.317 -2.90195 146.427 -2.63946 145.558 -2.83484C143.042 -3.35733 140.577 -3.83937 138.158 -4.32678C98.4875 -12.0582 60.7058 13.1849 51.1606 52.1205C50.5607 54.5608 49.8578 56.9945 49.0864 59.3991C48.8273 60.2102 48.2895 60.7845 47.5303 61.1338C22.6123 72.869 7.54552 90.7061 2.32408 114.674C-6.3872 154.543 16.6988 194.574 57.0198 204.617C83.4051 211.185 104.163 204.222 127 188.67C144.081 177.037 161.44 165.641 179.032 154.487L234.829 118.133ZM176.562 133.634C156.145 146.886 135.086 160.705 113.399 175.109C103.996 181.343 95.4829 185.316 87.8207 187.006C52.9015 194.71 20.0668 168.342 19.0514 133.044C18.4392 111.936 29.7676 91.8614 48.4502 81.7689C49.2101 81.3451 49.7008 81.5663 49.9284 82.4039L54.5082 99.1615C54.7577 100.108 54.5884 101.132 54.0427 101.958C49.5456 108.554 39.3196 128.992 52.0719 132.848C55.6771 133.94 59.5096 131.947 60.6637 128.355C62.2119 123.591 62.2127 118.238 64.989 113.879C71.4526 103.799 80.7487 100.003 92.8711 102.521C98.5719 103.719 104.942 111.559 110.424 109.595C118.234 106.774 117.093 98.3203 111.274 94.3381C99.3208 86.1597 86.7018 84.0908 73.4738 88.1435C71.4175 88.7752 70.1694 88.0389 69.7122 85.9457C64.1558 60.3067 70.9498 39.9465 90.0887 24.8191C101.683 15.6702 115.854 11.8878 132.647 13.4666C134.067 13.5974 134.444 14.2872 133.82 15.5593C130.975 21.2463 128.73 27.1325 127.073 33.2004C126.801 34.2175 126.02 35.0247 125.038 35.3724C112.901 39.6966 104.233 43.8461 95.9852 54.8233C94.7622 56.4631 94.377 58.5901 94.9784 60.564C95.6963 62.9797 96.9819 64.6782 98.8411 65.6309C102.051 67.3265 105.033 66.9765 107.769 64.5922C109.46 63.139 111.067 61.5192 112.623 59.7846C119.906 51.6343 132.583 48.4362 142.698 50.5666C149.845 52.051 160.716 62.1223 166.016 52.1137C171.13 42.4988 153.338 37.1339 147.382 35.6584C146.222 35.3578 145.861 34.6566 146.272 33.549C153.803 13.3716 167.427 0.72248 187.172 -4.3926C219.978 -12.909 251.826 9.76469 256.673 42.5035C259.567 62.0425 251.389 82.8162 235.756 94.6604C229.961 99.0488 223.864 103.166 217.432 107.034L176.562 133.634Z" fill="#14A5F8" fill-opacity="0.1"/>
</svg>
