<svg width="169" height="109" viewBox="0 0 169 109" fill="none" xmlns="http://www.w3.org/2000/svg">
<path d="M-60.2517 -27.4464C-82.4207 -8.20201 -92.0156 15.1329 -88.9928 42.5739C-84.4669 83.7863 -45.4196 112.717 -4.94503 107.535C16.8008 104.74 34.2706 94.2659 47.5072 76.1583C48.0191 75.4383 48.8459 75.0167 49.736 75.0489C52.3051 75.1 54.8165 75.1207 57.2838 75.1552C97.6999 75.4621 130.197 43.7037 132.422 3.67692C132.563 1.16799 132.807 -1.35351 133.123 -3.85896C133.229 -4.70384 133.652 -5.36719 134.334 -5.85014C156.67 -21.9661 168.201 -42.2689 168.927 -66.7877C170.161 -107.579 140.109 -142.684 98.6291 -145.144C71.4861 -146.749 52.3621 -136.089 32.7728 -116.604C18.1218 -102.029 3.15334 -87.636 -12.0884 -73.438L-60.2517 -27.4464ZM-5.8267 -53.3949C11.8066 -70.1739 29.9653 -87.6287 48.6353 -105.774C56.7323 -113.631 64.3696 -119.101 71.5907 -122.17C104.498 -136.163 141.621 -116.28 149.108 -81.7702C153.59 -61.1345 146.145 -39.3194 129.636 -25.9644C128.967 -25.4082 128.444 -25.5354 128.066 -26.3169L120.484 -41.9469C120.065 -42.8315 120.043 -43.8687 120.428 -44.7811C123.635 -52.0919 129.93 -74.0613 116.686 -75.5074C112.942 -75.9177 109.541 -73.2545 109.067 -69.511C108.421 -64.5441 109.404 -59.2821 107.476 -54.4867C102.976 -43.3902 94.536 -37.9504 82.1575 -38.1964C76.3334 -38.3268 68.6304 -44.8615 63.6027 -41.924C56.4449 -37.7145 59.1202 -29.615 65.5728 -26.7706C78.8253 -20.9287 91.6095 -21.2149 103.867 -27.6303C105.772 -28.6293 107.134 -28.1349 107.969 -26.1615C118.144 -1.98087 115.208 19.2814 99.1763 37.6693C89.4618 48.7936 76.2277 55.1166 59.4302 56.6519C58.0108 56.7843 57.5126 56.1757 57.8922 54.8105C59.6433 48.6974 60.7684 42.4988 61.2815 36.2297C61.3623 35.1798 61.981 34.2429 62.8829 33.7206C74.0174 27.239 81.7758 21.5666 87.8647 9.26039C88.7654 7.4237 88.753 5.26217 87.7989 3.43242C86.6492 1.18989 85.0733 -0.24333 83.0707 -0.838059C79.6033 -1.91459 76.7367 -1.02239 74.4855 1.82428C73.0904 3.56353 71.8089 5.45107 70.5982 7.44224C64.9374 16.7926 53.0649 22.2664 42.7306 22.0318C35.4319 21.8867 22.8951 13.9854 19.5251 24.7977C16.2663 35.1888 34.741 37.1916 40.8669 37.547C42.0626 37.6292 42.5459 38.2522 42.3459 39.4164C38.6521 60.6344 27.5859 75.5724 9.11787 84.2301C-21.5642 98.6322 -57.0368 82.1995 -67.8198 50.9097C-74.2567 32.2357 -70.0368 10.3127 -56.8474 -4.20351C-51.9575 -9.58249 -46.7217 -14.7501 -41.11 -19.7351L-5.8267 -53.3949Z" fill="#14A5F8" fill-opacity="0.1"/>
</svg>
