<svg width="80" height="48" viewBox="0 0 80 48" fill="none" xmlns="http://www.w3.org/2000/svg">
<path d="M57.5822 47.0577C65.4008 47.4484 71.5555 44.7303 76.0406 38.8924C82.7794 30.1274 80.6084 17.3512 71.8641 10.8751C67.164 7.39773 61.8689 6.18724 55.9787 7.22716C55.7473 7.27118 55.5104 7.19965 55.3451 7.02908C54.8602 6.54489 54.3808 6.0772 53.9125 5.61501C46.193 -1.90652 34.0765 -1.79647 26.2578 5.49396C25.7675 5.95065 25.255 6.39082 24.7316 6.8145C24.5553 6.95755 24.3514 7.00707 24.131 6.97406C16.8578 5.95065 10.8905 7.72786 6.22351 12.3112C-1.54558 19.9318 -2.24535 32.2347 5.2813 40.367C10.2072 45.6877 15.855 47.1678 23.2218 47.0357C28.7318 46.9367 34.2694 46.9312 39.8234 47.0137L57.5822 47.0577ZM42.3195 42.0012C35.8287 41.9737 29.112 41.9792 22.1694 42.0232C19.161 42.0397 16.6815 41.682 14.7254 40.9392C5.81026 37.5554 2.33896 26.8756 7.27041 18.8533C10.2183 14.0554 15.6787 11.2328 21.3209 11.7115C21.5523 11.728 21.6294 11.849 21.5578 12.0691L20.1307 16.4764C20.0481 16.724 19.8607 16.9276 19.6183 17.0321C17.6512 17.8464 12.3837 20.9112 14.6648 23.6348C15.3095 24.4051 16.4556 24.5206 17.238 23.8879C18.2794 23.0515 19.0618 21.8576 20.3181 21.2908C23.2329 19.9868 25.8611 20.4985 28.1974 22.8314C29.2938 23.9319 29.5693 26.6115 31.0791 26.9746C33.2335 27.4863 34.2143 25.434 33.498 23.6953C32.0268 20.1244 29.5143 17.8189 25.9713 16.79C25.4203 16.6304 25.2495 16.2838 25.4534 15.7501C27.9604 9.21896 32.4511 5.67003 38.9308 5.0923C42.8539 4.74566 46.5677 5.97266 50.0831 8.77879C50.3806 9.01538 50.3641 9.22447 50.039 9.41704C48.5733 10.2699 47.2123 11.2548 45.9561 12.3662C45.7467 12.5533 45.4547 12.6193 45.1847 12.5533C41.8456 11.7445 39.3055 11.4033 35.8618 12.6468C35.3493 12.8339 34.9526 13.2521 34.7983 13.7803C34.6055 14.4241 34.6441 14.9908 34.9196 15.475C35.3879 16.3223 36.1042 16.68 37.0629 16.5479C37.6525 16.4709 38.2476 16.3443 38.8482 16.1848C41.6638 15.431 44.9588 16.5699 46.9038 18.5232C48.2813 19.8988 49.2345 23.7338 51.8793 22.2757C54.4249 20.8782 51.2402 17.0816 50.1271 15.8821C49.9122 15.6456 49.9343 15.4365 50.1877 15.2494C54.8161 11.849 59.7035 11.0182 64.8553 12.7624C73.4179 15.6566 77.2087 25.368 73.506 33.3792C71.2965 38.1606 66.4367 41.5995 61.2187 41.9572C59.2847 42.0892 57.3232 42.1167 55.3231 42.0397L42.3195 42.0012Z" fill="#D1D1DB"/>
<path d="M68.1666 27.4527C65.7036 27.2711 64.227 26.0276 63.7256 23.7222C63.5382 22.8308 63.8578 21.8019 64.1002 20.9381C64.7284 18.6272 61.6593 17.3506 60.4637 19.1554C59.3011 20.9161 59.3672 23.4361 59.8245 25.5324C59.9623 26.1707 59.9292 26.7814 59.7253 27.3647C58.0227 32.2561 53.1684 34.6276 48.2535 32.9549C48.237 32.9494 48.2205 32.9439 48.1984 32.9329C48.0221 32.8394 47.956 32.6248 48.0442 32.4487C48.9533 30.7265 50.2206 26.6934 48.4078 25.1968C47.4766 24.4265 46.5289 24.5035 45.5647 25.4444C45.3002 25.6975 45.1679 26.0056 45.1624 26.3633C45.0467 31.6619 42.446 33.8793 37.3603 33.0209C36.4291 32.8669 35.7293 33.197 35.2555 34.0113C35.1508 34.1929 35.0847 34.3855 35.0571 34.5781C34.8643 35.8766 35.4043 36.6964 36.666 37.0376C39.3274 37.7528 41.8509 37.4667 44.2368 36.1792C44.4461 36.0692 44.672 36.0362 44.9035 36.0857C46.1653 36.3608 47.2617 37.1256 48.5566 37.3567C54.9096 38.5287 59.6702 35.8766 62.9872 30.4789C63.136 30.2423 63.3344 30.1873 63.5768 30.3249C65.4226 31.3318 68.6625 32.6138 70.1006 30.556C71.1475 29.0814 69.6433 27.5572 68.1666 27.4527Z" fill="#D1D1DB"/>
<path d="M23.8355 30.9632C21.2403 32.8285 18.6506 32.977 16.0664 31.4034C14.8652 30.6716 13.9781 28.8669 12.3361 29.2685C11.6584 29.4336 11.1846 29.8408 10.9146 30.4955C10.3801 31.7941 11.4215 33.0651 12.3582 33.8299C16.0003 36.8286 20.0006 37.4063 24.3479 35.5631C25.7365 34.9799 27.957 33.4722 26.9487 31.673C26.2764 30.4625 24.954 30.1599 23.8355 30.9632Z" fill="#D1D1DB"/>
</svg>
