<svg width="342" height="273" viewBox="0 0 342 273" fill="none" xmlns="http://www.w3.org/2000/svg">
<path d="M170.998 199.369C76.557 199.369 0 232.269 0 272.856H342C342 232.269 265.452 199.369 170.998 199.369Z" fill="#1BA87D"/>
<path d="M91.9146 179.299C91.2804 178.522 90.546 177.833 89.7308 177.249C89.1926 178.85 88.7393 180.483 88.3285 182.111C88.2235 182.535 87.0758 180.427 86.973 180.049C86.4193 178.017 86.8904 177.899 86.9865 175.807C86.9865 175.78 86.9865 175.751 86.9865 175.722C85.8142 175.17 84.6307 174.621 83.5298 173.712C82.2839 172.694 81.1852 171.388 80.071 170.14C77.9988 167.808 75.9199 165.468 73.7115 163.349C69.9445 159.738 65.4049 156.485 61.5374 157.508C61.5374 157.508 61.5374 157.508 61.5218 157.508H61.5017C61.4677 157.488 61.4292 157.478 61.39 157.478C61.3508 157.478 61.3123 157.488 61.2784 157.508C61.1288 157.588 60.9881 157.677 60.8497 157.767C60.7112 157.856 60.5437 157.899 60.3919 157.977C60.3575 157.996 60.3285 158.023 60.3074 158.056C60.2863 158.089 60.2739 158.127 60.2713 158.166C60.2713 158.166 60.2713 158.18 60.2713 158.187C60.2702 158.193 60.2702 158.2 60.2713 158.207C57.2546 160.833 57.3997 166.417 58.2751 171.56C58.7685 174.463 59.4987 177.365 60.2356 180.279C60.6286 180.503 61.0194 180.726 61.399 180.949C63.1853 182.046 64.9181 183.319 66.2869 184.917C66.5415 185.217 66.2757 185.748 65.8649 185.587C64.313 185.022 62.7388 184.491 61.1377 184.042C61.2293 184.527 61.3029 185.009 61.3454 185.489C61.4972 187.188 61.1645 188.702 60.9457 190.241C60.649 192.013 60.7567 193.83 61.2605 195.555C61.428 196.125 61.6334 196.689 61.8612 197.25C62.0845 197.301 62.3078 197.353 62.5177 197.408C64.5497 197.922 66.5839 198.623 68.368 199.742C68.7007 199.95 68.6025 200.539 68.1648 200.519C66.566 200.443 64.9561 200.405 63.3483 200.445L63.6855 201.115C64.2497 202.241 64.7968 203.373 65.3268 204.512C67.294 205.021 69.2545 205.711 70.9806 206.796C71.3133 207.004 71.2173 207.591 70.7796 207.571C69.4242 207.508 68.0576 207.47 66.6911 207.486C67.8075 209.942 68.9084 212.427 70.0673 214.879C71.0744 217.005 72.1015 219.345 73.4458 221.274C74.4037 222.654 75.6631 223.581 76.9002 224.4C78.2511 225.294 79.5618 226.169 80.6471 227.641C81.902 229.344 82.1856 231.629 82.6098 233.531C82.7717 234.275 82.992 235.005 83.2686 235.715C84.794 236.161 86.2547 236.805 87.6139 237.629C87.9444 237.836 87.8506 238.426 87.4129 238.406C86.4952 238.363 85.5752 238.332 84.653 238.321C85.5104 239.557 86.4449 240.737 87.4509 241.856C89.3356 244.017 91.2871 246.719 93.7143 247.096C96.0031 247.449 97.7761 246.06 99.9264 245.946C102.682 245.799 105.967 247.087 108.758 248.992C108.945 249.119 109.131 249.066 109.187 248.909C109.347 248.95 109.495 248.827 109.495 248.601C109.495 245.223 110.261 241.782 111.931 239.58C113.23 237.867 115.376 237.178 116.366 235.085C117.419 232.868 116.276 229.726 115.544 226.962C115.138 225.268 114.592 223.612 113.911 222.009C113.282 220.631 112.423 219.371 111.37 218.282C110.031 216.864 108.305 215.346 107.599 213.352C107.394 212.776 107.244 212.181 107.152 211.577C106.369 212.47 105.612 213.408 104.877 214.341C104.607 214.685 104.1 214.375 104.158 213.986C104.479 211.905 105.274 209.909 106.221 208.035C106.444 207.575 106.699 207.113 106.96 206.657C106.902 205.685 106.699 204.727 106.357 203.815C106.209 203.446 106.053 203.079 105.891 202.716C104.623 204.42 103.447 206.191 102.367 208.02C102.144 208.395 101.599 208.149 101.61 207.758C101.668 205.653 102.211 203.571 102.907 201.595C103.208 200.743 103.553 199.906 103.941 199.09C103.611 198.527 103.271 197.973 102.957 197.429C100.386 193.072 97.6198 188.845 95.1412 184.424C94.1833 182.669 93.1785 180.831 91.9146 179.299Z" fill="#FABE8D"/>
<path d="M64.623 166.171C72.4383 181.556 79.6195 197.243 87.2986 212.688C91.1572 220.445 95.1586 228.134 99.4079 235.688C101.492 239.399 103.651 243.067 105.884 246.692C106.978 248.478 108.101 250.24 109.233 251.995C110.414 253.824 111.843 255.478 112.915 257.381C113.393 258.227 114.811 257.658 114.329 256.805C112.56 253.665 110.258 250.814 108.333 247.759C105.859 243.831 103.496 239.832 101.203 235.797C96.9227 228.265 92.9413 220.568 89.0582 212.82C81.2295 197.153 73.9567 181.217 66.0319 165.597C65.5853 164.726 64.1741 165.298 64.6185 166.173L64.623 166.171Z" fill="#E29A60"/>
<path d="M247.788 211.018C247.605 212.865 247.928 214.726 248.721 216.404C250.24 219.561 253.308 221.973 256.423 223.453C259.12 224.735 262.063 225.416 265.049 225.449C264.9 225.636 264.795 225.852 264.739 226.084C264.683 226.315 264.678 226.556 264.725 226.789C265.109 228.596 265.433 230.505 266.259 232.173C267.125 233.923 268.613 235.562 270.055 236.862C272.787 239.325 276.207 240.895 279.856 241.361C280.496 241.444 281.146 241.5 281.798 241.524C281.723 240.611 281.553 239.707 281.289 238.829C280.619 236.543 279.547 234.424 278.297 232.403C275.968 228.651 281.805 224.887 284.058 228.694C285.797 231.639 287.052 234.756 287.515 238.162C287.624 238.993 287.666 239.831 287.642 240.669C288.223 240.451 288.786 240.185 289.323 239.874C291.38 238.68 293.039 236.938 294.459 235.013C293.059 231.617 290.181 228.966 287.573 226.407C285.199 224.078 287.894 219.793 290.973 221.484C293.812 223.047 296.089 226.472 297.623 229.223C297.692 229.346 297.762 229.475 297.831 229.607C299.771 226.043 301.374 222.305 302.618 218.442C302.27 218.203 301.948 217.996 301.736 217.844C299.727 216.404 297.299 215.481 295.037 214.495C291.717 213.039 294.448 207.664 297.581 209.49C299.796 210.779 302.013 212.056 303.969 213.693C304.571 211.277 305.04 208.831 305.376 206.364C303.663 206.152 301.906 206.072 300.314 205.435C298.13 204.56 298.974 201.028 301.236 201.001C302.71 200.981 304.351 201.505 305.809 201.977C305.973 199.299 305.969 196.615 305.796 193.938C304.676 193.958 303.568 194.177 302.525 194.585C299.845 195.68 298.32 191.18 301.12 190.289C302.541 189.856 304.02 189.647 305.506 189.671C305.316 185.055 305.168 179.149 299.7 179.638C297.719 179.817 295.734 180.085 293.749 180.373C293.78 180.435 293.812 180.502 293.838 180.569C294.609 182.28 294.33 185.482 292.545 186.411C291.391 187.018 289.935 186.658 289.493 185.325C289.078 184.057 289.748 182.945 289.636 181.674C289.618 181.469 289.6 181.25 289.58 181.029C287.832 181.317 286.083 181.61 284.344 181.873C283.982 181.929 283.625 181.996 283.267 182.061C283.334 182.195 283.397 182.329 283.46 182.465C284.444 184.615 285.311 188.047 283.372 189.974C281.512 191.814 278.86 189.78 279.746 187.469C280.139 186.444 280.025 184.513 279.402 182.923C277.359 183.483 275.352 184.172 273.396 184.986C273.619 185.35 273.831 185.718 274.034 186.102C275.3 188.472 275.798 190.885 275.45 193.552C274.981 197.165 269.396 196.008 269.917 192.435C270.14 190.89 269.78 189.309 269.291 187.842C269.202 187.572 269.099 187.293 268.992 187.009C265.643 188.646 262.264 190.521 259.212 192.779C259.715 193.409 260.163 194.082 260.552 194.789C277.375 224.871 258.765 171.148 263.057 202.209C263.524 205.592 257.957 205.982 257.734 202.521C257.618 200.71 257.082 199.002 256.394 197.33C256.213 196.883 255.97 196.325 255.682 195.74C253.109 198.196 250.97 201.028 249.588 204.375C249.365 204.935 249.141 205.509 248.929 206.087C249.555 206.089 250.18 206.145 250.796 206.255C253.39 206.701 257.702 208.419 258.323 211.317C258.897 214.014 256.068 216.107 253.792 214.247C253.158 213.729 252.779 213.019 252.086 212.559C251.243 212.007 250.329 211.573 249.369 211.268C248.858 211.103 248.325 211.019 247.788 211.018ZM298.557 196.528C298.693 199.02 294.79 202.961 292.179 202.084C288.305 200.784 290.587 197.042 293.443 195.177C295.73 193.677 298.385 193.389 298.557 196.528ZM280.831 214.168C287.499 207.706 287.144 224.98 281.055 222.002C278.029 220.523 278.775 216.178 280.831 214.168ZM270.993 200.101C274.045 198.841 274.867 203.526 272.333 204.924C269.059 206.731 268.537 202.378 270.231 200.63C270.446 200.403 270.705 200.222 270.993 200.101ZM262.267 211.087C262.936 210.089 263.765 209.077 265.058 208.99C267.802 208.827 267.838 212.032 267.769 213.903C267.752 214.773 267.587 215.634 267.28 216.448C266.348 218.851 263.535 219.17 261.92 217.243C260.494 215.544 261.143 212.797 262.267 211.094V211.087Z" fill="#52FFB8"/>
<g opacity="0.5">
<path d="M299.244 186.258C286.494 203.82 272.832 220.743 257.103 235.742C256.284 236.524 255.174 235.164 255.987 234.389C271.606 219.493 285.158 202.681 297.819 185.233C298.489 184.317 299.907 185.34 299.242 186.258H299.244Z" fill="#383ABF"/>
</g>
<path d="M248.178 233.125C247.119 230.818 244.254 230.921 242.231 231.678C239.998 232.517 237.989 233.848 236.075 235.268C235.114 235.41 234.144 235.485 233.172 235.492C234.341 232.544 235.564 229.62 236.841 226.72C237.842 226.776 238.846 226.757 239.844 226.665C239.851 226.711 239.868 226.755 239.893 226.794L239.972 226.91C240.01 226.976 240.063 227.032 240.127 227.075C240.19 227.117 240.262 227.145 240.338 227.156C242.928 228.411 246.338 228.974 249.102 228.016C250.516 227.524 253.255 226.245 252.42 224.266C251.436 221.929 248.569 221.944 246.521 222.639C244.254 223.409 242.213 224.677 240.257 226.039C239.206 226.157 238.148 226.194 237.091 226.151C238.282 223.472 239.509 220.814 240.771 218.177C240.93 217.844 241.09 217.507 241.251 217.186C242.177 217.228 243.106 217.206 244.029 217.121C244.035 217.167 244.051 217.211 244.076 217.251L244.154 217.367C244.192 217.433 244.245 217.489 244.309 217.531C244.372 217.573 244.444 217.6 244.52 217.61C247.11 218.867 250.52 219.428 253.284 218.47C254.698 217.981 257.436 216.701 256.603 214.723C255.618 212.385 252.751 212.401 250.703 213.095C248.437 213.865 246.396 215.134 244.44 216.494C243.476 216.602 242.506 216.644 241.537 216.619C242.899 213.845 244.315 211.101 245.737 208.357C246.624 208.435 247.515 208.457 248.405 208.424C248.409 208.472 248.423 208.518 248.448 208.56L248.517 208.68C248.553 208.748 248.603 208.807 248.664 208.852C248.725 208.898 248.795 208.929 248.87 208.944C251.391 210.337 254.767 211.079 257.578 210.268C259.017 209.853 261.821 208.723 261.093 206.695C260.233 204.308 257.369 204.172 255.287 204.757C252.981 205.405 250.873 206.566 248.845 207.823C247.906 207.878 246.965 207.868 246.027 207.794C246.824 206.253 247.624 204.712 248.41 203.167C248.973 202.064 249.533 200.96 250.091 199.856C251.02 199.945 251.953 199.972 252.885 199.936C252.89 199.984 252.904 200.03 252.927 200.072L252.999 200.193C253.034 200.26 253.084 200.319 253.145 200.365C253.206 200.41 253.277 200.442 253.351 200.456C255.872 201.848 259.246 202.589 262.06 201.781C263.498 201.367 266.303 200.235 265.575 198.208C264.713 195.823 261.85 195.685 259.769 196.27C257.462 196.919 255.354 198.078 253.327 199.335C252.342 199.392 251.355 199.379 250.373 199.295C251.462 197.149 252.561 195.004 253.684 192.876C253.778 192.882 253.871 192.856 253.948 192.802C255.884 191.239 257.764 189.577 259.191 187.525C260.428 185.739 261.234 183.001 259.262 181.407C257.592 180.067 255.605 182.336 254.743 183.557C253.057 185.949 252.653 189.381 253.142 192.219C253.123 192.329 253.144 192.443 253.202 192.538C252.085 194.671 250.969 196.814 249.886 198.967C249.148 198.104 248.484 197.18 247.901 196.205C247.796 193.822 247.564 191.429 246.8 189.155C246.11 187.108 244.382 184.819 241.925 185.458C239.847 185.994 240.492 188.948 240.961 190.37C241.876 193.148 244.395 195.506 246.965 196.814C247.02 196.868 247.085 196.908 247.157 196.933C247.229 196.957 247.305 196.966 247.38 196.957H247.519C247.567 196.952 247.614 196.937 247.657 196.915C248.209 197.796 248.827 198.634 249.504 199.423C249.524 199.443 249.546 199.462 249.569 199.478C249.552 199.527 249.548 199.579 249.555 199.63C249.005 200.72 248.452 201.81 247.896 202.899C247.101 204.465 246.298 206.028 245.487 207.589C245.475 207.548 245.453 207.512 245.424 207.481C244.677 206.613 244.005 205.683 243.415 204.701C243.31 202.316 243.08 199.923 242.314 197.65C241.624 195.602 239.896 193.315 237.439 193.95C235.36 194.488 236.008 197.442 236.477 198.862C237.393 201.64 239.909 203.998 242.479 205.306C242.534 205.36 242.6 205.4 242.672 205.425C242.744 205.45 242.821 205.458 242.897 205.449H243.035C243.083 205.444 243.129 205.43 243.171 205.407C243.723 206.289 244.341 207.127 245.02 207.915C245.039 207.935 245.06 207.954 245.083 207.97C245.064 208.018 245.059 208.071 245.069 208.121C245.079 208.172 245.103 208.219 245.139 208.256C243.747 210.936 242.359 213.638 241.021 216.355C240.226 215.525 239.504 214.629 238.862 213.676C238.638 211.304 238.272 208.924 237.388 206.7C236.589 204.69 234.742 202.5 232.324 203.263C230.276 203.911 231.078 206.836 231.623 208.22C232.683 210.945 235.323 213.175 237.96 214.334C238.016 214.385 238.083 214.423 238.157 214.444C238.23 214.466 238.307 214.47 238.382 214.457L238.52 214.439C238.568 214.433 238.614 214.416 238.654 214.39C239.249 215.237 239.906 216.038 240.621 216.786C240.643 216.807 240.668 216.826 240.695 216.84C240.689 216.894 240.697 216.949 240.72 216.998C240.568 217.306 240.416 217.615 240.273 217.923C239.03 220.499 237.828 223.096 236.667 225.713C235.941 224.936 235.278 224.102 234.684 223.219C234.461 220.846 234.092 218.47 233.21 216.243C232.411 214.234 230.564 212.043 228.146 212.807C226.098 213.454 226.902 216.38 227.445 217.764C228.508 220.488 231.145 222.721 233.782 223.88C233.839 223.931 233.906 223.968 233.979 223.989C234.052 224.009 234.129 224.014 234.204 224.001L234.342 223.983C234.39 223.977 234.435 223.961 234.476 223.936C235.062 224.769 235.71 225.557 236.412 226.294C235.107 229.256 233.856 232.243 232.661 235.255C231.839 234.446 231.087 233.568 230.414 232.631C230.111 230.269 229.68 227.904 228.726 225.709C227.869 223.726 225.953 221.591 223.559 222.431C221.534 223.141 222.425 226.031 223.012 227.406C224.158 230.099 226.864 232.247 229.535 233.323C229.593 233.373 229.662 233.408 229.736 233.426C229.809 233.445 229.887 233.446 229.961 233.431L230.1 233.41C230.146 233.403 230.19 233.385 230.229 233.359C230.849 234.184 231.53 234.962 232.266 235.686C232.289 235.709 232.316 235.727 232.346 235.739C232.339 235.811 232.355 235.883 232.393 235.945C230.694 240.277 229.122 244.656 227.677 249.084C227.563 249.441 228.123 249.564 228.246 249.209C229.684 244.786 231.256 240.413 232.962 236.09C233.877 236.101 234.792 236.05 235.7 235.938C235.708 235.984 235.725 236.029 235.751 236.068L235.832 236.182C235.874 236.244 235.929 236.297 235.994 236.336C236.059 236.375 236.131 236.398 236.207 236.405C238.835 237.582 242.26 238.037 244.993 236.994C246.373 236.438 249.071 235.074 248.178 233.125Z" fill="#FF738E"/>
<path d="M115.917 224.217C115.888 224.15 115.854 224.083 115.819 224.016C114.468 221.524 112.094 223.261 111.058 225.046C109.941 226.975 109.443 229.163 108.905 231.298C108.515 232.861 108.184 234.509 107.729 236.072C106.803 233.056 106.123 229.971 105.697 226.845C108.483 225.197 111.152 223.438 113.15 220.816C114.267 219.354 115.238 217.087 114.586 215.247C114.562 215.177 114.535 215.107 114.503 215.04C113.387 212.436 110.864 213.952 109.671 215.636C108.381 217.458 107.695 219.59 106.965 221.678C106.496 223.018 106.072 224.456 105.56 225.823C105.31 223.878 105.134 221.926 105.011 219.986C104.929 218.673 104.875 217.356 104.848 216.036C107.751 214.33 110.553 212.537 112.63 209.817C113.746 208.354 114.718 206.088 114.068 204.248C114.041 204.179 114.014 204.109 113.985 204.04C112.869 201.436 110.343 202.953 109.153 204.636C107.86 206.458 107.175 208.593 106.445 210.679C105.915 212.197 105.435 213.827 104.839 215.348C104.794 211.977 104.949 208.607 105.304 205.255C105.913 204.024 106.601 202.799 107.208 201.615C108.211 199.646 109.28 197.674 109.705 195.481C110.098 193.456 109.45 190.587 106.802 191.578C106.73 191.605 106.661 191.632 106.594 191.663C104.808 192.464 103.85 194.735 103.564 196.551C103.026 199.972 103.689 203.272 104.477 206.599C104.22 209.554 104.111 212.52 104.151 215.486C103.832 213.972 103.622 212.387 103.352 210.895C102.957 208.72 102.613 206.505 101.624 204.505C100.708 202.656 98.4551 200.762 96.9344 203.165C96.8942 203.227 96.8585 203.292 96.8228 203.357C95.8916 205.074 96.499 207.465 97.3721 209.082C99.0133 212.121 101.53 214.343 104.16 216.5C104.192 217.84 104.249 219.18 104.332 220.519C104.451 222.388 104.625 224.268 104.868 226.142C104.198 224.653 103.638 223.047 103.035 221.558C102.202 219.51 101.411 217.413 100.034 215.656C98.7587 214.033 96.1685 212.644 95.1771 215.299C95.1503 215.37 95.128 215.439 95.1057 215.522C94.5474 217.393 95.6304 219.608 96.8161 221.013C99.049 223.65 101.952 225.309 104.969 226.879C104.984 226.99 104.998 227.102 105.013 227.214C105.013 227.238 104.993 227.265 104.982 227.29L105.022 227.267C105.447 230.252 106.1 233.199 106.978 236.083C105.994 234.848 105.078 233.495 104.147 232.256C102.821 230.487 101.523 228.661 99.7435 227.312C98.0978 226.068 95.2374 225.383 94.956 228.205C94.956 228.281 94.9426 228.355 94.9404 228.428C94.8756 230.378 96.4878 232.245 97.9929 233.301C100.777 235.255 103.964 236.121 107.226 236.874C107.746 238.47 108.355 240.036 109.053 241.563C109.245 241.983 109.886 241.663 109.694 241.243C109.02 239.765 108.43 238.249 107.927 236.704C110.62 234.775 113.193 232.756 114.986 229.909C115.966 228.341 116.739 226.003 115.917 224.217Z" fill="#77A6F1"/>
<path d="M69.4823 212.9C69.1041 212.483 68.6411 212.151 68.1243 211.927C67.6075 211.704 67.0488 211.593 66.4857 211.603C65.3804 211.627 64.3845 212.201 63.5539 212.916C62.5267 211.256 61.9908 209.318 60.8743 207.695C60.3448 206.883 59.614 206.222 58.7531 205.776C57.8922 205.33 56.9306 205.115 55.9618 205.152C52.9719 205.232 50.1048 207.559 49.4282 210.457C47.7557 208.735 46.1769 206.799 43.6939 206.364C41.8941 206.047 39.7996 206.744 38.6809 208.179C37.4037 209.383 36.908 211.431 37.3099 213.154C37.9016 215.693 40.0587 217.12 41.9991 218.656C39.2079 219.597 37.3099 222.598 37.3613 225.543C37.3992 227.553 38.5336 229.201 40.2194 230.232C41.9567 231.286 44.0155 231.596 45.842 232.465C45.2039 233.314 44.8464 234.342 44.8193 235.404C44.8193 236.542 45.4669 237.585 46.3243 238.307C48.0973 239.776 50.7367 240.093 52.9473 239.515C53.2622 240.517 53.5122 241.542 53.97 242.491C54.5631 243.732 55.5925 244.712 56.8617 245.242C58.8423 246.095 61.0797 245.867 63.1251 245.392C72.5035 243.203 76.6814 238.47 78.0859 229.002C78.4008 226.887 78.3673 224.692 77.4027 222.75C76.792 221.533 75.7534 220.585 74.4864 220.088C73.4526 219.675 72.345 219.527 71.2576 219.304C71.6305 217.044 71.0298 214.588 69.4823 212.9Z" fill="#FF738E"/>
<path d="M69.5206 235.829L69.2058 235.548C69.601 234.793 69.7707 233.869 69.9628 233.049C70.2166 231.993 70.3993 230.921 70.5098 229.841C70.6907 228.054 70.7555 226.06 69.869 224.437C69.7328 224.184 69.4 224.392 69.4469 224.635C69.8082 226.434 69.9231 228.274 69.7886 230.104C69.7127 231.051 69.5787 231.998 69.4112 232.933C69.2705 233.71 69.0026 234.496 68.8932 235.269L63.4559 230.405C63.9628 229.47 64.1637 228.291 64.4027 227.261C64.6964 225.999 64.9105 224.719 65.0435 223.43C65.2668 221.261 65.3204 218.868 64.3 216.878C64.1704 216.626 63.8244 216.831 63.8779 217.075C64.361 219.246 64.5116 221.479 64.3245 223.695C64.2277 224.853 64.0704 226.004 63.8534 227.145C63.668 228.146 63.3085 229.155 63.1835 230.155C62.3632 229.423 61.5445 228.691 60.7272 227.958C59.3874 226.757 58.0477 225.555 56.7079 224.354C57.1366 223.584 57.3086 222.624 57.5073 221.775C57.7604 220.719 57.9439 219.647 58.0566 218.566C58.2352 216.78 58.3 214.786 57.4158 213.163C57.2773 212.91 56.9468 213.118 56.9937 213.359C57.3543 215.159 57.4685 216.999 57.3331 218.83C57.2572 219.777 57.1232 220.723 56.9558 221.659C56.8084 222.472 56.5226 223.287 56.4243 224.115C54.5829 222.458 52.7444 220.799 50.9089 219.136C51.5073 218.102 51.6905 216.646 51.8222 215.483C51.9539 214.319 52.0343 212.939 51.36 211.91C51.3314 211.867 51.2897 211.835 51.2413 211.818C51.1928 211.801 51.1402 211.801 51.0913 211.816C51.0424 211.832 51 211.863 50.9703 211.905C50.9406 211.947 50.9253 211.997 50.9268 212.048C51.0384 213.183 51.1813 214.281 51.1233 215.433C51.0856 216.089 51.0111 216.742 50.9 217.39C50.8218 217.883 50.6767 218.37 50.612 218.868C48.0679 216.56 45.5312 214.244 43.002 211.919C42.7988 211.731 42.513 212.048 42.7162 212.238C45.1844 214.544 47.6637 216.839 50.1542 219.122C49.261 219.417 48.4191 219.875 47.4925 220.098C46.2795 220.402 45.0223 220.489 43.7791 220.355C43.5201 220.324 43.4285 220.708 43.6942 220.757C44.9252 221.003 46.1903 221.028 47.43 220.831C48.475 220.654 49.7701 220.268 50.6075 219.54C52.376 221.161 54.1482 222.778 55.9241 224.392C54.4236 224.982 53.0213 225.68 51.4203 226.049C49.5525 226.485 47.6215 226.582 45.7195 226.335C45.4605 226.301 45.3712 226.692 45.6369 226.739C47.49 227.09 49.3906 227.109 51.2506 226.797C52.9878 226.487 54.9283 225.886 56.3484 224.787C57.6167 225.937 58.8821 227.085 60.1444 228.233L62.6543 230.504C61.8348 230.859 61.0332 231.256 60.198 231.596C59.169 232.009 58.1078 232.337 57.025 232.576C54.7677 233.094 52.4349 233.197 50.1408 232.88C49.8795 232.844 49.7902 233.239 50.0559 233.284C52.3014 233.699 54.6028 233.713 56.8531 233.324C58.9744 232.938 61.3078 232.194 63.054 230.868L68.3796 235.68C66.8746 236.267 65.4611 236.97 63.8623 237.341C61.9944 237.776 60.0636 237.873 58.1616 237.627C57.9003 237.591 57.811 237.984 58.0767 238.031C59.9307 238.381 61.832 238.4 63.6926 238.087C65.4321 237.776 67.3792 237.174 68.8016 236.062L68.8999 236.149C71.8831 238.846 74.777 241.715 77.9434 244.187C77.9887 244.228 78.0484 244.25 78.1096 244.247C78.1707 244.244 78.2282 244.217 78.2694 244.172C78.3105 244.126 78.332 244.067 78.3291 244.005C78.3261 243.944 78.299 243.887 78.2537 243.846C75.5429 240.979 72.4525 238.451 69.5206 235.829Z" fill="#E22B57"/>
<g style="mix-blend-mode:multiply" opacity="0.5">
<path d="M173.074 221.235C198.322 221.235 218.789 218.563 218.789 215.266C218.789 211.97 198.322 209.298 173.074 209.298C147.826 209.298 127.358 211.97 127.358 215.266C127.358 218.563 147.826 221.235 173.074 221.235Z" fill="#53CCA0"/>
</g>
<path d="M100.817 132.035C101.878 141.987 101.893 152.257 106.158 161.51C108.358 166.286 112.136 170.466 117.292 171.983C122.204 173.425 127.633 171.983 131.835 169.287C135.294 167.072 138.311 163.893 140.108 160.186C141.057 158.232 140.658 155.894 138.679 154.735C136.915 153.701 134.178 154.213 133.229 156.164C132.768 157.109 132.228 158.014 131.616 158.868C131.076 159.63 132.175 158.178 131.59 158.909C131.422 159.118 131.248 159.322 131.072 159.523C130.658 159.996 130.214 160.443 129.759 160.862C129.368 161.235 128.952 161.581 128.535 161.921C129.381 161.238 128.655 161.818 128.479 161.943C128.256 162.102 128.032 162.249 127.809 162.39C127.363 162.684 126.9 162.95 126.431 163.205C126.208 163.33 125.963 163.448 125.724 163.564C125.565 163.64 125.407 163.714 125.246 163.788C125.795 163.56 125.869 163.526 125.469 163.687C124.509 164.062 123.514 164.339 122.499 164.515C121.606 164.674 123.459 164.411 122.555 164.502C122.305 164.529 122.055 164.538 121.802 164.549C121.22 164.569 120.637 164.545 120.059 164.478C121.374 164.616 119.739 164.375 119.402 164.283C119.159 164.219 118.92 164.136 118.683 164.06C117.828 163.765 119.518 164.449 118.683 164.071C118.207 163.846 117.748 163.587 117.31 163.296C117.131 163.182 116.399 162.626 117.236 163.274C116.939 163.051 116.662 162.783 116.388 162.521C115.986 162.129 115.607 161.714 115.253 161.278C114.655 160.559 115.778 161.992 115.22 161.238C115.059 161.014 114.909 160.791 114.758 160.568C114.101 159.582 113.521 158.548 113.025 157.473C112.906 157.22 112.801 156.966 112.683 156.709C113.119 157.709 112.737 156.814 112.661 156.622C112.453 156.093 112.268 155.555 112.089 155.014C111.689 153.822 111.368 152.603 111.082 151.379C110.81 150.225 110.591 149.059 110.392 147.891C110.292 147.304 110.202 146.714 110.117 146.123C110.088 145.924 109.954 144.901 110.097 146C110.046 145.607 109.999 145.212 109.952 144.816C109.666 142.409 109.468 139.993 109.269 137.577C109.117 135.719 108.967 133.864 108.771 132.01C108.548 129.851 107.134 128.027 104.787 128.027C102.791 128.027 100.574 129.847 100.804 132.01L100.817 132.035Z" fill="#1C3E7F"/>
<path d="M163.652 151.35H155.481V201.368H163.652V151.35Z" fill="#212C42"/>
<mask id="mask0_189_4065" style="mask-type:luminance" maskUnits="userSpaceOnUse" x="132" y="198" width="37" height="15">
<path d="M165.39 211.921C165.39 211.921 123.252 215.973 134.988 206.314C146.725 196.654 157.376 200.955 160.506 201.752C160.506 201.752 162.654 195.966 164.919 198.898C164.919 198.898 171.897 211.434 165.39 211.921Z" fill="white"/>
</mask>
<g mask="url(#mask0_189_4065)">
<path d="M165.391 211.921C165.391 211.921 123.253 215.973 134.989 206.314C146.726 196.654 157.377 200.954 160.507 201.752C160.507 201.752 162.432 195.68 164.699 198.625C164.699 198.608 171.898 211.434 165.391 211.921Z" fill="#035389"/>
<path d="M151.294 214.783C151.294 214.783 145.489 202.998 131.906 202.428C118.323 201.859 115.382 216.981 117.746 217.166C120.111 217.351 152.933 227.781 152.933 227.781L151.294 214.783Z" fill="white"/>
<path d="M150.052 203.914C149.254 202.828 148.213 201.944 147.011 201.333C145.919 200.743 144.584 199.808 143.342 199.656C143.068 199.622 142.927 199.973 143.041 200.181C143.574 201.139 144.885 201.52 145.832 201.934C147.185 202.525 148.592 203.139 149.532 204.318C149.766 204.611 150.271 204.22 150.052 203.914Z" fill="white"/>
<path d="M147.885 204.92C146.737 204.215 145.594 203.505 144.419 202.848C143.332 202.236 142.186 201.464 140.914 201.363C140.563 201.336 140.436 201.787 140.643 202.015C141.474 202.908 142.756 203.317 143.854 203.815C145.087 204.373 146.311 204.931 147.501 205.577C147.588 205.628 147.691 205.642 147.789 205.616C147.887 205.591 147.97 205.528 148.021 205.44C148.072 205.353 148.086 205.25 148.061 205.152C148.035 205.055 147.972 204.971 147.885 204.92Z" fill="white"/>
</g>
<path d="M164.696 200.739C164.696 200.739 163.231 206.509 156.275 201.362C154.634 200.154 155.829 196.338 159.569 196.766C163.309 197.195 164.696 200.739 164.696 200.739Z" fill="white"/>
<path d="M168.951 197.353C168.951 197.776 168.868 198.195 168.706 198.586C168.544 198.977 168.307 199.332 168.008 199.632C167.708 199.931 167.353 200.168 166.962 200.33C166.571 200.492 166.152 200.575 165.729 200.575H149.051C148.197 200.575 147.377 200.236 146.773 199.632C146.169 199.027 145.829 198.208 145.829 197.353C145.829 196.93 145.912 196.511 146.074 196.12C146.236 195.729 146.474 195.374 146.773 195.075C147.072 194.776 147.427 194.538 147.818 194.376C148.209 194.214 148.628 194.131 149.051 194.131H165.729C166.152 194.131 166.571 194.214 166.962 194.376C167.353 194.538 167.708 194.776 168.008 195.075C168.307 195.374 168.544 195.729 168.706 196.12C168.868 196.511 168.951 196.93 168.951 197.353Z" fill="white"/>
<path d="M190.662 151.35H182.491V201.368H190.662V151.35Z" fill="#212C42"/>
<mask id="mask1_189_4065" style="mask-type:luminance" maskUnits="userSpaceOnUse" x="177" y="198" width="37" height="15">
<path d="M180.757 211.921C180.757 211.921 222.895 215.973 211.159 206.314C199.422 196.654 188.771 200.955 185.638 201.752C185.638 201.752 183.492 195.966 181.228 198.898C181.228 198.898 174.248 211.434 180.757 211.921Z" fill="white"/>
</mask>
<g mask="url(#mask1_189_4065)">
<path d="M180.758 211.922C180.758 211.922 222.896 215.974 211.159 206.315C199.423 196.655 188.772 200.956 185.639 201.753C185.639 201.753 183.714 195.681 181.45 198.627C181.45 198.609 174.249 211.435 180.758 211.922Z" fill="#035389"/>
<path d="M194.85 214.785C194.85 214.785 200.656 202.999 214.241 202.43C227.827 201.86 230.765 216.982 228.401 217.167C226.036 217.353 193.214 227.783 193.214 227.783L194.85 214.785Z" fill="white"/>
<path d="M196.094 203.915C196.892 202.828 197.935 201.944 199.137 201.333C200.227 200.744 201.564 199.808 202.804 199.656C203.081 199.623 203.221 199.974 203.105 200.181C202.574 201.139 201.261 201.521 200.314 201.934C198.963 202.526 197.554 203.14 196.616 204.319C196.382 204.611 195.877 204.221 196.094 203.915Z" fill="white"/>
<path d="M198.262 204.922C199.409 204.216 200.553 203.506 201.727 202.849C202.817 202.238 203.96 201.465 205.233 201.364C205.586 201.338 205.711 201.789 205.503 202.016C204.672 202.91 203.391 203.318 202.294 203.816C201.062 204.374 199.838 204.933 198.648 205.578C198.561 205.621 198.462 205.629 198.369 205.602C198.277 205.574 198.198 205.513 198.149 205.43C198.1 205.346 198.085 205.248 198.105 205.153C198.126 205.059 198.182 204.976 198.262 204.922Z" fill="white"/>
</g>
<path d="M181.447 200.739C181.447 200.739 182.912 206.509 189.868 201.362C191.507 200.154 190.303 196.338 186.574 196.766C182.845 197.195 181.447 200.739 181.447 200.739Z" fill="white"/>
<path d="M177.194 197.353C177.194 197.777 177.277 198.196 177.439 198.587C177.601 198.978 177.838 199.333 178.138 199.632C178.437 199.932 178.792 200.169 179.183 200.331C179.574 200.493 179.993 200.576 180.417 200.575H197.092C197.947 200.575 198.767 200.236 199.371 199.632C199.976 199.028 200.316 198.208 200.317 197.353C200.316 196.499 199.976 195.679 199.371 195.075C198.767 194.471 197.947 194.131 197.092 194.131H180.417C179.993 194.131 179.574 194.214 179.183 194.376C178.792 194.538 178.437 194.775 178.138 195.074C177.838 195.373 177.601 195.729 177.439 196.12C177.277 196.511 177.194 196.93 177.194 197.353Z" fill="white"/>
<path d="M245.338 132.035C244.277 141.987 244.261 152.257 239.996 161.51C237.797 166.286 234.016 170.466 228.863 171.983C223.95 173.425 218.522 171.983 214.32 169.287C210.861 167.072 207.844 163.893 206.058 160.186C205.109 158.232 205.508 155.894 207.487 154.735C209.251 153.701 211.988 154.213 212.937 156.164C213.398 157.109 213.937 158.014 214.55 158.868C215.09 159.63 213.989 158.178 214.574 158.909C214.742 159.119 214.918 159.322 215.094 159.523C215.508 159.996 215.952 160.443 216.407 160.862C216.798 161.235 217.214 161.582 217.631 161.921C216.785 161.238 217.511 161.818 217.687 161.943C217.91 162.102 218.134 162.249 218.357 162.39C218.803 162.685 219.266 162.95 219.732 163.205C219.967 163.33 220.203 163.448 220.442 163.564C220.601 163.64 220.759 163.714 220.92 163.788C220.369 163.564 220.295 163.526 220.697 163.687C221.657 164.062 222.652 164.34 223.667 164.516C224.56 164.674 222.707 164.411 223.611 164.502C223.861 164.529 224.111 164.538 224.361 164.549C224.944 164.569 225.528 164.545 226.107 164.478C224.792 164.616 226.427 164.375 226.764 164.283C227.007 164.219 227.246 164.136 227.483 164.06C228.338 163.765 226.648 164.449 227.483 164.071C227.959 163.847 228.418 163.588 228.856 163.296C229.035 163.183 229.767 162.627 228.93 163.274C229.227 163.051 229.504 162.783 229.778 162.522C230.18 162.129 230.559 161.714 230.913 161.278C231.511 160.559 230.388 161.992 230.946 161.238C231.107 161.014 231.257 160.791 231.408 160.568C232.065 159.583 232.645 158.548 233.141 157.473C233.26 157.221 233.364 156.966 233.483 156.709C233.047 157.71 233.429 156.814 233.505 156.622C233.713 156.093 233.898 155.555 234.077 155.014C234.477 153.822 234.798 152.603 235.084 151.379C235.354 150.225 235.575 149.059 235.774 147.891C235.874 147.304 235.964 146.714 236.049 146.123C236.078 145.924 236.211 144.901 236.069 146C236.12 145.607 236.167 145.212 236.214 144.816C236.502 142.409 236.698 139.993 236.897 137.577C237.049 135.719 237.196 133.864 237.395 132.01C237.618 129.851 239.032 128.027 241.379 128.027C243.375 128.027 245.592 129.847 245.362 132.01L245.338 132.035Z" fill="#1C3E7F"/>
<path d="M257.676 113.271C254.46 110.401 250.577 108.72 246.614 108.818C246.177 108.76 245.739 108.713 245.299 108.678C245.616 108.271 245.928 107.86 246.236 107.443C250.373 104.809 253.389 100.738 254.706 96.0143C256.022 91.2903 255.545 86.2465 253.367 81.8528C251.189 77.4591 247.463 74.0259 242.906 72.2135C238.35 70.4011 233.284 70.3374 228.683 72.0348C229.501 68.4091 229.286 64.6267 228.062 61.1172C226.838 57.6077 224.654 54.5118 221.759 52.181C218.864 49.8503 215.373 48.3781 211.683 47.9318C207.993 47.4854 204.252 48.0828 200.885 49.6561C199.867 46.9382 198.114 44.5567 195.822 42.7774C193.529 40.9982 190.787 39.8912 187.902 39.5801C185.016 39.269 182.101 39.7661 179.482 41.0158C176.863 42.2655 174.642 44.2187 173.069 46.6572C171.495 44.2199 169.275 42.2679 166.656 41.019C164.038 39.7701 161.123 39.2735 158.239 39.5845C155.354 39.8956 152.613 41.002 150.321 42.7805C148.028 44.5589 146.276 46.9393 145.257 49.6561C141.89 48.0853 138.15 47.4898 134.462 47.9373C130.774 48.3848 127.284 49.8572 124.391 52.1876C121.497 54.518 119.314 57.6129 118.091 61.1211C116.867 64.6293 116.651 68.4102 117.468 72.0348C112.86 70.3411 107.787 70.4134 103.228 72.2379C98.6697 74.0625 94.948 77.51 92.7806 81.9158C90.6132 86.3217 90.1535 91.374 91.4902 96.0986C92.827 100.823 95.8655 104.886 100.02 107.503C100.31 107.895 100.604 108.281 100.902 108.662C100.306 108.709 99.7118 108.778 99.1268 108.867C95.5831 108.899 92.0795 110.348 89.036 112.86C84.0153 116.273 80.4458 121.434 79.0235 127.336C77.6012 133.238 78.428 139.459 81.3427 144.784C84.2575 150.11 89.0512 154.159 94.7892 156.142C100.527 158.126 106.798 157.901 112.379 155.512C112.825 156.481 113.348 157.413 113.942 158.298C114.126 159.074 114.414 159.82 114.798 160.518C116.137 162.907 118.285 164.26 120.46 165.096C125.208 167.296 130.596 167.687 135.612 166.195C140.628 164.704 144.927 161.433 147.702 156.997C149.95 159.799 153.092 161.742 156.602 162.502C160.113 163.261 163.778 162.79 166.982 161.168C169.259 160.203 171.266 158.698 172.83 156.782C172.922 156.675 173.009 156.559 173.096 156.454C173.415 156.863 173.75 157.256 174.105 157.633C175.465 159.09 177.105 160.256 178.928 161.061C182.143 162.749 185.846 163.267 189.401 162.526C192.956 161.785 196.143 159.83 198.415 156.997C200.695 161.014 204.302 164.112 208.616 165.76C212.931 167.409 217.685 167.503 222.062 166.029C224.954 165.582 227.908 164.602 230.175 162.215C231.212 161.091 231.927 159.708 232.242 158.211C232.815 157.352 233.32 156.45 233.752 155.512C239.272 157.856 245.463 158.087 251.143 156.161C256.823 154.234 261.595 150.285 264.55 145.066C267.505 139.847 268.436 133.722 267.166 127.861C265.896 121.999 262.513 116.81 257.662 113.282L257.676 113.271Z" fill="#14A5F8"/>
<path d="M193.69 109.196C193.69 118.988 184.461 126.926 173.073 126.926C161.685 126.926 152.454 118.988 152.454 109.196H193.69Z" fill="#A1101F"/>
<mask id="mask2_189_4065" style="mask-type:luminance" maskUnits="userSpaceOnUse" x="152" y="109" width="42" height="18">
<path d="M193.691 109.195C193.691 118.987 184.462 126.925 173.074 126.925C161.686 126.925 152.455 118.987 152.455 109.195H193.691Z" fill="white"/>
</mask>
<g mask="url(#mask2_189_4065)">
<path d="M190.805 138.059C190.805 141.892 189.668 145.64 187.539 148.827C185.409 152.014 182.382 154.499 178.84 155.966C175.298 157.433 171.401 157.816 167.642 157.069C163.882 156.321 160.428 154.475 157.718 151.764C155.007 149.053 153.161 145.6 152.413 141.84C151.665 138.08 152.049 134.183 153.516 130.642C154.983 127.1 157.468 124.073 160.655 121.943C163.842 119.814 167.589 118.677 171.423 118.677C173.968 118.677 176.489 119.178 178.84 120.152C181.192 121.126 183.328 122.554 185.128 124.354C186.928 126.153 188.356 128.29 189.33 130.642C190.304 132.993 190.805 135.514 190.805 138.059Z" fill="#FE4550"/>
<path d="M194.103 106.103C194.103 111.462 185.058 115.792 173.897 115.792C162.737 115.792 153.693 111.453 153.693 106.103C153.693 100.753 162.739 96.4121 173.897 96.4121C185.055 96.4121 194.103 100.749 194.103 106.103Z" fill="white"/>
</g>
<g style="mix-blend-mode:multiply" opacity="0.3">
<path d="M109.875 112.979C109.875 115.902 110.741 118.759 112.365 121.189C113.988 123.619 116.296 125.514 118.997 126.632C121.697 127.75 124.668 128.043 127.535 127.472C130.402 126.902 133.034 125.494 135.101 123.427C137.167 121.359 138.574 118.726 139.143 115.859C139.712 112.992 139.419 110.021 138.299 107.321C137.179 104.621 135.284 102.314 132.853 100.692C130.422 99.0689 127.564 98.2038 124.642 98.2056C122.702 98.2059 120.781 98.5882 118.989 99.3309C117.198 100.073 115.57 101.162 114.198 102.534C112.827 103.905 111.739 105.534 110.998 107.326C110.256 109.118 109.874 111.039 109.875 112.979Z" fill="#79CDFF"/>
</g>
<g style="mix-blend-mode:multiply" opacity="0.3">
<path d="M206.71 112.979C206.709 115.901 207.576 118.759 209.199 121.189C210.823 123.619 213.131 125.513 215.831 126.632C218.531 127.75 221.503 128.043 224.369 127.472C227.236 126.902 229.868 125.494 231.935 123.427C234.001 121.36 235.408 118.727 235.978 115.86C236.547 112.994 236.254 110.022 235.134 107.323C234.015 104.623 232.12 102.315 229.69 100.693C227.259 99.0697 224.401 98.2042 221.479 98.2055C219.539 98.2055 217.618 98.5877 215.826 99.3301C214.034 100.073 212.405 101.161 211.034 102.533C209.663 103.905 208.575 105.533 207.833 107.326C207.091 109.118 206.709 111.039 206.71 112.979Z" fill="#79CDFF"/>
</g>
<path d="M195.897 102.872C199.617 101.086 201.647 97.6852 206.191 97.645C211.117 97.6003 214.812 101.888 215.096 106.63C215.181 108.104 217.206 108.064 217.351 106.63C218.021 100.014 214.978 94.2956 208.471 92.2703C202.795 90.504 192.862 94.5725 193.747 101.649C193.887 102.743 194.845 103.377 195.897 102.872Z" fill="#212C42"/>
<path d="M150.248 102.872C146.528 101.086 144.501 97.6852 139.954 97.645C135.042 97.6003 131.333 101.888 131.051 106.63C130.964 108.104 128.939 108.064 128.794 106.63C128.124 100.014 131.17 94.2956 137.674 92.2703C143.351 90.504 153.283 94.5725 152.401 101.649C152.26 102.743 151.3 103.377 150.248 102.872Z" fill="#212C42"/>
<path d="M135.742 77.1777C136.438 76.5262 137.203 75.9533 138.024 75.4695C138.873 74.985 139.811 74.7706 140.704 74.3887C141.876 73.8886 141.298 71.8432 140.05 71.9727C137.738 72.2138 135.285 73.931 134.184 75.9675C134.072 76.1763 134.038 76.4179 134.088 76.6494C134.137 76.881 134.267 77.0875 134.454 77.2325C134.641 77.3774 134.874 77.4515 135.11 77.4414C135.347 77.4314 135.572 77.338 135.747 77.1777H135.742Z" fill="#212C42"/>
<path d="M210.402 77.1778C209.708 76.5258 208.943 75.9529 208.122 75.4696C207.274 74.985 206.336 74.7707 205.443 74.3888C204.273 73.8886 204.849 71.8433 206.097 71.9728C208.408 72.2139 210.865 73.9311 211.965 75.9675C212.512 76.9813 211.237 77.9392 210.402 77.1778Z" fill="#212C42"/>
<g opacity="0.3">
<path d="M186.73 65.7651C186.712 67.0736 186.406 68.2058 185.519 69.0431C184.838 69.6862 183.733 69.9363 182.73 69.9363C180.459 69.9653 177.952 68.7573 176.608 66.8102C177.641 65.4927 178.417 63.9929 178.896 62.3889C179.4 60.5523 179.438 58.6193 179.008 56.7641C178.588 54.8348 175.634 55.6476 176.054 57.5791C176.632 60.243 175.815 62.965 174.107 65.1154C172.197 67.518 169.513 69.2709 166.669 70.3494C163.824 71.4279 160.678 71.9125 157.851 71.3565C155.024 70.8005 152.938 69.2955 151.708 66.6807C151.602 66.445 151.511 66.2034 151.433 65.9572C150.795 64.0993 147.834 64.8965 148.477 66.7722C152.273 77.8253 166.805 76.0747 174.495 69.09C175.523 70.3226 176.811 71.3116 178.267 71.9859C179.723 72.6601 181.311 73.0026 182.916 72.9888C184.668 72.9843 186.361 72.3503 187.685 71.2024C189.222 69.8626 189.766 67.7212 189.793 65.7585C189.82 63.7957 186.756 63.7912 186.73 65.7651Z" fill="white"/>
<path d="M156.504 136.781C156.395 139.106 155.064 140.923 152.916 141.805C150.996 142.594 148.673 142.286 147.28 140.667C146.46 139.711 144.672 139.912 144.525 141.352C144.078 145.706 141.798 149.945 138.272 152.566C136.716 153.764 134.816 154.431 132.853 154.466C130.647 154.489 128.61 153.153 127.067 151.668C125.643 150.3 123.749 152.711 125.163 154.069C127.136 155.967 129.653 157.336 132.426 157.496C135.001 157.644 137.444 156.784 139.572 155.391C143.325 152.935 146.023 148.721 147.11 144.322C152.146 146.952 159.244 143.429 159.535 137.215C159.572 136.384 159.121 135.607 158.235 135.482C157.471 135.372 156.545 135.944 156.504 136.781Z" fill="white"/>
<path d="M123.076 78.3475C116.268 72.2247 104.509 78.6154 102.948 86.7858C102.58 88.7173 105.531 89.5413 105.902 87.6008C106.541 84.2514 109.147 81.6924 112.072 80.1517C114.821 78.707 118.449 78.3028 120.91 80.5157C122.381 81.8242 124.547 79.6716 123.076 78.3475Z" fill="white"/>
<path d="M84.1331 130.653C80.8082 138.627 87.7058 147.829 95.3135 150.004C97.2182 150.546 98.0265 147.59 96.1285 147.047C89.9499 145.285 84.4055 137.892 87.0873 131.468C87.411 130.695 86.7456 129.784 86.0177 129.583C85.1356 129.34 84.4546 129.883 84.1331 130.653Z" fill="white"/>
<path d="M189.692 136.781C189.799 139.106 191.132 140.923 193.28 141.805C195.198 142.594 197.523 142.286 198.916 140.667C199.734 139.711 201.522 139.912 201.67 141.352C202.116 145.706 204.398 149.945 207.922 152.566C209.478 153.764 211.378 154.431 213.341 154.466C215.547 154.489 217.584 153.153 219.127 151.668C220.551 150.3 222.445 152.711 221.032 154.069C219.058 155.967 216.541 157.336 213.768 157.496C211.191 157.644 208.75 156.784 206.622 155.391C202.869 152.935 200.171 148.721 199.084 144.322C194.049 146.952 186.95 143.429 186.66 137.215C186.622 136.384 187.073 135.607 187.959 135.482C188.725 135.372 189.652 135.944 189.692 136.781Z" fill="white"/>
<path d="M223.121 78.3475C229.929 72.2247 241.688 78.6154 243.249 86.7858C243.618 88.7173 240.666 89.5413 240.295 87.6008C239.654 84.2514 237.05 81.6924 234.123 80.1517C231.376 78.707 227.748 78.3028 225.287 80.5157C223.822 81.8242 221.65 79.6716 223.121 78.3475Z" fill="white"/>
<path d="M262.062 130.653C265.387 138.627 258.5 147.829 250.881 150.004C248.977 150.546 248.168 147.59 250.066 147.047C256.243 145.285 261.789 137.892 259.107 131.468C258.784 130.695 259.449 129.784 260.177 129.583C261.059 129.34 261.74 129.883 262.062 130.653Z" fill="white"/>
<mask id="mask3_189_4065" style="mask-type:luminance" maskUnits="userSpaceOnUse" x="78" y="39" width="190" height="129">
<path d="M257.676 113.27C254.46 110.401 250.577 108.72 246.614 108.818C246.178 108.76 245.739 108.713 245.299 108.677C245.616 108.271 245.928 107.859 246.236 107.442C250.373 104.808 253.389 100.738 254.706 96.0138C256.022 91.2898 255.545 86.246 253.367 81.8523C251.189 77.4586 247.463 74.0254 242.907 72.213C238.35 70.4005 233.284 70.3369 228.683 72.0343C229.501 68.4086 229.286 64.6262 228.062 61.1167C226.838 57.6072 224.655 54.5113 221.759 52.1805C218.864 49.8497 215.373 48.3776 211.684 47.9313C207.994 47.4849 204.252 48.0823 200.885 49.6556C199.868 46.9377 198.115 44.5562 195.822 42.7769C193.529 40.9976 190.787 39.8907 187.902 39.5796C185.016 39.2685 182.101 39.7656 179.482 41.0153C176.863 42.265 174.643 44.2182 173.069 46.6567C171.495 44.2194 169.275 42.2674 166.656 41.0185C164.038 39.7696 161.124 39.273 158.239 39.584C155.354 39.895 152.613 41.0015 150.321 42.7799C148.029 44.5584 146.276 46.9388 145.258 49.6556C141.891 48.0847 138.151 47.4893 134.462 47.9368C130.774 48.3843 127.285 49.8567 124.391 52.1871C121.497 54.5175 119.315 57.6124 118.091 61.1206C116.867 64.6288 116.652 68.4097 117.468 72.0343C112.86 70.3405 107.787 70.4129 103.228 72.2374C98.6699 74.0619 94.9482 77.5095 92.7808 81.9153C90.6133 86.3212 90.1537 91.3735 91.4904 96.0981C92.8271 100.823 95.8657 104.885 100.02 107.503C100.31 107.894 100.604 108.28 100.902 108.661C100.306 108.708 99.712 108.778 99.1269 108.867C95.5832 108.898 92.0797 110.347 89.0362 112.859C84.0155 116.273 80.446 121.434 79.0237 127.336C77.6014 133.238 78.4282 139.458 81.3429 144.784C84.2576 150.109 89.0514 154.159 94.7894 156.142C100.527 158.125 106.798 157.9 112.38 155.511C112.825 156.48 113.348 157.412 113.943 158.298C114.126 159.073 114.414 159.82 114.798 160.518C116.138 162.907 118.286 164.26 120.461 165.095C125.209 167.295 130.596 167.686 135.612 166.195C140.628 164.704 144.928 161.433 147.703 156.996C149.95 159.798 153.092 161.742 156.603 162.501C160.113 163.261 163.778 162.79 166.982 161.167C169.259 160.202 171.266 158.697 172.83 156.782C172.922 156.675 173.009 156.558 173.096 156.454C173.415 156.862 173.75 157.255 174.105 157.633C175.465 159.089 177.106 160.255 178.928 161.06C182.144 162.749 185.846 163.267 189.401 162.525C192.957 161.784 196.143 159.829 198.415 156.996C200.695 161.013 204.302 164.112 208.617 165.76C212.931 167.408 217.685 167.503 222.063 166.028C224.954 165.582 227.908 164.602 230.175 162.215C231.212 161.091 231.927 159.707 232.243 158.211C232.815 157.352 233.32 156.449 233.752 155.511C239.273 157.856 245.463 158.087 251.143 156.16C256.823 154.234 261.595 150.285 264.55 145.065C267.505 139.846 268.437 133.722 267.166 127.86C265.896 121.998 262.513 116.809 257.663 113.282L257.676 113.27Z" fill="white"/>
</mask>
<g mask="url(#mask3_189_4065)">
<path d="M146.245 51.9582C145.919 52.7308 146.586 53.6441 147.314 53.8428C148.208 54.0862 148.877 53.5436 149.199 52.7732C151.057 48.352 149.299 42.5641 146.354 39.0249C145.088 37.5065 142.931 39.6948 144.186 41.1931C146.497 43.9597 147.672 48.5529 146.245 51.9582Z" fill="white"/>
<path d="M198.831 53.843C199.557 53.6442 200.225 52.7265 199.901 51.9584C198.472 48.562 199.653 43.9599 201.958 41.1933C203.213 39.686 201.065 37.5067 199.792 39.0251C196.844 42.5643 195.089 48.3521 196.947 52.7734C197.271 53.5438 197.947 54.0864 198.831 53.843Z" fill="white"/>
</g>
</g>
<g style="mix-blend-mode:multiply">
<path d="M243.31 148.721C240.031 148.726 236.785 148.067 233.766 146.786C233.334 147.723 232.83 148.626 232.257 149.485C231.941 150.982 231.226 152.366 230.189 153.491C227.923 155.876 224.968 156.841 222.077 157.303C217.7 158.777 212.946 158.682 208.632 157.034C204.317 155.387 200.71 152.289 198.43 148.273C196.158 151.106 192.971 153.062 189.416 153.803C185.86 154.544 182.157 154.025 178.943 152.334C177.119 151.53 175.479 150.364 174.12 148.907C173.765 148.532 173.43 148.136 173.11 147.728C173.023 147.837 172.936 147.951 172.845 148.056C171.281 149.971 169.273 151.477 166.996 152.442C163.793 154.066 160.128 154.538 156.617 153.778C153.106 153.019 149.964 151.075 147.717 148.273C145.465 152.24 141.919 155.312 137.671 156.975C133.424 158.638 128.733 158.79 124.387 157.405C123.048 157.197 121.733 156.85 120.466 156.369C118.291 155.534 116.139 154.181 114.803 151.792C114.419 151.094 114.132 150.347 113.948 149.572C113.353 148.687 112.83 147.755 112.385 146.786C109.012 148.215 105.361 148.867 101.702 148.695C98.0431 148.522 94.4696 147.529 91.246 145.789C88.0225 144.05 85.2314 141.607 83.0792 138.643C80.927 135.679 79.4687 132.269 78.8123 128.665C78.028 132.999 78.43 137.465 79.9758 141.589C81.5216 145.714 84.1537 149.344 87.5935 152.095C91.0333 154.846 95.153 156.616 99.5163 157.217C103.88 157.819 108.325 157.23 112.38 155.512C112.826 156.481 113.349 157.413 113.944 158.299C114.127 159.074 114.415 159.82 114.799 160.518C116.139 162.907 118.287 164.261 120.461 165.096C125.21 167.296 130.597 167.687 135.613 166.195C140.629 164.704 144.928 161.433 147.704 156.997C149.951 159.799 153.093 161.742 156.603 162.502C160.114 163.261 163.779 162.79 166.983 161.168C169.26 160.203 171.267 158.698 172.831 156.782C172.923 156.675 173.01 156.559 173.097 156.454C173.416 156.863 173.751 157.256 174.106 157.633C175.466 159.09 177.106 160.256 178.929 161.061C182.145 162.75 185.847 163.268 189.402 162.526C192.957 161.785 196.144 159.83 198.416 156.997C200.696 161.014 204.303 164.112 208.617 165.761C212.932 167.409 217.686 167.504 222.063 166.029C224.955 165.583 227.909 164.602 230.176 162.215C231.213 161.091 231.928 159.708 232.243 158.212C232.816 157.352 233.321 156.45 233.753 155.512C237.808 157.229 242.253 157.818 246.616 157.217C250.979 156.616 255.098 154.847 258.538 152.097C261.979 149.347 264.611 145.718 266.159 141.595C267.706 137.471 268.11 133.006 267.328 128.672C266.303 134.296 263.339 139.383 258.95 143.047C254.561 146.71 249.027 148.718 243.31 148.721Z" fill="#14A5F8"/>
</g>
<path d="M120.081 164.444C119.819 164.397 119.529 164.346 119.411 164.313C119.167 164.248 118.929 164.165 118.692 164.089L118.643 164.074C118.187 163.855 117.747 163.605 117.325 163.326C117.261 163.285 117.122 163.183 117.013 163.102C116.805 162.924 116.602 162.741 116.403 162.551C116.001 162.158 115.623 161.743 115.269 161.307L115.24 161.274C115.079 161.05 114.929 160.827 114.777 160.604C114.12 159.618 113.541 158.584 113.045 157.509C112.998 157.408 112.953 157.308 112.908 157.207C112.895 157.172 112.728 156.779 112.685 156.658C112.478 156.129 112.292 155.591 112.114 155.05C111.714 153.858 111.392 152.639 111.106 151.415C110.834 150.261 110.615 149.095 110.416 147.927C110.316 147.34 110.227 146.75 110.142 146.159C110.142 146.107 110.119 145.996 110.104 145.882C110.059 145.54 110.017 145.196 109.977 144.852C109.691 142.445 109.492 140.029 109.293 137.613C109.141 135.755 108.992 133.9 108.795 132.046C108.572 129.887 107.159 128.063 104.812 128.063C102.815 128.063 100.598 129.883 100.828 132.046C101.889 141.999 101.904 152.268 106.169 161.521C108.369 166.298 112.147 170.478 117.303 171.994C118.891 172.451 120.545 172.635 122.195 172.539C120.984 169.999 120.267 167.252 120.081 164.444Z" fill="#1C3E7F"/>
<path d="M119.838 124.538C119.286 123.252 117.931 122.881 116.689 123.281C115.385 123.707 114.103 124.199 112.849 124.755L112.581 122.812C112.527 122.429 112.413 122.057 112.243 121.709C112.732 119.699 113.518 117.79 114.289 115.872C115.443 112.998 111.009 111.17 109.856 114.039C109.209 115.649 108.572 117.268 108.057 118.925C107.99 118.911 107.916 118.905 107.849 118.896C107.498 116.687 107.108 114.483 106.632 112.297C105.98 109.296 101.226 109.926 101.883 112.949C102.329 115.035 102.711 117.136 103.05 119.239L102.126 119.369C101.495 117.328 100.861 115.289 100.223 113.251C99.3057 110.303 94.9068 112.215 95.8178 115.142C96.3552 116.879 96.8956 118.617 97.4389 120.356L97.1933 120.472C96.0054 119.302 94.8063 118.141 93.8439 116.777C92.0463 114.26 88.2749 117.223 90.0702 119.737C91.2291 121.359 92.7073 122.694 94.1007 124.101C94.0139 124.514 93.9973 124.939 94.0515 125.358L94.9827 132.144C95.206 133.707 96.3716 134.939 98.0106 135.605C97.8123 135.844 97.6897 136.137 97.6585 136.446C97.6274 136.755 97.6891 137.066 97.8358 137.34C97.9824 137.614 98.2074 137.838 98.4819 137.984C98.7565 138.129 99.0681 138.19 99.3771 138.157L110.558 137.041C110.899 137.009 111.221 136.866 111.473 136.633C111.725 136.4 111.894 136.091 111.953 135.753C112.012 135.415 111.958 135.066 111.799 134.762C111.641 134.458 111.386 134.214 111.076 134.069C112.726 133.001 113.711 131.389 113.532 129.699C115.175 128.923 116.865 128.252 118.592 127.689C119.824 127.289 120.313 125.653 119.838 124.538Z" fill="white"/>
<path d="M226.072 164.444C226.334 164.397 226.622 164.346 226.742 164.312C226.986 164.248 227.224 164.165 227.461 164.089L227.508 164.073C227.965 163.855 228.406 163.605 228.828 163.325C228.893 163.285 229.031 163.182 229.14 163.102C229.348 162.923 229.551 162.74 229.75 162.551C230.152 162.158 230.53 161.743 230.884 161.307L230.913 161.273C231.074 161.05 231.224 160.827 231.376 160.603C232.033 159.618 232.612 158.584 233.108 157.509L233.247 157.207C233.258 157.171 233.425 156.778 233.47 156.658C233.678 156.129 233.863 155.59 234.042 155.05C234.441 153.858 234.763 152.638 235.049 151.415C235.319 150.26 235.54 149.095 235.739 147.927C235.839 147.34 235.929 146.75 236.013 146.158C236.013 146.107 236.036 145.995 236.051 145.882C236.096 145.54 236.138 145.196 236.179 144.852C236.467 142.445 236.663 140.029 236.862 137.613C237.014 135.755 237.161 133.899 237.36 132.046C237.583 129.887 238.997 128.062 241.343 128.062C243.34 128.062 245.557 129.882 245.327 132.046C244.266 141.998 244.251 152.268 239.986 161.521C237.786 166.297 234.006 170.478 228.852 171.994C227.264 172.45 225.61 172.635 223.96 172.539C225.17 169.999 225.887 167.252 226.072 164.444Z" fill="#1C3E7F"/>
<path d="M226.317 124.538C226.868 123.252 228.222 122.881 229.465 123.281C230.77 123.706 232.052 124.198 233.306 124.755L233.574 122.812C233.628 122.429 233.742 122.057 233.911 121.709C233.422 119.699 232.636 117.79 231.866 115.872C230.711 112.998 235.144 111.169 236.298 114.039C236.946 115.649 237.582 117.268 238.098 118.924C238.165 118.911 238.239 118.904 238.306 118.895C238.656 116.687 239.047 114.483 239.523 112.297C240.175 109.296 244.929 109.926 244.272 112.949C243.825 115.035 243.441 117.136 243.104 119.239L244.029 119.369C244.66 117.328 245.294 115.288 245.931 113.25C246.849 110.303 251.248 112.214 250.337 115.142C249.799 116.879 249.259 118.617 248.716 120.356L248.963 120.472C250.149 119.302 251.348 118.141 252.313 116.776C254.113 114.26 257.882 117.223 256.087 119.737C254.928 121.358 253.449 122.694 252.067 124.1C252.154 124.514 252.171 124.939 252.116 125.358L251.185 132.143C250.962 133.707 249.796 134.939 248.155 135.605C248.353 135.844 248.476 136.136 248.507 136.445C248.538 136.754 248.477 137.065 248.33 137.339C248.184 137.613 247.959 137.837 247.685 137.982C247.411 138.128 247.1 138.189 246.791 138.157L235.61 137.04C235.269 137.009 234.947 136.866 234.694 136.633C234.442 136.401 234.273 136.092 234.213 135.753C234.154 135.415 234.208 135.067 234.366 134.762C234.525 134.458 234.779 134.214 235.09 134.068C233.442 133.001 232.457 131.389 232.634 129.698C230.991 128.923 229.301 128.252 227.574 127.689C226.33 127.289 225.839 125.652 226.317 124.538Z" fill="white"/>
<path d="M102.401 131.007C103.828 127.986 106.99 126.559 110.105 125.905C110.808 125.758 110.511 124.681 109.808 124.829C106.431 125.537 102.979 127.18 101.436 130.445C101.13 131.092 102.093 131.659 102.401 131.007Z" fill="#B8E3FF"/>
<path d="M235.068 127.245C238.804 128.319 242.629 131.191 244.055 134.895C244.312 135.565 245.395 135.27 245.134 134.598C243.56 130.512 239.505 127.359 235.365 126.169C234.673 125.97 234.378 127.046 235.068 127.245Z" fill="#B8E3FF"/>
<g filter="url(#filter0_ddddd_189_4065)">
<path d="M261.755 24.1512C257.898 24.1523 254.138 25.3607 251.003 27.6068C247.868 29.853 245.514 33.0243 244.272 36.6759C243.031 40.3274 242.963 44.2761 244.08 47.9679C245.196 51.6598 247.44 54.9096 250.496 57.2615L246.937 65.1863L254.788 59.729C257.314 60.7565 260.035 61.2123 262.758 61.0636C265.48 60.9149 268.136 60.1655 270.534 58.8691C272.933 57.5727 275.014 55.7615 276.63 53.5654C278.246 51.3693 279.355 48.8428 279.879 46.1672C280.403 43.4915 280.328 40.7331 279.66 38.0899C278.992 35.4466 277.747 32.984 276.014 30.8788C274.282 28.7737 272.105 27.0781 269.639 25.9138C267.174 24.7494 264.481 24.1452 261.755 24.1445V24.1512Z" fill="white"/>
</g>
<path d="M267.202 34.3383C262.716 34.3383 261.755 38.6658 261.755 38.6658C261.755 38.6658 260.793 34.3383 256.307 34.3383C251.821 34.3383 250.379 38.8266 251.663 42.1894C252.946 45.5522 259.672 50.6746 261.755 51.7911C263.839 50.6746 270.567 45.5388 271.848 42.1894C273.13 38.84 271.688 34.3383 267.202 34.3383Z" fill="#FF3968"/>
<path d="M268.081 37.1474C268.886 37.6774 269.479 38.4744 269.755 39.3982C269.979 40.153 271.164 39.8314 270.934 39.0745C270.563 37.8505 269.773 36.7965 268.701 36.0979C268.049 35.6513 267.438 36.712 268.085 37.1541L268.081 37.1474Z" fill="white"/>
<g style="mix-blend-mode:multiply">
<path d="M271.849 38.952C270.567 42.3171 263.839 47.4372 261.756 48.5537C259.672 47.4372 252.944 42.3014 251.663 38.952C251.562 38.6868 251.478 38.4152 251.413 38.1392C251.081 39.487 251.168 40.904 251.663 42.201C252.944 45.566 259.672 50.6862 261.756 51.8027C263.839 50.6862 270.567 45.5504 271.849 42.201C272.341 40.9043 272.428 39.4887 272.099 38.1414C272.032 38.4166 271.949 38.6873 271.849 38.952Z" fill="#FF3968"/>
</g>
<g style="mix-blend-mode:multiply" opacity="0.5">
<path d="M126.875 221.468V226.157C126.875 226.876 127.991 226.876 127.991 226.157V221.468C127.991 220.749 126.875 220.749 126.875 221.468Z" fill="#539987"/>
<path d="M122.402 222.858C122.916 223.953 123.454 225.038 123.965 226.134C124.271 226.784 125.234 226.217 124.93 225.569C124.416 224.475 123.88 223.39 123.367 222.296C123.061 221.644 122.099 222.211 122.402 222.858Z" fill="#539987"/>
<path d="M131.353 222.296C130.84 223.39 130.304 224.475 129.79 225.569C129.486 226.217 130.449 226.784 130.755 226.134C131.268 225.038 131.804 223.953 132.318 222.858C132.621 222.211 131.659 221.644 131.353 222.296Z" fill="#539987"/>
</g>
<g style="mix-blend-mode:multiply" opacity="0.5">
<path d="M141.617 229.699V234.389C141.617 235.11 142.734 235.11 142.734 234.389V229.699C142.734 228.978 141.617 228.978 141.617 229.699Z" fill="#539987"/>
<path d="M137.144 231.088C137.658 232.184 138.194 233.269 138.708 234.364C139.013 235.016 139.976 234.448 139.672 233.801C139.159 232.704 138.623 231.621 138.109 230.525C137.803 229.873 136.841 230.44 137.144 231.088Z" fill="#539987"/>
<path d="M146.095 230.525C145.581 231.621 145.045 232.704 144.532 233.801C144.228 234.448 145.202 235.016 145.496 234.364C146.01 233.269 146.546 232.184 147.059 231.088C147.363 230.44 146.401 229.873 146.095 230.525Z" fill="#539987"/>
</g>
<g style="mix-blend-mode:multiply" opacity="0.5">
<path d="M223.311 216.778V221.467C223.311 222.186 224.427 222.186 224.427 221.467V216.778C224.427 216.057 223.311 216.057 223.311 216.778Z" fill="#539987"/>
<path d="M218.844 218.166C219.358 219.263 219.894 220.348 220.407 221.442C220.711 222.094 221.674 221.527 221.37 220.879C220.856 219.783 220.32 218.7 219.807 217.604C219.503 216.951 218.541 217.519 218.844 218.166Z" fill="#539987"/>
<path d="M227.794 217.604C227.283 218.7 226.745 219.783 226.231 220.879C225.928 221.527 226.89 222.094 227.196 221.442C227.709 220.348 228.245 219.263 228.759 218.166C229.063 217.519 228.1 216.951 227.794 217.604Z" fill="#539987"/>
</g>
<g style="mix-blend-mode:multiply" opacity="0.5">
<path d="M214.601 224.077V228.766C214.601 229.485 215.717 229.485 215.717 228.766V224.077C215.717 223.356 214.601 223.356 214.601 224.077Z" fill="#539987"/>
<path d="M210.134 225.468C210.647 226.562 211.183 227.647 211.697 228.741C212.003 229.393 212.965 228.826 212.661 228.179C212.148 227.082 211.61 225.999 211.098 224.903C210.792 224.251 209.83 224.82 210.134 225.468Z" fill="#539987"/>
<path d="M219.083 224.903C218.572 225.999 218.036 227.082 217.52 228.179C217.219 228.826 218.19 229.393 218.485 228.741C218.998 227.647 219.534 226.562 220.048 225.468C220.352 224.82 219.389 224.251 219.083 224.903Z" fill="#539987"/>
</g>
<g style="mix-blend-mode:multiply" opacity="0.5">
<path d="M183.343 230.778V235.467C183.343 236.186 184.459 236.186 184.459 235.467V230.778C184.459 230.057 183.343 230.057 183.343 230.778Z" fill="#539987"/>
<path d="M178.859 232.167C179.372 233.264 179.91 234.349 180.422 235.443C180.728 236.095 181.69 235.528 181.386 234.88C180.873 233.784 180.337 232.701 179.823 231.604C179.517 230.952 178.555 231.52 178.859 232.167Z" fill="#539987"/>
<path d="M187.808 231.604C187.295 232.701 186.759 233.784 186.245 234.88C185.941 235.528 186.904 236.095 187.21 235.443C187.723 234.349 188.259 233.263 188.773 232.167C189.076 231.519 188.114 230.952 187.808 231.604Z" fill="#539987"/>
</g>
<path d="M151.57 28.3546C149.79 27.4345 147.817 26.9515 145.813 26.9456C145.799 26.4921 145.808 26.0382 145.842 25.5857C145.925 24.5787 144.366 24.4491 144.279 25.454C144.241 25.9621 144.231 26.472 144.248 26.9813C141.359 27.1711 138.442 28.0107 135.906 28.9753C133.45 29.9065 130.799 31.2083 128.519 32.9455C127.98 32.3933 127.427 31.8536 126.86 31.3266C126.132 30.6568 124.94 31.6638 125.679 32.3516C126.236 32.8666 126.778 33.3959 127.307 33.9392C125.634 35.4241 124.265 37.1725 123.491 39.2045C123.131 40.1491 124.607 40.6716 124.962 39.7315C125.652 37.9228 126.88 36.3821 128.379 35.0691C128.952 35.6988 129.508 36.3448 130.049 37.0073C130.685 37.7888 131.866 36.7661 131.232 35.9846C130.705 35.3348 130.16 34.7051 129.6 34.0888C131.625 32.595 133.963 31.4495 136.076 30.5831C138.476 29.5983 141.446 28.6828 144.355 28.4953C144.467 29.5559 144.639 30.6121 144.771 31.6772C144.896 32.6776 146.432 32.3851 146.307 31.3892C146.182 30.3933 146.026 29.442 145.918 28.4685C147.574 28.4856 149.204 28.8885 150.677 29.6452C151.563 30.1186 152.457 28.8324 151.57 28.3546Z" fill="white"/>
<defs>
<filter id="filter0_ddddd_189_4065" x="195.289" y="0.144531" width="132.934" height="137.042" filterUnits="userSpaceOnUse" color-interpolation-filters="sRGB">
<feFlood flood-opacity="0" result="BackgroundImageFix"/>
<feColorMatrix in="SourceAlpha" type="matrix" values="0 0 0 0 0 0 0 0 0 0 0 0 0 0 0 0 0 0 127 0" result="hardAlpha"/>
<feOffset dy="2"/>
<feGaussianBlur stdDeviation="2"/>
<feColorMatrix type="matrix" values="0 0 0 0 0.0705882 0 0 0 0 0.0705882 0 0 0 0 0.0901961 0 0 0 0.0399338 0"/>
<feBlend mode="normal" in2="BackgroundImageFix" result="effect1_dropShadow_189_4065"/>
<feColorMatrix in="SourceAlpha" type="matrix" values="0 0 0 0 0 0 0 0 0 0 0 0 0 0 0 0 0 0 127 0" result="hardAlpha"/>
<feOffset dy="5"/>
<feGaussianBlur stdDeviation="4"/>
<feColorMatrix type="matrix" values="0 0 0 0 0.0705882 0 0 0 0 0.0705882 0 0 0 0 0.0901961 0 0 0 0.04 0"/>
<feBlend mode="normal" in2="effect1_dropShadow_189_4065" result="effect2_dropShadow_189_4065"/>
<feColorMatrix in="SourceAlpha" type="matrix" values="0 0 0 0 0 0 0 0 0 0 0 0 0 0 0 0 0 0 127 0" result="hardAlpha"/>
<feOffset dy="10"/>
<feGaussianBlur stdDeviation="9"/>
<feColorMatrix type="matrix" values="0 0 0 0 0.0705882 0 0 0 0 0.0705882 0 0 0 0 0.0901961 0 0 0 0.03 0"/>
<feBlend mode="normal" in2="effect2_dropShadow_189_4065" result="effect3_dropShadow_189_4065"/>
<feColorMatrix in="SourceAlpha" type="matrix" values="0 0 0 0 0 0 0 0 0 0 0 0 0 0 0 0 0 0 127 0" result="hardAlpha"/>
<feOffset dy="24"/>
<feGaussianBlur stdDeviation="24"/>
<feColorMatrix type="matrix" values="0 0 0 0 0.0705882 0 0 0 0 0.0705882 0 0 0 0 0.0901961 0 0 0 0.03 0"/>
<feBlend mode="normal" in2="effect3_dropShadow_189_4065" result="effect4_dropShadow_189_4065"/>
<feColorMatrix in="SourceAlpha" type="matrix" values="0 0 0 0 0 0 0 0 0 0 0 0 0 0 0 0 0 0 127 0" result="hardAlpha"/>
<feMorphology radius="1" operator="dilate" in="SourceAlpha" result="effect5_dropShadow_189_4065"/>
<feOffset/>
<feColorMatrix type="matrix" values="0 0 0 0 0.0705882 0 0 0 0 0.0705882 0 0 0 0 0.0901961 0 0 0 0.1 0"/>
<feBlend mode="normal" in2="effect4_dropShadow_189_4065" result="effect5_dropShadow_189_4065"/>
<feBlend mode="normal" in="SourceGraphic" in2="effect5_dropShadow_189_4065" result="shape"/>
</filter>
</defs>
</svg>
