<svg width="121" height="6" viewBox="0 0 121 6" fill="none" xmlns="http://www.w3.org/2000/svg">
<rect x="24.5" y="6" width="6" height="6" rx="1" transform="rotate(-90 24.5 6)" fill="#14A5F8" fill-opacity="0.23"/>
<rect x="34.5" y="6" width="6" height="6" rx="1" transform="rotate(-90 34.5 6)" fill="#14A5F8" fill-opacity="0.23"/>
<rect x="44.5" y="6" width="6" height="6" rx="1" transform="rotate(-90 44.5 6)" fill="#0061A6"/>
<rect x="54.5" y="6" width="6" height="6" rx="1" transform="rotate(-90 54.5 6)" fill="#14A5F8" fill-opacity="0.23"/>
<rect x="64.5" y="6" width="6" height="6" rx="1" transform="rotate(-90 64.5 6)" fill="#14A5F8" fill-opacity="0.23"/>
<rect x="74.5" y="6" width="6" height="6" rx="1" transform="rotate(-90 74.5 6)" fill="#0061A6"/>
<rect x="84.5" y="6" width="6" height="6" rx="1" transform="rotate(-90 84.5 6)" fill="#14A5F8" fill-opacity="0.23"/>
<rect x="94.5" y="6" width="6" height="6" rx="1" transform="rotate(-90 94.5 6)" fill="#14A5F8" fill-opacity="0.23"/>
<rect x="104.5" y="6" width="6" height="6" rx="1" transform="rotate(-90 104.5 6)" fill="#0061A6"/>
<rect x="114.5" y="6" width="6" height="6" rx="1" transform="rotate(-90 114.5 6)" fill="#0061A6"/>
</svg>
