<svg width="33" height="32" viewBox="0 0 33 32" fill="none" xmlns="http://www.w3.org/2000/svg">
<path d="M26.8175 11.4039C26.8175 5.98937 22.4277 1.59961 17.0132 1.59961C11.5986 1.59961 7.20883 5.98937 7.20883 11.4039C7.20883 12.3393 7.34291 13.2428 7.58874 14.1016L6.52563 19.1874H8.31346L9.83311 25.1542L10.6057 25.2724C11.7071 25.4416 12.8341 25.2532 13.8238 24.736L10.5163 30.3996H22.0318L25.5596 16.2119C26.361 14.7912 26.8207 13.1535 26.8207 11.4071L26.8175 11.4039Z" fill="url(#paint0_linear_739_28464)"/>
<path d="M26.8175 11.4039C26.8175 5.98937 22.4277 1.59961 17.0132 1.59961C11.5986 1.59961 7.20883 5.98937 7.20883 11.4039C7.20883 12.3393 7.34291 13.2428 7.58874 14.1016L6.52563 19.1874H8.31346L9.83311 25.1542L10.6057 25.2724C11.7071 25.4416 12.8341 25.2532 13.8238 24.736L10.5163 30.3996H22.0318L25.5596 16.2119C26.361 14.7912 26.8207 13.1535 26.8207 11.4071L26.8175 11.4039Z" stroke="#3F3F50" stroke-width="1.5" stroke-linecap="round" stroke-linejoin="round"/>
<path d="M22.6665 11C21.467 11 21.467 9 20.2675 9C19.0679 9 19.0679 11 17.8684 11C16.6689 11 16.6689 9 15.4694 9C14.2699 9 14.2699 11 13.0679 11C11.866 11 11.8684 9 10.6665 9" stroke="#14A5F8" stroke-width="1.5" stroke-linecap="round" stroke-linejoin="round"/>
<defs>
<linearGradient id="paint0_linear_739_28464" x1="16.6684" y1="30.3996" x2="16.6684" y2="1.59961" gradientUnits="userSpaceOnUse">
<stop offset="0.03" stop-color="#A3A5AB"/>
<stop offset="0.44" stop-color="#A3A5AB" stop-opacity="0"/>
</linearGradient>
</defs>
</svg>
