<svg width="17" height="16" viewBox="0 0 17 16" fill="none" xmlns="http://www.w3.org/2000/svg">
<path d="M7.21138 9.17936C8.68414 9.17936 9.87805 7.98545 9.87805 6.51269C9.87805 5.03993 8.68414 3.84603 7.21138 3.84603C5.73863 3.84603 4.54472 5.03993 4.54472 6.51269C4.54472 7.98545 5.73863 9.17936 7.21138 9.17936Z" fill="#14A5F8"/>
<path d="M11.4714 10.886C10.3514 10.3127 8.89805 9.84603 7.21138 9.84603C5.52472 9.84603 4.07138 10.3127 2.95138 10.886C2.28472 11.226 1.87805 11.9127 1.87805 12.6594V13.1794C1.87805 13.9127 2.47805 14.5127 3.21139 14.5127H11.2114C11.9447 14.5127 12.5447 13.9127 12.5447 13.1794V12.6594C12.5447 11.9127 12.1381 11.226 11.4714 10.886Z" fill="#14A5F8"/>
<path d="M14.6181 1.74603C14.3714 1.42603 13.8981 1.39936 13.6181 1.68603C13.3847 1.91936 13.3581 2.29269 13.5581 2.55269C14.3381 3.55269 15.3181 6.03936 13.5581 8.29269C13.3581 8.55269 13.3847 8.92603 13.6181 9.15936C13.9047 9.44603 14.3714 9.41269 14.6181 9.09936C15.6181 7.81269 16.8514 4.61936 14.6181 1.74603Z" fill="#14A5F8"/>
<path d="M12.7514 3.73936C12.5314 3.35936 12.0114 3.29269 11.6981 3.59936C11.4781 3.81936 11.4581 4.15936 11.6114 4.43269C11.7781 4.72603 12.1047 5.55936 11.6047 6.42603C11.4514 6.69269 11.4781 7.02603 11.6981 7.23936C12.0114 7.55269 12.5314 7.47269 12.7514 7.09269C13.5247 5.76603 13.1381 4.41269 12.7514 3.73936Z" fill="#14A5F8"/>
</svg>
