<svg width="15" height="15" viewBox="0 0 15 15" fill="none" xmlns="http://www.w3.org/2000/svg">
<path d="M3.17153 0.300003C2.48954 0.300003 1.83549 0.570921 1.35325 1.05316C0.871015 1.53539 0.600098 2.18945 0.600098 2.87143V3.38572H15.0001V2.87143C15.0001 2.18945 14.7292 1.53539 14.2469 1.05316C13.7647 0.570921 13.1107 0.300003 12.4287 0.300003H3.17153ZM15.0001 4.41429H0.600098V12.1286C0.600098 12.8106 0.871015 13.4646 1.35325 13.9468C1.83549 14.4291 2.48954 14.7 3.17153 14.7H12.4287C13.1107 14.7 13.7647 14.4291 14.2469 13.9468C14.7292 13.4646 15.0001 12.8106 15.0001 12.1286V4.41429ZM5.74295 7.5C5.74295 7.7728 5.63459 8.03442 5.44169 8.22731C5.2488 8.42021 4.98718 8.52857 4.71438 8.52857C4.44159 8.52857 4.17997 8.42021 3.98707 8.22731C3.79418 8.03442 3.68581 7.7728 3.68581 7.5C3.68581 7.22721 3.79418 6.96559 3.98707 6.77269C4.17997 6.5798 4.44159 6.47143 4.71438 6.47143C4.98718 6.47143 5.2488 6.5798 5.44169 6.77269C5.63459 6.96559 5.74295 7.22721 5.74295 7.5ZM4.71438 11.6143C4.44159 11.6143 4.17997 11.5059 3.98707 11.313C3.79418 11.1201 3.68581 10.8585 3.68581 10.5857C3.68581 10.3129 3.79418 10.0513 3.98707 9.85841C4.17997 9.66551 4.44159 9.55715 4.71438 9.55715C4.98718 9.55715 5.2488 9.66551 5.44169 9.85841C5.63459 10.0513 5.74295 10.3129 5.74295 10.5857C5.74295 10.8585 5.63459 11.1201 5.44169 11.313C5.2488 11.5059 4.98718 11.6143 4.71438 11.6143ZM8.82867 7.5C8.82867 7.7728 8.7203 8.03442 8.52741 8.22731C8.33451 8.42021 8.07289 8.52857 7.8001 8.52857C7.5273 8.52857 7.26568 8.42021 7.07279 8.22731C6.87989 8.03442 6.77153 7.7728 6.77153 7.5C6.77153 7.22721 6.87989 6.96559 7.07279 6.77269C7.26568 6.5798 7.5273 6.47143 7.8001 6.47143C8.07289 6.47143 8.33451 6.5798 8.52741 6.77269C8.7203 6.96559 8.82867 7.22721 8.82867 7.5ZM7.8001 11.6143C7.5273 11.6143 7.26568 11.5059 7.07279 11.313C6.87989 11.1201 6.77153 10.8585 6.77153 10.5857C6.77153 10.3129 6.87989 10.0513 7.07279 9.85841C7.26568 9.66551 7.5273 9.55715 7.8001 9.55715C8.07289 9.55715 8.33451 9.66551 8.52741 9.85841C8.7203 10.0513 8.82867 10.3129 8.82867 10.5857C8.82867 10.8585 8.7203 11.1201 8.52741 11.313C8.33451 11.5059 8.07289 11.6143 7.8001 11.6143ZM11.9144 7.5C11.9144 7.7728 11.806 8.03442 11.6131 8.22731C11.4202 8.42021 11.1586 8.52857 10.8858 8.52857C10.613 8.52857 10.3514 8.42021 10.1585 8.22731C9.96561 8.03442 9.85724 7.7728 9.85724 7.5C9.85724 7.22721 9.96561 6.96559 10.1585 6.77269C10.3514 6.5798 10.613 6.47143 10.8858 6.47143C11.1586 6.47143 11.4202 6.5798 11.6131 6.77269C11.806 6.96559 11.9144 7.22721 11.9144 7.5Z" fill="#14A5F8"/>
</svg>
