<svg width="15" height="15" viewBox="0 0 15 15" fill="none" xmlns="http://www.w3.org/2000/svg">
<path d="M7.4002 0.300003C9.30975 0.300003 11.1411 1.05857 12.4914 2.40883C13.8416 3.7591 14.6002 5.59044 14.6002 7.5C14.6002 9.40956 13.8416 11.2409 12.4914 12.5912C11.1411 13.9414 9.30975 14.7 7.4002 14.7C5.49064 14.7 3.65929 13.9414 2.30903 12.5912C0.958765 11.2409 0.200195 9.40956 0.200195 7.5C0.200195 5.59044 0.958765 3.7591 2.30903 2.40883C3.65929 1.05857 5.49064 0.300003 7.4002 0.300003ZM6.9502 3C6.83085 3 6.71639 3.04741 6.632 3.1318C6.54761 3.2162 6.5002 3.33066 6.5002 3.45V7.95L6.5074 8.031C6.52635 8.13461 6.58105 8.22828 6.66196 8.2957C6.74287 8.36313 6.84487 8.40004 6.9502 8.4H9.6502L9.7312 8.3928C9.84185 8.37277 9.94099 8.31203 10.0091 8.22255C10.0772 8.13307 10.1093 8.02133 10.0992 7.90934C10.089 7.79735 10.0373 7.69322 9.9542 7.61746C9.8711 7.5417 9.76265 7.4998 9.6502 7.5H7.4002V3.45L7.39299 3.369C7.37404 3.2654 7.31934 3.17173 7.23843 3.1043C7.15752 3.03688 7.05552 2.99997 6.9502 3Z" fill="#14A5F8"/>
</svg>
