<svg width="18" height="19" viewBox="0 0 18 19" fill="none" xmlns="http://www.w3.org/2000/svg">
<path d="M16.2 2.89999C16.6774 2.89999 17.1352 3.08964 17.4728 3.4272C17.8104 3.76477 18 4.2226 18 4.69999V6.49999H0V4.69999C0 4.2226 0.189642 3.76477 0.527208 3.4272C0.864773 3.08964 1.32261 2.89999 1.8 2.89999H16.2Z" fill="#1C3E7F"/>
<path fill-rule="evenodd" clip-rule="evenodd" d="M0 7.70001V14.3C0 14.7774 0.189642 15.2352 0.527208 15.5728C0.864773 15.9104 1.32261 16.1 1.8 16.1H16.2C16.6774 16.1 17.1352 15.9104 17.4728 15.5728C17.8104 15.2352 18 14.7774 18 14.3V7.70001H0ZM2.4 12.5H9.6V11.3H2.4V12.5ZM15.6 12.5H12V11.3H15.6V12.5Z" fill="#1C3E7F"/>
</svg>
