<svg width="33" height="32" viewBox="0 0 33 32" fill="none" xmlns="http://www.w3.org/2000/svg">
<path d="M24.1124 8.55509C24.1124 7.39375 23.3952 6.40346 22.3779 5.99535C22.3989 5.8543 22.4139 5.71326 22.4139 5.56622C22.4139 4.1378 21.3276 2.96147 19.9352 2.82343C19.9202 1.81513 19.0979 1.00189 18.0867 1.00189C17.0754 1.00189 16.2351 1.83013 16.2351 2.85343V14.2538C16.2351 15.2771 17.0634 16.1053 18.0867 16.1053C19.0139 16.1053 19.7791 15.4211 19.9142 14.5328C21.3156 14.4038 22.4169 13.2245 22.4169 11.79C22.4169 11.562 22.3869 11.3429 22.3329 11.1298C23.3712 10.7337 24.1124 9.73143 24.1124 8.55509Z" fill="#14A5F8"/>
<path d="M24.1124 8.55509C24.1124 7.39375 23.3952 6.40346 22.3779 5.99535C22.3989 5.8543 22.4139 5.71326 22.4139 5.56622C22.4139 4.1378 21.3276 2.96147 19.9352 2.82343C19.9202 1.81513 19.0979 1.00189 18.0867 1.00189C17.0754 1.00189 16.2351 1.83013 16.2351 2.85343V14.2538C16.2351 15.2771 17.0634 16.1053 18.0867 16.1053C19.0139 16.1053 19.7791 15.4211 19.9142 14.5328C21.3156 14.4038 22.4169 13.2245 22.4169 11.79C22.4169 11.562 22.3869 11.3429 22.3329 11.1298C23.3712 10.7337 24.1124 9.73144 24.1124 8.55509Z" stroke="#3B4356" stroke-linecap="round" stroke-linejoin="round"/>
<path d="M21.7958 10.2537C22.1649 10.7009 22.3869 11.274 22.3869 11.8982C22.3869 13.3266 21.2286 14.485 19.8002 14.485C18.9479 14.485 18.1917 14.0738 17.7206 13.4377" stroke="#3B4356" stroke-linecap="round" stroke-linejoin="round"/>
<path d="M21.7958 7.08099C22.1649 6.63386 22.3869 6.06069 22.3869 5.43651C22.3869 4.00809 21.2286 2.84975 19.8002 2.84975C18.9479 2.84975 18.1917 3.26087 17.7206 3.89706" stroke="#3B4356" stroke-linecap="round" stroke-linejoin="round"/>
<path d="M20.7033 7.4103C19.9021 7.4103 19.2539 6.76211 19.2539 5.96088" stroke="#3B4356" stroke-linecap="round" stroke-linejoin="round"/>
<path d="M20.7033 10.1699C19.9021 10.1699 19.2539 10.8181 19.2539 11.6193" stroke="#3B4356" stroke-linecap="round" stroke-linejoin="round"/>
<path d="M8.35474 8.55021C8.35474 9.71154 9.07195 10.7018 10.0892 11.11C10.0682 11.251 10.0532 11.392 10.0532 11.5391C10.0532 12.9675 11.1395 14.1438 12.532 14.2819C12.547 15.2902 13.3692 16.1034 14.3805 16.1034C15.3918 16.1034 16.232 15.2752 16.232 14.2519V2.85154C16.232 1.82825 15.4038 1 14.3805 1C13.4532 1 12.688 1.68421 12.553 2.57247C11.1515 2.7015 10.0502 3.88084 10.0502 5.31526C10.0502 5.54333 10.0802 5.7624 10.1343 5.97546C9.09595 6.37157 8.35474 7.37386 8.35474 8.55021Z" stroke="#3B4356" stroke-linecap="round" stroke-linejoin="round"/>
<path d="M10.6715 6.8523C10.3024 6.40517 10.0803 5.83201 10.0803 5.20783C10.0803 3.77941 11.2387 2.62106 12.6671 2.62106C13.5193 2.62106 14.2755 3.03219 14.7467 3.66838" stroke="#3B4356" stroke-linecap="round" stroke-linejoin="round"/>
<path d="M10.6715 10.0244C10.3024 10.4715 10.0803 11.0447 10.0803 11.6689C10.0803 13.0973 11.2387 14.2557 12.6671 14.2557C13.5193 14.2557 14.2755 13.8445 14.7467 13.2083" stroke="#3B4356" stroke-linecap="round" stroke-linejoin="round"/>
<path d="M11.7607 9.69704C12.562 9.69704 13.2102 10.3452 13.2102 11.1465" stroke="#3B4356" stroke-linecap="round" stroke-linejoin="round"/>
<path d="M11.7607 6.94064C12.562 6.94064 13.2102 6.29244 13.2102 5.49121" stroke="#3B4356" stroke-linecap="round" stroke-linejoin="round"/>
<path d="M19.9172 19.8448H18.8249V17.9092H13.7174V19.8448H12.6251C8.41488 19.8448 4.99988 23.2597 4.99988 27.47V31.1641H27.5455V27.47C27.5455 23.2597 24.1305 19.8448 19.9202 19.8448H19.9172Z" fill="url(#paint0_linear_739_28561)"/>
<path d="M19.9172 19.8448H18.8249V17.9092H13.7174V19.8448H12.6251C8.41488 19.8448 4.99988 23.2598 4.99988 27.47V31.1641H27.5455V27.47C27.5455 23.2598 24.1305 19.8448 19.9202 19.8448H19.9172Z" stroke="#3B4356" stroke-linecap="round" stroke-linejoin="round"/>
<path d="M9.60608 25.6482V31.1668" stroke="#3B4356" stroke-linecap="round" stroke-linejoin="round"/>
<path d="M22.9359 25.6482V31.1668" stroke="#3B4356" stroke-linecap="round" stroke-linejoin="round"/>
<path d="M13.7173 19.0808V21.6496" stroke="#3B4356" stroke-linecap="round" stroke-linejoin="round"/>
<path d="M18.8247 19.0935V21.6653" stroke="#3B4356" stroke-linecap="round" stroke-linejoin="round"/>
<defs>
<linearGradient id="paint0_linear_739_28561" x1="16.2712" y1="31.1641" x2="16.2712" y2="17.9092" gradientUnits="userSpaceOnUse">
<stop offset="0.03" stop-color="#A3A5AB"/>
<stop offset="0.44" stop-color="#A3A5AB" stop-opacity="0"/>
</linearGradient>
</defs>
</svg>
