<svg width="33" height="32" viewBox="0 0 33 32" fill="none" xmlns="http://www.w3.org/2000/svg">
<path d="M30.8241 15.5067C30.8241 13.4325 29.5411 11.6611 27.7249 10.9353C27.7627 10.6842 27.7903 10.4296 27.7903 10.1682C27.7903 7.61596 25.8468 5.5143 23.3599 5.26664C23.329 3.46424 21.8636 2.01269 20.0544 2.01269C18.2451 2.01269 16.7454 3.4952 16.7454 5.32168V25.6916C16.7454 27.5181 18.2279 29.0006 20.0544 29.0006C21.7123 29.0006 23.0813 27.7795 23.3221 26.1904C25.8296 25.9599 27.7903 23.8548 27.7903 21.2853C27.7903 20.8795 27.7352 20.4873 27.6423 20.109C29.4998 19.4038 30.8241 17.6117 30.8241 15.5067Z" fill="url(#paint0_linear_739_28522)"/>
<path d="M30.8241 15.5067C30.8241 13.4325 29.5411 11.6611 27.7249 10.9353C27.7627 10.6842 27.7903 10.4296 27.7903 10.1682C27.7903 7.61596 25.8468 5.5143 23.3599 5.26664C23.329 3.46424 21.8636 2.01269 20.0544 2.01269C18.2451 2.01269 16.7454 3.4952 16.7454 5.32168V25.6916C16.7454 27.5181 18.2279 29.0006 20.0544 29.0006C21.7123 29.0006 23.0813 27.7795 23.3221 26.1904C25.8296 25.9599 27.7903 23.8548 27.7903 21.2853C27.7903 20.8795 27.7352 20.4873 27.6423 20.109C29.4998 19.4038 30.8241 17.6117 30.8241 15.5067Z" stroke="#3B4356" stroke-width="1.3" stroke-linecap="round" stroke-linejoin="round"/>
<path d="M26.6862 18.544C27.3466 19.342 27.7421 20.367 27.7421 21.4849C27.7421 24.0372 25.6714 26.1079 23.1192 26.1079C21.5954 26.1079 20.247 25.3718 19.4043 24.2367" stroke="#3B4356" stroke-width="1.3" stroke-linecap="round" stroke-linejoin="round"/>
<path d="M26.6862 12.8725C27.3466 12.0745 27.7421 11.0495 27.7421 9.93155C27.7421 7.37929 25.6714 5.30859 23.1192 5.30859C21.5954 5.30859 20.247 6.04468 19.4043 7.17979" stroke="#3B4356" stroke-width="1.3" stroke-linecap="round" stroke-linejoin="round"/>
<path d="M24.7357 13.4572C23.3048 13.4572 22.1456 12.298 22.1456 10.8671" stroke="#3B4356" stroke-width="1.3" stroke-linecap="round" stroke-linejoin="round"/>
<path d="M24.7357 18.3894C23.3048 18.3894 22.1456 19.5486 22.1456 20.9795" stroke="#3B4356" stroke-width="1.3" stroke-linecap="round" stroke-linejoin="round"/>
<path d="M2.66663 15.494C2.66663 17.5681 3.94963 19.3395 5.7658 20.0653C5.72796 20.3164 5.70045 20.571 5.70045 20.8324C5.70045 23.3846 7.64388 25.4863 10.1308 25.734C10.1617 27.5364 11.6271 28.9879 13.4363 28.9879C15.2456 28.9879 16.7453 27.5054 16.7453 25.6789V5.30899C16.7453 3.48251 15.2628 2 13.4363 2C11.7784 2 10.4094 3.22109 10.1686 4.81023C7.66108 5.04069 5.70045 7.14579 5.70045 9.71525C5.70045 10.1211 5.75548 10.5133 5.84835 10.8916C3.99091 11.5968 2.66663 13.3889 2.66663 15.494Z" fill="url(#paint1_linear_739_28522)"/>
<path d="M2.66663 15.494C2.66663 17.5681 3.94963 19.3395 5.7658 20.0653C5.72796 20.3164 5.70045 20.571 5.70045 20.8324C5.70045 23.3846 7.64388 25.4863 10.1308 25.734C10.1617 27.5364 11.6271 28.9879 13.4363 28.9879C15.2456 28.9879 16.7453 27.5054 16.7453 25.6789V5.30899C16.7453 3.48251 15.2628 2 13.4363 2C11.7784 2 10.4094 3.22109 10.1686 4.81023C7.66108 5.04069 5.70045 7.1458 5.70045 9.71525C5.70045 10.1211 5.75548 10.5133 5.84835 10.8916C3.99091 11.5968 2.66663 13.3889 2.66663 15.494Z" stroke="#3B4356" stroke-width="1.3" stroke-linecap="round" stroke-linejoin="round"/>
<path d="M6.80806 12.4565C6.14764 11.6585 5.75208 10.6334 5.75208 9.51554C5.75208 6.96328 7.82278 4.89258 10.375 4.89258C11.8988 4.89258 13.2472 5.62868 14.0899 6.76378" stroke="#3B4356" stroke-width="1.3" stroke-linecap="round" stroke-linejoin="round"/>
<path d="M6.80806 18.127C6.14764 18.925 5.75208 19.95 5.75208 21.0679C5.75208 23.6202 7.82278 25.6909 10.375 25.6909C11.8988 25.6909 13.2472 24.9548 14.0899 23.8197" stroke="#3B4356" stroke-width="1.5" stroke-linecap="round" stroke-linejoin="round"/>
<path d="M8.75488 17.5399C10.1858 17.5399 11.345 18.6991 11.345 20.13" stroke="#3B4356" stroke-width="1.3" stroke-linecap="round" stroke-linejoin="round"/>
<path d="M8.75488 12.6117C10.1858 12.6117 11.345 11.4525 11.345 10.0216" stroke="#3B4356" stroke-width="1.3" stroke-linecap="round" stroke-linejoin="round"/>
<path d="M20.7732 15.457L19.9821 16.2481L16.7488 19.4849L13.512 16.2481L12.7209 15.457C11.83 14.5661 11.83 13.1146 12.7209 12.2237C13.1681 11.7765 13.7528 11.5529 14.3376 11.5529C14.9223 11.5529 15.5071 11.7765 15.9542 12.2237L16.7454 13.0148L17.5365 12.2237C18.4274 11.3294 19.8789 11.3294 20.7732 12.2237C21.6641 13.1146 21.6641 14.5661 20.7732 15.457Z" fill="#14A5F8"/>
<path d="M20.7732 15.457L19.9821 16.2481L16.7488 19.4849L13.512 16.2481L12.7209 15.457C11.83 14.5661 11.83 13.1146 12.7209 12.2237C13.1681 11.7765 13.7528 11.5529 14.3376 11.5529C14.9223 11.5529 15.5071 11.7765 15.9542 12.2237L16.7454 13.0148L17.5365 12.2237C18.4274 11.3294 19.8789 11.3294 20.7732 12.2237C21.6641 13.1146 21.6641 14.5661 20.7732 15.457Z" stroke="#3B4356" stroke-linecap="round" stroke-linejoin="round"/>
<defs>
<linearGradient id="paint0_linear_739_28522" x1="30.8241" y1="15.5066" x2="16.7454" y2="15.5066" gradientUnits="userSpaceOnUse">
<stop offset="0.03" stop-color="#A3A5AB"/>
<stop offset="0.45" stop-color="#A3A5AB" stop-opacity="0"/>
</linearGradient>
<linearGradient id="paint1_linear_739_28522" x1="2.67007" y1="15.4905" x2="16.7488" y2="15.4905" gradientUnits="userSpaceOnUse">
<stop offset="0.03" stop-color="#A3A5AB"/>
<stop offset="0.45" stop-color="#A3A5AB" stop-opacity="0"/>
</linearGradient>
</defs>
</svg>
