<svg width="17" height="16" viewBox="0 0 17 16" fill="none" xmlns="http://www.w3.org/2000/svg">
<path d="M13.1667 2.66668H12.5V2.00001C12.5 1.63334 12.2 1.33334 11.8333 1.33334C11.4667 1.33334 11.1667 1.63334 11.1667 2.00001V2.66668H5.83333V2.00001C5.83333 1.63334 5.53333 1.33334 5.16667 1.33334C4.8 1.33334 4.5 1.63334 4.5 2.00001V2.66668H3.83333C3.09333 2.66668 2.50667 3.26668 2.50667 4.00001L2.5 13.3333C2.5 14.0667 3.09333 14.6667 3.83333 14.6667H13.1667C13.9 14.6667 14.5 14.0667 14.5 13.3333V4.00001C14.5 3.26668 13.9 2.66668 13.1667 2.66668ZM13.1667 12.6667C13.1667 13.0333 12.8667 13.3333 12.5 13.3333H4.5C4.13333 13.3333 3.83333 13.0333 3.83333 12.6667V6.00001H13.1667V12.6667ZM5.16667 7.33334H6.5V8.66668H5.16667V7.33334ZM7.83333 7.33334H9.16667V8.66668H7.83333V7.33334ZM10.5 7.33334H11.8333V8.66668H10.5V7.33334Z" fill="#7047EB"/>
</svg>
