<svg width="12" height="12" viewBox="0 0 12 12" fill="none" xmlns="http://www.w3.org/2000/svg">
<path d="M11.9002 3.58L11.2336 2.42667C11.0469 2.10667 10.6402 2 10.3202 2.18L7.7069 3.69333V0.666667C7.7069 0.3 7.4069 0 7.04024 0H5.7069C5.34024 0 5.04024 0.3 5.04024 0.666667V3.69333L2.42024 2.18C2.10024 1.99333 1.69357 2.10667 1.51357 2.42L0.846904 3.57333C0.660237 3.89333 0.766904 4.30667 1.0869 4.48667L3.7069 6L1.0869 7.51333C0.766904 7.7 0.660237 8.10667 0.840237 8.42667L1.5069 9.58C1.69357 9.9 2.10024 10.0067 2.42024 9.82667L5.04024 8.30667V11.3333C5.04024 11.7 5.34024 12 5.7069 12H7.04024C7.4069 12 7.7069 11.7 7.7069 11.3333V8.30667L10.3269 9.82C10.6469 10.0067 11.0536 9.89333 11.2402 9.57333L11.9069 8.42C12.0936 8.1 11.9802 7.69333 11.6602 7.50667L9.04024 6L11.6602 4.48667C11.9802 4.30667 12.0869 3.89333 11.9002 3.58Z" fill="#26A95F"/>
</svg>
