<svg width="32" height="32" viewBox="0 0 32 32" fill="none" xmlns="http://www.w3.org/2000/svg">
<g clip-path="url(#clip0_739_28544)">
<path d="M20.2396 13.2836C21.022 8.45059 17.7365 3.89762 12.9035 3.11521C8.07043 2.3328 3.51744 5.61833 2.73504 10.4514C2.59934 11.2857 2.58779 12.1143 2.68307 12.9141L0.999878 17.2996L2.59357 17.5565L3.09016 23.1027L3.76285 23.3192C4.72137 23.631 5.75496 23.6253 6.71348 23.3048L2.94292 29.5467H13.2239L18.4207 17.3891C19.3417 16.2371 19.9884 14.8398 20.2396 13.2807V13.2836Z" fill="url(#paint0_linear_739_28544)"/>
<path d="M20.2396 13.2836C21.022 8.45059 17.7365 3.89762 12.9035 3.11521C8.07043 2.3328 3.51744 5.61833 2.73504 10.4514C2.59934 11.2857 2.58779 12.1143 2.68307 12.9141L0.999878 17.2996L2.59357 17.5565L3.09016 23.1027L3.76285 23.3192C4.72137 23.631 5.75496 23.6253 6.71348 23.3048L2.94292 29.5467H13.2239L18.4207 17.3891C19.3417 16.2371 19.9884 14.8398 20.2396 13.2807V13.2836Z" stroke="#3B4356" stroke-width="1.2" stroke-linecap="round" stroke-linejoin="round"/>
<path d="M11.7601 13.2836C10.9777 8.45059 14.2632 3.89762 19.0963 3.11521C23.9293 2.3328 28.4823 5.61833 29.2647 10.4514C29.4004 11.2857 29.4119 12.1143 29.3166 12.9141L30.9998 17.2996L29.4061 17.5565L28.9096 23.1027L28.2369 23.3192C27.2783 23.631 26.2447 23.6253 25.2862 23.3048L29.0568 29.5467H18.7758L13.579 17.3891C12.658 16.2371 12.0113 14.8398 11.7601 13.2807V13.2836Z" fill="url(#paint1_linear_739_28544)"/>
<path d="M11.7601 13.2836C10.9777 8.45059 14.2632 3.89762 19.0963 3.11521C23.9293 2.3328 28.4823 5.61833 29.2647 10.4514C29.4004 11.2857 29.4119 12.1143 29.3166 12.9141L30.9998 17.2996L29.4061 17.5565L28.9096 23.1027L28.2369 23.3192C27.2783 23.631 26.2447 23.6253 25.2862 23.3048L29.0568 29.5467H18.7758L13.579 17.3891C12.658 16.2371 12.0113 14.8398 11.7601 13.2807V13.2836Z" stroke="#3B4356" stroke-width="1.2" stroke-linecap="round" stroke-linejoin="round"/>
<path d="M15.9985 16.0005C18.2356 16.0005 20.0491 14.187 20.0491 11.9499C20.0491 9.7128 18.2356 7.89928 15.9985 7.89928C13.7614 7.89928 11.9479 9.7128 11.9479 11.9499C11.9479 14.187 13.7614 16.0005 15.9985 16.0005Z" fill="#14A5F8"/>
<path d="M16 15.9999C18.2091 15.9999 20 14.209 20 11.9999C20 9.79072 18.2091 7.99986 16 7.99986C13.7909 7.99986 12 9.79072 12 11.9999C12 14.209 13.7909 15.9999 16 15.9999Z" stroke="#3B4356" stroke-linecap="round" stroke-linejoin="round"/>
<path d="M18.4121 11.1066H16.8415V9.536H15.1583V11.1066H13.5848V12.7927H15.1583V14.3632H16.8415V12.7927H18.4121V11.1066Z" fill="white"/>
<path d="M18.4121 11.1066H16.8415V9.536H15.1583V11.1066H13.5848V12.7927H15.1583V14.3632H16.8415V12.7927H18.4121V11.1066Z" stroke="#3B4356" stroke-width="0.5" stroke-linecap="round" stroke-linejoin="round"/>
</g>
<defs>
<linearGradient id="paint0_linear_739_28544" x1="8.16934" y1="30.3956" x2="12.5913" y2="3.06363" gradientUnits="userSpaceOnUse">
<stop offset="0.03" stop-color="#A3A5AB"/>
<stop offset="0.44" stop-color="#A3A5AB" stop-opacity="0"/>
</linearGradient>
<linearGradient id="paint1_linear_739_28544" x1="23.8309" y1="30.3939" x2="19.4095" y2="3.0647" gradientUnits="userSpaceOnUse">
<stop offset="0.03" stop-color="#A3A5AB"/>
<stop offset="0.44" stop-color="#A3A5AB" stop-opacity="0"/>
</linearGradient>
<clipPath id="clip0_739_28544">
<rect width="32" height="32" fill="white"/>
</clipPath>
</defs>
</svg>
