<svg width="22" height="18" viewBox="0 0 22 18" fill="none" xmlns="http://www.w3.org/2000/svg">
<path d="M1.62185 4.69559H5.13868C5.3265 5.43629 5.75312 6.0928 6.35129 6.56163C6.94946 7.03046 7.68514 7.28493 8.44236 7.28493C9.19959 7.28493 9.93527 7.03046 10.5334 6.56163C11.1316 6.0928 11.5582 5.43629 11.7461 4.69559H20.3783C20.6044 4.69559 20.8212 4.60489 20.9811 4.44345C21.141 4.28201 21.2308 4.06304 21.2308 3.83473C21.2308 3.60641 21.141 3.38745 20.9811 3.226C20.8212 3.06456 20.6044 2.97386 20.3783 2.97386H11.7461C11.5582 2.23316 11.1316 1.57665 10.5334 1.10782C9.93527 0.638995 9.19959 0.384521 8.44236 0.384521C7.68514 0.384521 6.94946 0.638995 6.35129 1.10782C5.75312 1.57665 5.3265 2.23316 5.13868 2.97386H1.62185C1.39574 2.97386 1.17888 3.06456 1.019 3.226C0.859111 3.38745 0.769287 3.60641 0.769287 3.83473C0.769287 4.06304 0.859111 4.28201 1.019 4.44345C1.17888 4.60489 1.39574 4.69559 1.62185 4.69559ZM8.44236 2.113C8.77961 2.113 9.10928 2.21398 9.38968 2.40316C9.67009 2.59235 9.88864 2.86125 10.0177 3.17585C10.1468 3.49046 10.1805 3.83664 10.1147 4.17062C10.0489 4.5046 9.88654 4.81138 9.64807 5.05217C9.40961 5.29296 9.10578 5.45694 8.77502 5.52337C8.44426 5.5898 8.10141 5.55571 7.78984 5.4254C7.47827 5.29508 7.21196 5.0744 7.0246 4.79127C6.83724 4.50813 6.73724 4.17525 6.73724 3.83473C6.73724 3.3781 6.91688 2.94017 7.23666 2.61728C7.55643 2.2944 7.99014 2.113 8.44236 2.113ZM20.3783 13.3042H18.5666C18.3787 12.5635 17.9521 11.907 17.354 11.4382C16.7558 10.9694 16.0201 10.7149 15.2629 10.7149C14.5057 10.7149 13.77 10.9694 13.1718 11.4382C12.5736 11.907 12.147 12.5635 11.9592 13.3042H1.62185C1.39574 13.3042 1.17888 13.3949 1.019 13.5564C0.859111 13.7178 0.769287 13.9368 0.769287 14.1651C0.769287 14.3934 0.859111 14.6124 1.019 14.7738C1.17888 14.9353 1.39574 15.0259 1.62185 15.0259H11.9592C12.147 15.7666 12.5736 16.4232 13.1718 16.892C13.77 17.3608 14.5057 17.6153 15.2629 17.6153C16.0201 17.6153 16.7558 17.3608 17.354 16.892C17.9521 16.4232 18.3787 15.7666 18.5666 15.0259H20.3783C20.6044 15.0259 20.8212 14.9353 20.9811 14.7738C21.141 14.6124 21.2308 14.3934 21.2308 14.1651C21.2308 13.9368 21.141 13.7178 20.9811 13.5564C20.8212 13.3949 20.6044 13.3042 20.3783 13.3042ZM15.2629 15.8868C14.9256 15.8868 14.596 15.7858 14.3156 15.5967C14.0352 15.4075 13.8166 15.1386 13.6875 14.824C13.5585 14.5094 13.5247 14.1632 13.5905 13.8292C13.6563 13.4952 13.8187 13.1884 14.0572 12.9476C14.2956 12.7069 14.5995 12.5429 14.9302 12.4764C15.261 12.41 15.6038 12.4441 15.9154 12.5744C16.227 12.7047 16.4933 12.9254 16.6806 13.2085C16.868 13.4917 16.968 13.8246 16.968 14.1651C16.968 14.6217 16.7884 15.0596 16.4686 15.3825C16.1488 15.7054 15.7151 15.8868 15.2629 15.8868Z" fill="#1C1D20"/>
</svg>
