<svg width="33" height="32" viewBox="0 0 33 32" fill="none" xmlns="http://www.w3.org/2000/svg">
<path d="M30.5449 16.3996C30.5449 14.3128 29.2541 12.5305 27.4268 11.8003C27.4649 11.5477 27.4926 11.2916 27.4926 11.0286C27.4926 8.46074 25.5373 6.34625 23.0352 6.09707C23.0041 4.28366 21.5298 2.82324 19.7095 2.82324C17.8891 2.82324 16.3802 4.31481 16.3802 6.15245V26.6468C16.3802 28.4844 17.8718 29.976 19.7095 29.976C21.3775 29.976 22.7549 28.7474 22.9971 27.1486C25.52 26.9167 27.4926 24.7988 27.4926 22.2136C27.4926 21.8052 27.4372 21.4107 27.3438 21.03C29.2126 20.3206 30.5449 18.5176 30.5449 16.3996Z" fill="url(#paint0_linear_739_28497)"/>
<path d="M30.5449 16.3996C30.5449 14.3128 29.2541 12.5305 27.4268 11.8003C27.4649 11.5477 27.4926 11.2916 27.4926 11.0286C27.4926 8.46074 25.5373 6.34625 23.0352 6.09707C23.0041 4.28366 21.5298 2.82324 19.7095 2.82324C17.8891 2.82324 16.3802 4.31481 16.3802 6.15245V26.6468C16.3802 28.4844 17.8718 29.976 19.7095 29.976C21.3775 29.976 22.7549 28.7474 22.9971 27.1486C25.52 26.9167 27.4926 24.7988 27.4926 22.2136C27.4926 21.8052 27.4372 21.4107 27.3438 21.03C29.2126 20.3206 30.5449 18.5176 30.5449 16.3996Z" stroke="#3F3F50" stroke-width="1.5" stroke-linecap="round" stroke-linejoin="round"/>
<path d="M26.3783 19.4521C27.0428 20.255 27.4408 21.2863 27.4408 22.4111C27.4408 24.9789 25.3574 27.0622 22.7896 27.0622C21.2565 27.0622 19.8999 26.3217 19.052 25.1796" stroke="#3F3F50" stroke-width="1.5" stroke-linecap="round" stroke-linejoin="round"/>
<path d="M26.3782 13.7487C27.0427 12.9458 27.4407 11.9146 27.4407 10.7898C27.4407 8.22197 25.3573 6.13863 22.7895 6.13863C21.2564 6.13863 19.8998 6.87922 19.0519 8.02125" stroke="#3F3F50" stroke-width="1.5" stroke-linecap="round" stroke-linejoin="round"/>
<path d="M24.4195 14.3374C22.9799 14.3374 21.8136 13.1711 21.8136 11.7314" stroke="#3F3F50" stroke-width="1.5" stroke-linecap="round" stroke-linejoin="round"/>
<path d="M24.4195 19.2998C22.9799 19.2998 21.8136 20.4661 21.8136 21.9057" stroke="#3F3F50" stroke-width="1.5" stroke-linecap="round" stroke-linejoin="round"/>
<path d="M2.21558 16.3996C2.21558 18.4864 3.50642 20.2687 5.33368 20.9989C5.29561 21.2515 5.26793 21.5076 5.26793 21.7706C5.26793 24.3385 7.22323 26.453 9.72532 26.7022C9.75647 28.5156 11.2307 29.976 13.0511 29.976C14.8714 29.976 16.3803 28.4844 16.3803 26.6468V6.15245C16.3803 4.31481 14.8887 2.82324 13.0511 2.82324C11.383 2.82324 10.0056 4.05179 9.76339 5.65064C7.24053 5.88251 5.26793 8.00047 5.26793 10.5856C5.26793 10.994 5.32329 11.3885 5.41673 11.7692C3.54795 12.4786 2.21558 14.2817 2.21558 16.3996Z" fill="url(#paint1_linear_739_28497)"/>
<path d="M2.21558 16.3996C2.21558 18.4864 3.50642 20.2687 5.33368 20.9989C5.29561 21.2515 5.26793 21.5076 5.26793 21.7706C5.26793 24.3385 7.22323 26.453 9.72532 26.7021C9.75647 28.5156 11.2307 29.976 13.0511 29.976C14.8714 29.976 16.3803 28.4844 16.3803 26.6468V6.15245C16.3803 4.31481 14.8887 2.82324 13.0511 2.82324C11.383 2.82324 10.0056 4.05179 9.76339 5.65064C7.24053 5.88251 5.26793 8.00047 5.26793 10.5856C5.26793 10.994 5.32329 11.3885 5.41673 11.7692C3.54795 12.4786 2.21558 14.2817 2.21558 16.3996Z" stroke="#3F3F50" stroke-width="1.5" stroke-linecap="round" stroke-linejoin="round"/>
<path d="M6.38227 13.3445C5.71781 12.5416 5.31982 11.5103 5.31982 10.3856C5.31982 7.81772 7.40317 5.73438 9.97102 5.73438C11.5041 5.73438 12.8607 6.47497 13.7086 7.617" stroke="#3F3F50" stroke-width="1.5" stroke-linecap="round" stroke-linejoin="round"/>
<path d="M6.38227 19.0469C5.71781 19.8498 5.31982 20.881 5.31982 22.0058C5.31982 24.5736 7.40317 26.657 9.97102 26.657C11.5041 26.657 12.8607 25.9164 13.7086 24.7743" stroke="#3F3F50" stroke-width="1.5" stroke-linecap="round" stroke-linejoin="round"/>
<path d="M8.34106 18.462C9.78072 18.462 10.947 19.6283 10.947 21.068" stroke="#3F3F50" stroke-width="1.5" stroke-linecap="round" stroke-linejoin="round"/>
<path d="M8.34106 13.4995C9.78072 13.4995 10.947 12.3332 10.947 10.8936" stroke="#3F3F50" stroke-width="1.5" stroke-linecap="round" stroke-linejoin="round"/>
<path d="M21.2973 17.6019C21.9594 14.779 20.2078 11.954 17.3849 11.2919C14.5621 10.6298 11.737 12.3814 11.0749 15.2042C10.4128 18.0271 12.1645 20.8522 14.9873 21.5142C17.8101 22.1763 20.6352 20.4247 21.2973 17.6019Z" fill="#14A5F8"/>
<path d="M21.2973 17.6019C21.9594 14.779 20.2078 11.954 17.3849 11.2919C14.5621 10.6298 11.737 12.3814 11.0749 15.2042C10.4128 18.0271 12.1645 20.8522 14.9873 21.5142C17.8101 22.1763 20.6352 20.4247 21.2973 17.6019Z" stroke="#3F3F50" stroke-linecap="round" stroke-linejoin="round"/>
<path d="M19.3046 15.3064H17.2663V13.2715H15.0825V15.3064H13.0442V17.4901H15.0825V19.5285H17.2663V17.4901H19.3046V15.3064Z" fill="white"/>
<path d="M19.3046 15.3064H17.2663V13.2715H15.0825V15.3064H13.0442V17.4901H15.0825V19.5285H17.2663V17.4901H19.3046V15.3064Z" stroke="#3F3F50" stroke-linecap="round" stroke-linejoin="round"/>
<defs>
<linearGradient id="paint0_linear_739_28497" x1="30.5449" y1="16.3996" x2="16.3802" y2="16.3996" gradientUnits="userSpaceOnUse">
<stop offset="0.03" stop-color="#A3A5AB"/>
<stop offset="0.45" stop-color="#A3A5AB" stop-opacity="0"/>
</linearGradient>
<linearGradient id="paint1_linear_739_28497" x1="2.21558" y1="16.3996" x2="16.3803" y2="16.3996" gradientUnits="userSpaceOnUse">
<stop offset="0.03" stop-color="#A3A5AB"/>
<stop offset="0.45" stop-color="#A3A5AB" stop-opacity="0"/>
</linearGradient>
</defs>
</svg>
