<svg width="25" height="24" viewBox="0 0 25 24" fill="none" xmlns="http://www.w3.org/2000/svg">
<path d="M12.5999 18.75C12.1899 18.75 11.8499 18.41 11.8499 18V15C11.8499 14.59 12.1899 14.25 12.5999 14.25C13.0099 14.25 13.3499 14.59 13.3499 15V18C13.3499 18.41 13.0099 18.75 12.5999 18.75Z" fill="#8A8AA3"/>
<path d="M18.1998 22.56H6.99981C5.17981 22.56 3.51981 21.16 3.21981 19.37L1.88981 11.4C1.66981 10.16 2.27981 8.57001 3.26981 7.78001L10.1998 2.23001C11.5398 1.15001 13.6498 1.16001 14.9998 2.24001L21.9298 7.78001C22.9098 8.57001 23.5098 10.16 23.3098 11.4L21.9798 19.36C21.6798 21.13 19.9798 22.56 18.1998 22.56ZM12.5898 2.93001C12.0598 2.93001 11.5298 3.09001 11.1398 3.40001L4.20981 8.96001C3.64981 9.41001 3.24981 10.45 3.36981 11.16L4.69981 19.12C4.87981 20.17 5.92981 21.06 6.99981 21.06H18.1998C19.2698 21.06 20.3198 20.17 20.4998 19.11L21.8298 11.15C21.9398 10.45 21.5398 9.39001 20.9898 8.95001L14.0598 3.41001C13.6598 3.09001 13.1198 2.93001 12.5898 2.93001Z" fill="#8A8AA3"/>
</svg>
