<svg width="25" height="24" viewBox="0 0 25 24" fill="none" xmlns="http://www.w3.org/2000/svg">
<path opacity="0.24" d="M21.4301 8.01002L14.8801 2.77002C13.6001 1.75002 11.6001 1.74002 10.3301 2.76002L3.78006 8.01002C2.84006 8.76002 2.27006 10.26 2.47006 11.44L3.73006 18.98C4.02006 20.67 5.59006 22 7.30006 22H17.9001C19.5901 22 21.1901 20.64 21.4801 18.97L22.7401 11.43C22.9201 10.26 22.3501 8.76002 21.4301 8.01002Z" fill="#14A5F8"/>
<path d="M12.6001 18.75C12.1901 18.75 11.8501 18.41 11.8501 18V15C11.8501 14.59 12.1901 14.25 12.6001 14.25C13.0101 14.25 13.3501 14.59 13.3501 15V18C13.3501 18.41 13.0101 18.75 12.6001 18.75Z" fill="#14A5F8"/>
</svg>
