<svg width="25" height="24" viewBox="0 0 25 24" fill="none" xmlns="http://www.w3.org/2000/svg">
<path d="M12.6001 18.75C12.1901 18.75 11.8501 18.41 11.8501 18V15C11.8501 14.59 12.1901 14.25 12.6001 14.25C13.0101 14.25 13.3501 14.59 13.3501 15V18C13.3501 18.41 13.0101 18.75 12.6001 18.75Z" fill="#8A8AA3"/>
<path d="M18.2001 22.56H7.00006C5.18006 22.56 3.52006 21.16 3.22006 19.37L1.89006 11.4C1.67006 10.16 2.28006 8.57001 3.27006 7.78001L10.2001 2.23001C11.5401 1.15001 13.6501 1.16001 15.0001 2.24001L21.9301 7.78001C22.9101 8.57001 23.5101 10.16 23.3101 11.4L21.9801 19.36C21.6801 21.13 19.9801 22.56 18.2001 22.56ZM12.5901 2.93001C12.0601 2.93001 11.5301 3.09001 11.1401 3.40001L4.21006 8.96001C3.65006 9.41001 3.25006 10.45 3.37006 11.16L4.70006 19.12C4.88006 20.17 5.93006 21.06 7.00006 21.06H18.2001C19.2701 21.06 20.3201 20.17 20.5001 19.11L21.8301 11.15C21.9401 10.45 21.5401 9.39001 20.9901 8.95001L14.0601 3.41001C13.6601 3.09001 13.1201 2.93001 12.5901 2.93001Z" fill="#8A8AA3"/>
</svg>
