<svg width="25" height="24" viewBox="0 0 25 24" fill="none" xmlns="http://www.w3.org/2000/svg">
<path opacity="0.24" d="M21.4298 8.01002L14.8798 2.77002C13.5998 1.75002 11.5998 1.74002 10.3298 2.76002L3.77982 8.01002C2.83982 8.76002 2.26982 10.26 2.46982 11.44L3.72982 18.98C4.01982 20.67 5.58982 22 7.29982 22H17.8998C19.5898 22 21.1898 20.64 21.4798 18.97L22.7398 11.43C22.9198 10.26 22.3498 8.76002 21.4298 8.01002Z" fill="#14A5F8"/>
<path d="M12.5999 18.75C12.1899 18.75 11.8499 18.41 11.8499 18V15C11.8499 14.59 12.1899 14.25 12.5999 14.25C13.0099 14.25 13.3499 14.59 13.3499 15V18C13.3499 18.41 13.0099 18.75 12.5999 18.75Z" fill="#14A5F8"/>
</svg>
