<svg width="14" height="14" viewBox="0 0 14 14" fill="none" xmlns="http://www.w3.org/2000/svg">
<path d="M6.99998 13.0416C10.3367 13.0416 13.0416 10.3367 13.0416 6.99998C13.0416 3.66326 10.3367 0.958313 6.99998 0.958313M6.99998 13.0416C3.66326 13.0416 0.958313 10.3367 0.958313 6.99998C0.958313 3.66326 3.66326 0.958313 6.99998 0.958313M6.99998 13.0416C8.03551 13.0416 9.70831 10.75 9.70831 6.99998C9.70831 3.24998 8.03551 0.958313 6.99998 0.958313M6.99998 13.0416C5.96445 13.0416 4.29165 10.75 4.29165 6.99998C4.29165 3.24998 5.96445 0.958313 6.99998 0.958313M1.16665 6.99998H12.8333" stroke="#8A8AA3" stroke-width="1.5" stroke-linecap="round" stroke-linejoin="round"/>
</svg>
