<svg width="32" height="32" viewBox="0 0 32 32" fill="none" xmlns="http://www.w3.org/2000/svg">
<path d="M16.3519 2C14.7748 2 13.4276 2.97476 12.8771 4.35433C12.686 4.32518 12.4949 4.30575 12.2942 4.30575C10.3543 4.30575 8.7578 5.78247 8.56998 7.67371C7.20013 7.69638 6.09583 8.81039 6.09583 10.1867C6.09583 11.563 7.22279 12.6997 8.60883 12.6997H24.0917C25.481 12.6997 26.6047 11.5728 26.6047 10.1867C26.6047 8.92698 25.6785 7.88744 24.4706 7.70285C24.2957 5.79866 22.6959 4.30575 20.7432 4.30575C20.4355 4.30575 20.1344 4.34785 19.8494 4.4191C19.3118 3.00715 17.9517 2 16.3519 2Z" fill="#14A5F8"/>
<path d="M16.3519 2C14.7748 2 13.4276 2.97476 12.8771 4.35433C12.686 4.32518 12.4949 4.30575 12.2942 4.30575C10.3543 4.30575 8.7578 5.78247 8.56998 7.67371C7.20013 7.69638 6.09583 8.81039 6.09583 10.1867C6.09583 11.563 7.22279 12.6997 8.60883 12.6997H24.0917C25.481 12.6997 26.6047 11.5728 26.6047 10.1867C26.6047 8.92698 25.6785 7.88744 24.4706 7.70285C24.2957 5.79866 22.6959 4.30575 20.7432 4.30575C20.4355 4.30575 20.1344 4.34785 19.8494 4.4191C19.3118 3.00715 17.9517 2 16.3519 2Z" stroke="#3F3F50" stroke-width="1.2" stroke-linecap="round" stroke-linejoin="round"/>
<path d="M18.6576 5.14489C19.2664 4.64294 20.0436 4.34177 20.8921 4.34177C22.8319 4.34177 24.4058 5.91564 24.4058 7.85545C24.4058 9.01156 23.8455 10.0381 22.9841 10.6793" stroke="#3F3F50" stroke-width="1.2" stroke-linecap="round" stroke-linejoin="round"/>
<path d="M14.3506 5.14489C13.7418 4.64294 12.9646 4.34177 12.1161 4.34177C10.1763 4.34177 8.60242 5.91564 8.60242 7.85545C8.60242 9.01156 9.16266 10.0381 10.0241 10.6793" stroke="#3F3F50" stroke-width="1.2" stroke-linecap="round" stroke-linejoin="round"/>
<path d="M18.5443 8.59298C18.5443 7.50487 19.4252 6.62402 20.5133 6.62402" stroke="#3F3F50" stroke-width="1.2" stroke-linecap="round" stroke-linejoin="round"/>
<path d="M14.7942 8.59298C14.7942 7.50487 13.9133 6.62402 12.8252 6.62402" stroke="#3F3F50" stroke-width="1.2" stroke-linecap="round" stroke-linejoin="round"/>
<path d="M30.141 22.5479C29.9241 21.3788 28.8036 20.6081 27.6345 20.8218L25.3644 21.3205L20.0372 24.4294L20.144 24.41L19.9789 24.5071L30.141 22.5447V22.5479Z" fill="url(#paint0_linear_739_28474)"/>
<path d="M28.8003 19.3387C28.2045 18.3089 26.8897 17.9559 25.8599 18.5518L25.3223 18.8627L26.8541 17.2499C25.9959 16.3918 24.6034 16.3918 23.7419 17.2499L21.909 19.1444L23.1169 17.0524C22.0288 16.4241 20.6363 16.7966 20.008 17.8847L18.7645 20.0415L15.7074 19.2545H16.8409C17.9581 19.2545 18.8649 18.3478 18.8649 17.2305H10.7786C8.3206 17.2305 5.76872 17.1496 4.3082 19.5006C3.12941 21.3951 2.99988 23.8693 2.99988 26.039V29.9996H10.7786V24.436H20.0372L20.1084 24.3583L28.7971 19.342L28.8003 19.3387Z" fill="url(#paint1_linear_739_28474)"/>
<path d="M30.141 22.5481C29.9241 21.379 28.8036 20.6082 27.6345 20.822L25.3644 21.3207L20.0372 24.4296L20.144 24.4101L19.9789 24.5073L30.141 22.5448V22.5481Z" stroke="#3F3F50" stroke-linecap="round" stroke-linejoin="round"/>
<path d="M28.8003 19.3389C28.2045 18.3091 26.8897 17.9561 25.8599 18.5519L25.3223 18.8628L26.8541 17.2501C25.9959 16.3919 24.6034 16.3919 23.7419 17.2501L21.909 19.1446L23.1169 17.0526C22.0288 16.4243 20.6363 16.7967 20.008 17.8848L18.7645 20.0416L15.7074 19.2547H16.8409C17.9581 19.2547 18.8649 18.3479 18.8649 17.2307H10.7786C8.3206 17.2307 5.76872 17.1497 4.3082 19.5008C3.12941 21.3953 2.99988 23.8694 2.99988 26.0392V29.9997H10.7786V24.4361H20.0372L20.1084 24.3584L28.7971 19.3421L28.8003 19.3389Z" stroke="#3F3F50" stroke-linecap="round" stroke-linejoin="round"/>
<path d="M15.7042 19.2549H10.3058" stroke="#3F3F50" stroke-linecap="round" stroke-linejoin="round"/>
<path d="M23.1137 17.0527L18.8649 24.4331" stroke="#3F3F50" stroke-linecap="round" stroke-linejoin="round"/>
<path d="M26.4913 17.6289L19.6194 24.4328" stroke="#3F3F50" stroke-linecap="round" stroke-linejoin="round"/>
<defs>
<linearGradient id="paint0_linear_739_28474" x1="25.0567" y1="24.5104" x2="25.0567" y2="20.7862" gradientUnits="userSpaceOnUse">
<stop offset="0.03" stop-color="#A3A5AB"/>
<stop offset="0.45" stop-color="#A3A5AB" stop-opacity="0"/>
</linearGradient>
<linearGradient id="paint1_linear_739_28474" x1="15.8985" y1="29.9964" x2="15.8985" y2="16.6055" gradientUnits="userSpaceOnUse">
<stop offset="0.03" stop-color="#A3A5AB"/>
<stop offset="0.45" stop-color="#A3A5AB" stop-opacity="0"/>
</linearGradient>
</defs>
</svg>
