<svg width="25" height="24" viewBox="0 0 25 24" fill="none" xmlns="http://www.w3.org/2000/svg">
<path opacity="0.24" d="M16.2 2H8.19995C4.19995 2 2.19995 4 2.19995 8V21C2.19995 21.55 2.64995 22 3.19995 22H16.2C20.2 22 22.2 20 22.2 16V8C22.2 4 20.2 2 16.2 2Z" fill="#14A5F8"/>
<path d="M17.2 8.75H7.19995C6.78995 8.75 6.44995 9.09 6.44995 9.5C6.44995 9.91 6.78995 10.25 7.19995 10.25H17.2C17.61 10.25 17.95 9.91 17.95 9.5C17.95 9.09 17.61 8.75 17.2 8.75Z" fill="#14A5F8"/>
<path d="M14.2 13.75H7.19995C6.78995 13.75 6.44995 14.09 6.44995 14.5C6.44995 14.91 6.78995 15.25 7.19995 15.25H14.2C14.61 15.25 14.95 14.91 14.95 14.5C14.95 14.09 14.61 13.75 14.2 13.75Z" fill="#14A5F8"/>
</svg>
