<svg width="25" height="24" viewBox="0 0 25 24" fill="none" xmlns="http://www.w3.org/2000/svg">
<path d="M16.2 22.75H3.19995C2.23995 22.75 1.44995 21.96 1.44995 21V8C1.44995 3.58 3.77995 1.25 8.19995 1.25H16.2C20.62 1.25 22.95 3.58 22.95 8V16C22.95 20.42 20.62 22.75 16.2 22.75ZM8.19995 2.75C4.61995 2.75 2.94995 4.42 2.94995 8V21C2.94995 21.14 3.05995 21.25 3.19995 21.25H16.2C19.78 21.25 21.45 19.58 21.45 16V8C21.45 4.42 19.78 2.75 16.2 2.75H8.19995Z" fill="#8A8AA3"/>
<path d="M17.2 10.25H7.19995C6.78995 10.25 6.44995 9.91 6.44995 9.5C6.44995 9.09 6.78995 8.75 7.19995 8.75H17.2C17.61 8.75 17.95 9.09 17.95 9.5C17.95 9.91 17.61 10.25 17.2 10.25Z" fill="#8A8AA3"/>
<path d="M14.2 15.25H7.19995C6.78995 15.25 6.44995 14.91 6.44995 14.5C6.44995 14.09 6.78995 13.75 7.19995 13.75H14.2C14.61 13.75 14.95 14.09 14.95 14.5C14.95 14.91 14.61 15.25 14.2 15.25Z" fill="#8A8AA3"/>
</svg>
