<svg width="25" height="24" viewBox="0 0 25 24" fill="none" xmlns="http://www.w3.org/2000/svg">
<path opacity="0.24" d="M12.3999 22C17.9228 22 22.3999 17.5228 22.3999 12C22.3999 6.47715 17.9228 2 12.3999 2C6.87705 2 2.3999 6.47715 2.3999 12C2.3999 17.5228 6.87705 22 12.3999 22Z" fill="#14A5F8"/>
<path d="M12.3999 13C11.8399 13 11.3999 12.55 11.3999 12C11.3999 11.45 11.8499 11 12.3999 11C12.9499 11 13.3999 11.45 13.3999 12C13.3999 12.55 12.9599 13 12.3999 13Z" fill="#14A5F8"/>
<path d="M16.3999 13C15.8399 13 15.3999 12.55 15.3999 12C15.3999 11.45 15.8499 11 16.3999 11C16.9499 11 17.3999 11.45 17.3999 12C17.3999 12.55 16.9599 13 16.3999 13Z" fill="#14A5F8"/>
<path d="M8.3999 13C7.8399 13 7.3999 12.55 7.3999 12C7.3999 11.45 7.8499 11 8.3999 11C8.9499 11 9.3999 11.45 9.3999 12C9.3999 12.55 8.9599 13 8.3999 13Z" fill="#14A5F8"/>
</svg>
