<svg width="25" height="24" viewBox="0 0 25 24" fill="none" xmlns="http://www.w3.org/2000/svg">
<path d="M12.3999 22.75C6.4699 22.75 1.6499 17.93 1.6499 12C1.6499 6.07 6.4699 1.25 12.3999 1.25C18.3299 1.25 23.1499 6.07 23.1499 12C23.1499 17.93 18.3299 22.75 12.3999 22.75ZM12.3999 2.75C7.2999 2.75 3.1499 6.9 3.1499 12C3.1499 17.1 7.2999 21.25 12.3999 21.25C17.4999 21.25 21.6499 17.1 21.6499 12C21.6499 6.9 17.4999 2.75 12.3999 2.75Z" fill="#8A8AA3"/>
<path d="M12.3999 13C11.8399 13 11.3999 12.55 11.3999 12C11.3999 11.45 11.8499 11 12.3999 11C12.9499 11 13.3999 11.45 13.3999 12C13.3999 12.55 12.9599 13 12.3999 13Z" fill="#8A8AA3"/>
<path d="M16.3999 13C15.8399 13 15.3999 12.55 15.3999 12C15.3999 11.45 15.8499 11 16.3999 11C16.9499 11 17.3999 11.45 17.3999 12C17.3999 12.55 16.9599 13 16.3999 13Z" fill="#8A8AA3"/>
<path d="M8.3999 13C7.8399 13 7.3999 12.55 7.3999 12C7.3999 11.45 7.8499 11 8.3999 11C8.9499 11 9.3999 11.45 9.3999 12C9.3999 12.55 8.9599 13 8.3999 13Z" fill="#8A8AA3"/>
</svg>
