<svg width="17" height="16" viewBox="0 0 17 16" fill="none" xmlns="http://www.w3.org/2000/svg">
<path d="M15.5625 0.78125H1.4375C0.920625 0.78125 0.5 1.20187 0.5 1.71875V11.0312C0.5 11.5481 0.920625 11.9688 1.4375 11.9688H15.5625C16.0794 11.9688 16.5 11.5481 16.5 11.0312V1.71875C16.5 1.20187 16.0794 0.78125 15.5625 0.78125Z" fill="#14A5F8"/>
<path d="M13.5 14.2812H10.9688V12.9062H6.03125V14.2812H3.5C3.24125 14.2812 3.03125 14.4913 3.03125 14.75C3.03125 15.0087 3.24125 15.2188 3.5 15.2188H13.5C13.7587 15.2188 13.9688 15.0087 13.9688 14.75C13.9688 14.4913 13.7587 14.2812 13.5 14.2812Z" fill="#14A5F8"/>
</svg>
