<svg width="18" height="13" viewBox="0 0 18 13" fill="none" xmlns="http://www.w3.org/2000/svg">
<path fill-rule="evenodd" clip-rule="evenodd" d="M0.698295 1.40228C0.200195 1.90457 0.200195 2.71199 0.200195 4.32857V9.47142C0.200195 11.088 0.200195 11.8954 0.698295 12.3977C1.1964 12.9 1.9971 12.9 3.6002 12.9H13.8002C15.4033 12.9 16.204 12.9 16.7021 12.3977C17.2002 11.8954 17.2002 11.088 17.2002 9.47142V4.32857C17.2002 2.71199 17.2002 1.90457 16.7021 1.40228C16.204 0.899994 15.4033 0.899994 13.8002 0.899994H3.6002C1.9971 0.899994 1.1964 0.899994 0.698295 1.40228ZM2.7502 2.61428C2.52476 2.61428 2.30856 2.70459 2.14915 2.86533C1.98975 3.02608 1.9002 3.24409 1.9002 3.47142C1.9002 3.69875 1.98975 3.91677 2.14915 4.07751C2.30856 4.23826 2.52476 4.32857 2.7502 4.32857H4.45019C4.67563 4.32857 4.89183 4.23826 5.05124 4.07751C5.21064 3.91677 5.3002 3.69875 5.3002 3.47142C5.3002 3.24409 5.21064 3.02608 5.05124 2.86533C4.89183 2.70459 4.67563 2.61428 4.45019 2.61428H2.7502ZM12.1002 10.3286C12.1002 10.1012 12.1897 9.88322 12.3492 9.72247C12.5086 9.56173 12.7248 9.47142 12.9502 9.47142H14.6502C14.8756 9.47142 15.0918 9.56173 15.2512 9.72247C15.4106 9.88322 15.5002 10.1012 15.5002 10.3286C15.5002 10.5559 15.4106 10.7739 15.2512 10.9347C15.0918 11.0954 14.8756 11.1857 14.6502 11.1857H12.9502C12.7248 11.1857 12.5086 11.0954 12.3492 10.9347C12.1897 10.7739 12.1002 10.5559 12.1002 10.3286ZM9.55019 6.89999C9.55019 7.12732 9.46064 7.34534 9.30124 7.50609C9.14183 7.66683 8.92563 7.75714 8.70019 7.75714C8.47476 7.75714 8.25856 7.66683 8.09915 7.50609C7.93975 7.34534 7.85019 7.12732 7.85019 6.89999C7.85019 6.67267 7.93975 6.45465 8.09915 6.2939C8.25856 6.13316 8.47476 6.04285 8.70019 6.04285C8.92563 6.04285 9.14183 6.13316 9.30124 6.2939C9.46064 6.45465 9.55019 6.67267 9.55019 6.89999ZM11.2502 6.89999C11.2502 7.58198 10.9815 8.23603 10.5033 8.71827C10.0251 9.20051 9.3765 9.47142 8.70019 9.47142C8.02389 9.47142 7.37529 9.20051 6.89707 8.71827C6.41885 8.23603 6.15019 7.58198 6.15019 6.89999C6.15019 6.21801 6.41885 5.56396 6.89707 5.08172C7.37529 4.59948 8.02389 4.32857 8.70019 4.32857C9.3765 4.32857 10.0251 4.59948 10.5033 5.08172C10.9815 5.56396 11.2502 6.21801 11.2502 6.89999Z" fill="#14A5F8"/>
</svg>
