<svg width="25" height="24" viewBox="0 0 25 24" fill="none" xmlns="http://www.w3.org/2000/svg">
<path d="M11.7998 20.75C6.4198 20.75 2.0498 16.38 2.0498 11C2.0498 5.62 6.4198 1.25 11.7998 1.25C17.1798 1.25 21.5498 5.62 21.5498 11C21.5498 16.38 17.1798 20.75 11.7998 20.75ZM11.7998 2.75C7.2498 2.75 3.5498 6.45 3.5498 11C3.5498 15.55 7.2498 19.25 11.7998 19.25C16.3498 19.25 20.0498 15.55 20.0498 11C20.0498 6.45 16.3498 2.75 11.7998 2.75Z" fill="#8A8AA3"/>
<path d="M20.9599 22.79C20.8799 22.79 20.7999 22.78 20.7299 22.77C20.2599 22.71 19.4099 22.39 18.9299 20.96C18.6799 20.21 18.7699 19.46 19.1799 18.89C19.5899 18.32 20.2799 18 21.0699 18C22.0899 18 22.8899 18.39 23.2499 19.08C23.6099 19.77 23.5099 20.65 22.9399 21.5C22.2299 22.57 21.4599 22.79 20.9599 22.79ZM20.3599 20.49C20.5299 21.01 20.7699 21.27 20.9299 21.29C21.0899 21.31 21.3899 21.12 21.6999 20.67C21.9899 20.24 22.0099 19.93 21.9399 19.79C21.8699 19.65 21.5899 19.5 21.0699 19.5C20.7599 19.5 20.5299 19.6 20.3999 19.77C20.2799 19.94 20.2599 20.2 20.3599 20.49Z" fill="#8A8AA3"/>
</svg>
