<svg width="25" height="24" viewBox="0 0 25 24" fill="none" xmlns="http://www.w3.org/2000/svg">
<path opacity="0.24" d="M11.8098 20.02C16.7859 20.02 20.8198 15.9861 20.8198 11.01C20.8198 6.03391 16.7859 2 11.8098 2C6.83372 2 2.7998 6.03391 2.7998 11.01C2.7998 15.9861 6.83372 20.02 11.8098 20.02Z" fill="#14A5F8"/>
<path d="M22.7899 18.95C22.4599 18.34 21.7599 18 20.8199 18C20.1099 18 19.4999 18.29 19.1399 18.79C18.7799 19.29 18.6999 19.96 18.9199 20.63C19.3499 21.93 20.0999 22.22 20.5099 22.27C20.5699 22.28 20.6299 22.28 20.6999 22.28C21.1399 22.28 21.8199 22.09 22.4799 21.1C23.0099 20.33 23.1099 19.56 22.7899 18.95Z" fill="#14A5F8"/>
</svg>
