<svg width="25" height="24" viewBox="0 0 25 24" fill="none" xmlns="http://www.w3.org/2000/svg">
<path d="M8.7979 16H12.7979M8.7979 11H16.7979M8.2999 3.5C6.7439 3.547 5.8169 3.72 5.1749 4.362C4.2959 5.242 4.2959 6.657 4.2959 9.488V15.994C4.2959 18.826 4.2959 20.241 5.1749 21.121C6.0529 22 7.4679 22 10.2959 22H15.2959C18.1249 22 19.5389 22 20.4169 21.12C21.2969 20.241 21.2969 18.826 21.2969 15.994V9.488C21.2969 6.658 21.2969 5.242 20.4169 4.362C19.7759 3.72 18.8479 3.547 17.2919 3.5" stroke="#8A8AA3" stroke-width="1.5" stroke-linecap="round" stroke-linejoin="round"/>
<path d="M8.2959 3.75C8.2959 2.784 9.0799 2 10.0459 2H15.5459C16.01 2 16.4551 2.18437 16.7833 2.51256C17.1115 2.84075 17.2959 3.28587 17.2959 3.75C17.2959 4.21413 17.1115 4.65925 16.7833 4.98744C16.4551 5.31563 16.01 5.5 15.5459 5.5H10.0459C9.58177 5.5 9.13665 5.31563 8.80846 4.98744C8.48027 4.65925 8.2959 4.21413 8.2959 3.75Z" stroke="#8A8AA3" stroke-width="1.5" stroke-linecap="round" stroke-linejoin="round"/>
</svg>
