<svg width="18" height="18" viewBox="0 0 18 18" fill="none" xmlns="http://www.w3.org/2000/svg">
<path opacity="0.4" d="M12.771 0H5.229C1.953 0 0 1.953 0 5.229V12.771C0 16.047 1.953 18 5.229 18H12.771C16.047 18 18 16.047 18 12.771V5.229C18 1.953 16.047 0 12.771 0Z" fill="#282833"/>
<path d="M14.679 6.183C14.679 6.552 14.382 6.858 14.004 6.858H9.279C8.91 6.858 8.604 6.552 8.604 6.183C8.604 5.814 8.91 5.508 9.279 5.508H14.004C14.382 5.508 14.679 5.814 14.679 6.183Z" fill="#282833"/>
<path d="M7.17303 5.31L5.14803 7.335C5.01303 7.47 4.84203 7.533 4.67103 7.533C4.50003 7.533 4.32003 7.47 4.19403 7.335L3.51903 6.66C3.24903 6.399 3.24903 5.967 3.51903 5.706C3.78003 5.445 4.20303 5.445 4.47303 5.706L4.67103 5.904L6.21903 4.356C6.48003 4.095 6.90303 4.095 7.17303 4.356C7.43403 4.617 7.43403 5.049 7.17303 5.31Z" fill="#282833"/>
<path d="M14.679 12.483C14.679 12.852 14.382 13.158 14.004 13.158H9.279C8.91 13.158 8.604 12.852 8.604 12.483C8.604 12.114 8.91 11.808 9.279 11.808H14.004C14.382 11.808 14.679 12.114 14.679 12.483Z" fill="#282833"/>
<path d="M7.17303 11.61L5.14803 13.635C5.01303 13.77 4.84203 13.833 4.67103 13.833C4.50003 13.833 4.32003 13.77 4.19403 13.635L3.51903 12.96C3.24903 12.699 3.24903 12.267 3.51903 12.006C3.78003 11.745 4.20303 11.745 4.47303 12.006L4.67103 12.204L6.21903 10.656C6.48003 10.395 6.90303 10.395 7.17303 10.656C7.43403 10.917 7.43403 11.349 7.17303 11.61Z" fill="#282833"/>
</svg>
