<svg width="19" height="18" viewBox="0 0 19 18" fill="none" xmlns="http://www.w3.org/2000/svg">
<path opacity="0.4" d="M18.4999 9C18.4999 13.9716 14.4706 18 9.49988 18C4.52918 18 0.499878 13.9716 0.499878 9C0.499878 4.0302 4.52918 0 9.49988 0C14.4706 0 18.4999 4.0302 18.4999 9Z" fill="#282833"/>
<path d="M12.7162 12.4335C12.5983 12.4335 12.4795 12.4029 12.3706 12.339L8.83717 10.2312C8.63377 10.1088 8.50867 9.88831 8.50867 9.65071V5.10841C8.50867 4.73581 8.81107 4.43341 9.18367 4.43341C9.55627 4.43341 9.85867 4.73581 9.85867 5.10841V9.26731L13.0627 11.178C13.3822 11.3697 13.4875 11.7837 13.2967 12.1041C13.1698 12.3156 12.9457 12.4335 12.7162 12.4335Z" fill="#282833"/>
</svg>
