<svg width="16" height="16" viewBox="0 0 16 16" fill="none" xmlns="http://www.w3.org/2000/svg">
<path d="M6.66771 2.33333H9.33438C9.70104 2.33333 10.001 2.03333 10.001 1.66667C10.001 1.3 9.70104 1 9.33438 1H6.66771C6.30104 1 6.00104 1.3 6.00104 1.66667C6.00104 2.03333 6.30104 2.33333 6.66771 2.33333Z" fill="#26A95F"/>
<path d="M12.6877 5.26L13.1877 4.76C13.441 4.50667 13.4477 4.08667 13.1877 3.82667L13.181 3.82C12.921 3.56 12.5077 3.56667 12.2477 3.82L11.7477 4.32C10.7144 3.49333 9.41438 3 8.00104 3C4.80104 3 2.08104 5.64 2.00104 8.84C1.91438 12.2267 4.62771 15 8.00104 15C11.321 15 14.001 12.3133 14.001 9C14.001 7.58667 13.5077 6.28667 12.6877 5.26ZM8.66771 9C8.66771 9.36667 8.36771 9.66667 8.00104 9.66667C7.63438 9.66667 7.33438 9.36667 7.33438 9V6.33333C7.33438 5.96667 7.63438 5.66667 8.00104 5.66667C8.36771 5.66667 8.66771 5.96667 8.66771 6.33333V9Z" fill="#26A95F"/>
</svg>
