<svg width="20" height="21" viewBox="0 0 20 21" fill="none" xmlns="http://www.w3.org/2000/svg">
<path d="M16 6.36839H3.5V5.86839L14.5 4.98839V5.86839H16V4.36839C16 3.26839 15.109 2.49639 14.021 2.65139L3.98 4.08539C2.891 4.24139 2 5.26839 2 6.36839V16.3684C2 16.8988 2.21071 17.4075 2.58579 17.7826C2.96086 18.1577 3.46957 18.3684 4 18.3684H16C16.5304 18.3684 17.0391 18.1577 17.4142 17.7826C17.7893 17.4075 18 16.8988 18 16.3684V8.36839C18 7.83796 17.7893 7.32925 17.4142 6.95418C17.0391 6.57911 16.5304 6.36839 16 6.36839ZM14.5 13.3744C14.303 13.3743 14.1078 13.3355 13.9258 13.26C13.7438 13.1845 13.5784 13.0739 13.4391 12.9346C13.2998 12.7952 13.1894 12.6297 13.114 12.4476C13.0387 12.2656 12.9999 12.0704 13 11.8734C13.0001 11.6763 13.0389 11.4812 13.1144 11.2992C13.1899 11.1172 13.3005 10.9518 13.4398 10.8125C13.5792 10.6732 13.7447 10.5628 13.9267 10.4874C14.1088 10.4121 14.304 10.3733 14.501 10.3734C14.899 10.3735 15.2806 10.5317 15.5619 10.8132C15.8432 11.0947 16.0011 11.4764 16.001 11.8744C16.0009 12.2724 15.8427 12.654 15.5612 12.9353C15.2797 13.2166 14.898 13.3745 14.5 13.3744Z" fill="#1C3E7F"/>
</svg>
